<?xml version="1.0" encoding="utf-8"?>
<!-- Generator: Adobe Illustrator 18.1.1, SVG Export Plug-In . SVG Version: 6.00 Build 0)  -->
<svg version="1.1" id="Layer_1" xmlns="http://www.w3.org/2000/svg" xmlns:xlink="http://www.w3.org/1999/xlink" x="0px" y="0px"
	 viewBox="0 0 39.7 19.3" enable-background="new 0 0 39.7 19.3" xml:space="preserve">
<g>
	<path fill="#FFFFFF" d="M30.6,0C25,0,21.3,4.6,18,8.7c-2.8,3.5-5.5,6.7-8.7,6.7c-3.4,0-5.4-3.5-5.4-5.9c0-2.3,2.3-5.6,5.8-5.6
		c3.4,0,5.2,2.8,5.3,2.9c0.6,0.9,1.7,1.2,2.6,0.6c0.9-0.6,1.2-1.7,0.6-2.7C18.2,4.5,15.3,0,9.7,0C4,0,0,5,0,9.5
		c0,4.6,3.8,9.8,9.3,9.8c5.1,0,8.4-4.2,11.7-8.2c3-3.7,5.9-7.2,9.6-7.2c2.3,0,3.7,0.8,4.5,2.3c0.7,1.4,0.7,2.9,0.7,3.4
		c0,0.3-0.2,1.8-0.9,3.2c-0.9,1.6-2.1,2.3-3.8,2.3c-3.5,0-5.4-2.3-6.2-3.2c-0.2-0.2-0.3-0.4-0.5-0.5c-0.8-0.7-2-0.6-2.7,0.2
		c-0.7,0.8-0.6,1.9,0.1,2.6c0,0,0.1,0.1,0.1,0.2c0.9,1.1,3.8,4.6,9.1,4.6c6.5,0,8.6-6.3,8.6-9.4c0-2-0.4-3.7-1.1-5.2
		C37.6,2.4,35.4,0,30.6,0L30.6,0z M30.6,0"/>
</g>
</svg>
