<?xml version="1.0" encoding="utf-8"?>
<!-- Generator: Adobe Illustrator 18.1.1, SVG Export Plug-In . SVG Version: 6.00 Build 0)  -->
<svg version="1.1" id="Layer_1" xmlns="http://www.w3.org/2000/svg" xmlns:xlink="http://www.w3.org/1999/xlink" x="0px" y="0px"
	 viewBox="0 0 39 39" enable-background="new 0 0 39 39" xml:space="preserve">
<g>
	<g>
		<path fill="#F3F4F4" d="M28.4,1.3c-2,0.3-5.9,8.1-3.8,15.7c1,3.5,6.1,3.3,6.3-0.3C31,13.7,26.8,7.5,28.4,1.3L28.4,1.3z M28.4,1.3"
			/>
		<path fill="#F3F4F4" d="M34.6,1.3c1.6,6.2-2.6,12.4-2.4,15.4c0.2,3.6,5.3,3.8,6.3,0.3C40.5,9.4,36.6,1.6,34.6,1.3L34.6,1.3z
			 M34.6,1.3"/>
	</g>
	<path fill="#F3F4F4" d="M24.8,20.5c-0.4,0.5,0.5,3,2.6,4.2c1,0.6,2-0.6,1.3-1.4C28,22.6,25.8,22.2,24.8,20.5L24.8,20.5z M24.8,20.5
		"/>
	<g>
		<path fill="#F3F4F4" d="M34.3,23.3c-0.7,0.8,0.3,2,1.3,1.4c2.1-1.2,2.9-3.7,2.6-4.2C37.1,22.2,34.9,22.6,34.3,23.3L34.3,23.3z
			 M34.3,23.3"/>
		<path fill="#F3F4F4" d="M4.9,14.3C2.9,14.6-1,22.4,1.1,30c1,3.5,6.1,3.3,6.3-0.3C7.5,26.7,3.3,20.5,4.9,14.3L4.9,14.3z M4.9,14.3"
			/>
	</g>
	<path fill="#F3F4F4" d="M11.1,14.3c1.6,6.2-2.6,12.4-2.4,15.4C8.9,33.3,14,33.5,15,30C17,22.4,13.2,14.6,11.1,14.3L11.1,14.3z
		 M11.1,14.3"/>
	<path fill="#F3F4F4" d="M1.3,33.5c-0.4,0.5,0.5,3,2.6,4.2c1,0.6,2-0.6,1.3-1.4C4.6,35.6,2.4,35.2,1.3,33.5L1.3,33.5z M1.3,33.5"/>
	<path fill="#F3F4F4" d="M10.8,36.3c-0.7,0.8,0.3,2,1.3,1.4c2.1-1.2,2.9-3.7,2.6-4.2C13.7,35.2,11.5,35.6,10.8,36.3L10.8,36.3z
		 M10.8,36.3"/>
</g>
</svg>
