<?xml version="1.0" encoding="utf-8"?>
<!-- Generator: Adobe Illustrator 18.1.1, SVG Export Plug-In . SVG Version: 6.00 Build 0)  -->
<svg version="1.1" id="Layer_1" xmlns="http://www.w3.org/2000/svg" xmlns:xlink="http://www.w3.org/1999/xlink" x="0px" y="0px"
	 viewBox="0 0 80 60" enable-background="new 0 0 80 60" xml:space="preserve">
<g id="Profile_21_" display="none">
	<path display="inline" fill="#FFFFFF" d="M64.1,50.6c-1-3.4-9.5-8.1-13.4-9.8c-0.3-0.1-0.6-0.1-0.8,0l-9.5,4.6l-8.6-4.6
		c-0.3-0.1-0.6-0.2-0.8-0.1c-3.4,1.3-13.4,6-14.4,9.9c-0.7,2.8-1,4.1-1,4.2c0,0.1,0,0.1,0,0.2c0,1.4,0.7,2,1.3,2.3
		c0.8,0.4,1.6,0.4,2.6,0.4c0.2,0,1,0,1,0h40h2c0.8,0,2.8,0,2.8-2.5C65.1,54.2,65,53.6,64.1,50.6z M62,55.8c-0.2,0-0.5,0-0.8,0
		c-0.3,0-0.6,0-1,0h-40c-0.2,0-0.5,0-0.7,0c-0.2,0-0.4,0-0.6,0c0,0,0,0,0,0c-0.3,0-1,0-1.3-0.2c-0.1,0-0.2-0.1-0.2-0.4
		c0.1-0.4,0.4-1.7,1-4c0.6-2.3,7.7-6.3,12.8-8.3l8.6,4.6c0.3,0.2,0.6,0.2,0.9,0l9.6-4.6c5.6,2.5,11.4,6.5,11.9,8.4
		c0.9,2.8,0.9,3.2,0.9,4C63.1,55.7,63.1,55.8,62,55.8z"/>
	<path display="inline" fill="#FFFFFF" d="M29.8,29.1c0.5,1.3,1.2,2.3,1.8,3.3c0.2,0.3,0.4,0.6,0.6,0.9c0.6,1.1,1.3,1.9,2,2.5
		c0,1-0.2,2.2-0.4,3.1c-0.1,0.5,0.2,1.1,0.7,1.2c0.5,0.1,1.1-0.2,1.2-0.7c0.3-1.2,0.4-2.9,0.5-4c0-0.3-0.2-0.7-0.4-0.8
		c-0.7-0.5-1.3-1.2-1.9-2.2c-0.2-0.3-0.4-0.6-0.6-0.9c-0.7-1.1-1.3-2-1.8-3.4c-0.1-0.4-0.5-0.6-0.9-0.7c-0.1,0-0.4-0.2-0.5-0.4
		c-1-1.9-1.4-4.7-1.3-5.3c0,0,0.1-0.1,0.4-0.1c0.3,0,0.5-0.1,0.7-0.3c0.2-0.2,0.3-0.5,0.3-0.7C30,14.7,32.1,11.6,34,10
		c0.3-0.3,0.4-0.8,0.3-1.2c0,0,0-0.1,0-0.1c0.9-0.6,2.3-0.5,2.3-0.5l0.1-1l0.8-0.6c-0.1-0.2,0.1-0.5,0.3-0.9c0.6,0.5,1.3,0.8,2,1
		c2.1,0.6,3.5,1.2,4.5,1.6c4.3,1.7,6.6,6.1,6.4,12c0,0.3,0.1,0.5,0.3,0.7c0.2,0.2,0.4,0.3,0.7,0.3c0.2,0,0.3,0,0.3,0
		c0.2,0.6-0.2,3.4-1.2,5.3c-0.1,0.3-0.4,0.4-0.5,0.4c-0.4,0.1-0.7,0.3-0.8,0.6c-0.5,1.4-1.1,2.4-1.8,3.4c-0.2,0.3-0.4,0.6-0.6,1
		c-0.6,1-1.2,1.7-1.7,2.1c-0.2,0.2-0.4,0.5-0.4,0.8c0,0.9,0.1,2.7,0.5,4.2c0.1,0.4,0.5,0.7,1,0.7c0.1,0,0.2,0,0.3,0
		c0.5-0.1,0.8-0.7,0.7-1.2c-0.3-1.1-0.4-2.5-0.4-3.3c0.6-0.6,1.2-1.3,1.8-2.3c0.2-0.3,0.4-0.6,0.6-0.9c0.6-1,1.3-2,1.8-3.3
		c0.5-0.2,1-0.7,1.4-1.3c1.2-2.1,1.8-5.6,1.4-6.9c-0.2-0.5-0.6-0.9-1.1-1.2c0-6.3-2.8-11.2-7.6-13.1c-0.9-0.4-2.5-1-4.7-1.6
		c-1-0.3-1.4-0.7-1.5-0.8c0-0.3-0.2-0.5-0.4-0.7c-0.2-0.2-0.5-0.2-0.8-0.2c-0.9,0.2-1.6,1.3-1.9,2.1c-0.1,0.3-0.2,0.6-0.2,0.9
		C34,6.5,32.2,7.1,31.7,9c-0.1,0.2-0.1,0.4,0,0.5c-1.7,1.9-3.4,5.1-3.4,10.1c-0.6,0.2-1,0.6-1.3,1.2c-0.5,1.4,0.2,4.8,1.4,6.9
		C28.7,28.4,29.2,28.8,29.8,29.1z"/>
</g>
<g id="Groups_20_" display="none">
	<path display="inline" fill="#FFFFFF" d="M62.3,3.5h-36c-2.8,0-5,2.2-5,5v5h-3c-2.8,0-5,2.2-5,5v34c0,2.8,2.2,5,5,5h36
		c2.8,0,5-2.2,5-5v-6h3c2.8,0,5-2.2,5-5v-33C67.3,5.8,65.1,3.5,62.3,3.5z M57.3,52.5c0,1.7-1.3,3-3,3h-36c-1.7,0-3-1.3-3-3v-34
		c0-1.7,1.3-3,3-3h36c1.7,0,3,1.3,3,3V52.5z M65.3,41.5c0,1.7-1.3,3-3,3h-3v-26c0-2.8-2.2-5-5-5h-31v-5c0-1.7,1.3-3,3-3h36
		c1.7,0,3,1.3,3,3V41.5z"/>
</g>
<g id="Post_21_">
	<g>
		<path fill="#FFFFFF" d="M67.3,58.2H12.7c-8.7,0-9.5-7.1-9.5-7.2l0-26.7c0-9.4,7.1-10.4,7.2-10.5c0,0,0.1,0,0.1,0h14
			c0.5-7.1,6.6-10.7,6.9-10.9c0.2-0.1,0.3-0.1,0.5-0.1H48c0.2,0,0.4,0,0.5,0.1c0.3,0.2,6.4,3.8,6.9,10.9h14c0,0,0.1,0,0.1,0
			c0.1,0,7.2,1,7.2,10.5v26.6C76.8,51.1,76,58.2,67.3,58.2z M5.2,50.9c0.1,0.6,0.9,5.4,7.5,5.4h54.5c6.6,0,7.4-4.8,7.5-5.4V24.3
			c0-7.3-4.8-8.4-5.4-8.5H54.5c-0.6,0-1-0.4-1-1c0-5.9-4.7-9.3-5.8-10H32.3c-1.1,0.7-5.8,4.2-5.8,10c0,0.6-0.4,1-1,1H10.6
			C10,15.9,5.2,17,5.2,24.3V50.9z"/>
	</g>
	<g>
		<path fill="#FFFFFF" d="M69,26h-14c-0.6,0-1-0.4-1-1v-5.8c0-0.6,0.4-1,1-1h14c0.6,0,1,0.4,1,1V25C70,25.5,69.6,26,69,26z M56.1,24
			h12v-3.8h-12V24z"/>
	</g>
	<g>
		<path fill="#FFFFFF" d="M40,50.8c-7.9,0-14.2-6.4-14.2-14.2S32.1,22.4,40,22.4s14.2,6.4,14.2,14.2S47.9,50.8,40,50.8z M40,24.4
			c-6.8,0-12.2,5.5-12.2,12.2c0,6.8,5.5,12.2,12.2,12.2c6.8,0,12.2-5.5,12.2-12.2C52.2,29.8,46.8,24.4,40,24.4z"/>
	</g>
</g>
<g display="none">
	<g display="inline">
		<path fill="#FFFFFF" d="M39.3,7l5.2,26.8l-27.7,5.4l-5.2-26.8L39.3,7 M40.1,5.8l-29.6,5.8L16,40.4l29.6-5.8L40.1,5.8L40.1,5.8z"/>
	</g>
	<path display="inline" fill="none" d="M43.6,43.7l-16.1,3c0.2,0.4,0.5,0.6,0.9,0.8l1.6,0.5l17-3.2L43.6,43.7z"/>
	<path display="inline" fill="none" d="M25.7,47.1l-9,1.7c-0.1,0-0.2,0-0.3,0c-0.8,0-1.6-0.6-1.7-1.4L7.8,11.3
		c-0.2-0.9,0.4-1.9,1.4-2l31.5-6c0.1,0,0.2,0,0.3,0c0.8,0,1.6,0.6,1.7,1.4l0.7,3.6l1.9,0.7l-0.9-4.6c-0.3-1.7-1.8-2.9-3.5-2.9
		c-0.2,0-0.4,0-0.7,0.1l-31.5,6C7,7.9,5.7,9.7,6.1,11.6l6.8,36.1c0.3,1.7,1.8,2.9,3.5,2.9c0.2,0,0.4,0,0.7-0.1l9.8-1.9
		C26.3,48.3,25.9,47.7,25.7,47.1z"/>
	<polygon display="inline" fill="none" points="44.4,13.1 46.3,13.7 45.8,10.9 43.8,10.3 	"/>
	<path display="inline" fill="#FFFFFF" d="M72.8,18.1c-0.2-0.1-0.4-0.2-0.6-0.3L47.4,9.6l0.4,2l23.9,8c0.1,0,0.2,0.1,0.3,0.1
		c0.7,0.4,1.1,1.3,0.8,2.1L61,56.6c-0.1,0.4-0.5,0.8-0.9,1c-0.4,0.2-0.9,0.2-1.3,0.1l-25.3-8.5l-3.6,0.7l28.3,9.5
		c0.9,0.3,1.8,0.2,2.7-0.2c0.8-0.4,1.5-1.1,1.8-2l11.7-34.8C74.9,20.7,74.3,19,72.8,18.1z"/>
	<g display="inline">
		<path fill="#FFFFFF" d="M41.1,1.5c-0.2,0-0.4,0-0.7,0.1l-31.5,6C7,7.9,5.7,9.7,6.1,11.6l6.8,36.1c0.3,1.7,1.8,2.9,3.5,2.9
			c0.2,0,0.4,0,0.7-0.1l9.8-1.9l2.7-0.5l17.6-3.3h0l1.5-0.3c0.7-0.1,1.3-0.5,1.8-0.9c0.2-0.2,0.3-0.3,0.4-0.5
			c0.5-0.8,0.7-1.7,0.6-2.6L44.5,4.4C44.2,2.7,42.8,1.5,41.1,1.5L41.1,1.5z M16.4,48.8c-0.8,0-1.6-0.6-1.7-1.4L7.8,11.3
			c-0.2-0.9,0.4-1.9,1.4-2l31.5-6c0.1,0,0.2,0,0.3,0c0.8,0,1.6,0.6,1.7,1.4l0.7,3.6h0l0.4,2l0,0l0.5,2.8h0l5.2,27.7
			c0.1,0.5,0,0.9-0.3,1.3c-0.1,0.1-0.1,0.2-0.2,0.3c-0.2,0.2-0.6,0.4-0.9,0.5l-31.5,6C16.6,48.8,16.5,48.8,16.4,48.8L16.4,48.8z"/>
	</g>
	<g display="inline">
		<path fill="#FFFFFF" d="M49.6,15.9l19,6.2L60,48l-7.6-2.5c0.3-0.3,0.5-0.6,0.7-0.9c1-1.4,1.3-3.1,1-4.7L49.6,15.9 M48.3,14.4
			l4.9,25.7c0.3,1.4,0,2.8-0.8,4c-0.5,0.8-1.3,1.4-2.1,1.8l10.4,3.4l9.1-27.8L48.3,14.4L48.3,14.4z"/>
	</g>
</g>
<path id="Home_21_" display="none" fill="#FFFFFF" d="M67,31.4L42.4,4.9c-1.1-1.2-3.1-1.2-4.2,0L13.6,31.4c-0.4,0.4-0.4,1,0.1,1.4
	c0.4,0.4,1,0.4,1.4-0.1l4.3-4.6v25.9c0,1.7,1.3,3,3,3h36c1.7,0,3-1.3,3-3V28.2l4.3,4.6c0.2,0.2,0.5,0.3,0.7,0.3
	c0.2,0,0.5-0.1,0.7-0.3C67.4,32.4,67.4,31.8,67,31.4z M47.3,55.1h-14v-19c0-3.3,2.7-6,6-6h2c3.3,0,6,2.7,6,6V55.1z M59.3,26.1v28
	c0,0.6-0.4,1-1,1h-9v-19c0-4.4-3.6-8-8-8h-2c-4.4,0-8,3.6-8,8v19h-9c-0.6,0-1-0.4-1-1v-28h-0.1L39.7,6.2c0.3-0.4,0.9-0.4,1.3,0
	L59.3,26.1L59.3,26.1z"/>
</svg>
