<?xml version="1.0" encoding="utf-8"?>
<!-- Generator: Adobe Illustrator 18.1.1, SVG Export Plug-In . SVG Version: 6.00 Build 0)  -->
<svg version="1.1" id="Layer_1" xmlns="http://www.w3.org/2000/svg" xmlns:xlink="http://www.w3.org/1999/xlink" x="0px" y="0px"
	 viewBox="0 0 36 35" enable-background="new 0 0 36 35" xml:space="preserve">
<g opacity="0.5">
	<path fill="#393845" d="M6.4,34.4v-7.9c-3.9-2.8-6.1-6.9-6.1-11.2c0-8.2,8-14.8,17.7-14.8c9.8,0,17.7,6.6,17.7,14.8
		c0,8.2-8,14.8-17.7,14.8c-1.2,0-2.3-0.1-3.5-0.3L6.4,34.4z M18,3C9.5,3,2.6,8.5,2.6,15.4c0,3.7,2,7.2,5.6,9.6l0.5,0.4v5.1l5.3-3
		l0.4,0.1c1.1,0.2,2.3,0.3,3.5,0.3c8.5,0,15.4-5.6,15.4-12.4C33.4,8.5,26.5,3,18,3L18,3z M18,3"/>
</g>
</svg>
