<?xml version="1.0" encoding="utf-8"?>
<!-- Generator: Adobe Illustrator 18.1.1, SVG Export Plug-In . SVG Version: 6.00 Build 0)  -->
<svg version="1.1" id="Layer_1" xmlns="http://www.w3.org/2000/svg" xmlns:xlink="http://www.w3.org/1999/xlink" x="0px" y="0px"
	 viewBox="0 0 34.9 34.9" enable-background="new 0 0 34.9 34.9" xml:space="preserve">
<g opacity="0.5">
	<path fill-rule="evenodd" clip-rule="evenodd" fill="#292A35" d="M22.9,18.5H12c-0.6,0-1.1,0.5-1.1,1.1c0,0.6,0.5,1.1,1.1,1.1h10.9
		c0.6,0,1.1-0.5,1.1-1.1C24,19,23.5,18.5,22.9,18.5L22.9,18.5z M25.1,12H9.8c-0.6,0-1.1,0.5-1.1,1.1c0,0.6,0.5,1.1,1.1,1.1h15.3
		c0.6,0,1.1-0.5,1.1-1.1C26.1,12.5,25.7,12,25.1,12L25.1,12z M17.4,0C7.8,0,0,6.8,0,15.3c0,4.8,2.6,9.1,6.5,11.9v7.7l7.6-4.6
		c1.1,0.2,2.1,0.3,3.3,0.3c9.6,0,17.4-6.8,17.4-15.3C34.9,6.8,27.1,0,17.4,0L17.4,0z M17.4,28.3c-1.3,0-2.5-0.1-3.7-0.4L8.6,31
		L8.7,26c-3.9-2.4-6.5-6.3-6.5-10.7C2.2,8,9,2.2,17.4,2.2c8.4,0,15.3,5.9,15.3,13.1C32.7,22.5,25.9,28.3,17.4,28.3L17.4,28.3z
		 M17.4,28.3"/>
</g>
</svg>
