<?xml version="1.0" encoding="utf-8"?>
<!-- Generator: Adobe Illustrator 18.1.1, SVG Export Plug-In . SVG Version: 6.00 Build 0)  -->
<svg version="1.1" xmlns="http://www.w3.org/2000/svg" xmlns:xlink="http://www.w3.org/1999/xlink" x="0px" y="0px"
	 viewBox="0 0 31 31" enable-background="new 0 0 31 31" xml:space="preserve">
<g id="Layer_1">
	<rect x="0" fill="#373844" width="31" height="31"/>
	<g display="none" opacity="0.5">
		<path display="inline" fill="#FFFFFF" d="M15.4,19.3l-5.8-5.8c-0.3-0.3-0.3-0.8,0-1c0.3-0.3,0.8-0.3,1,0l4.8,4.8l5-4.8
			c0.3-0.3,0.8-0.3,1,0c0.3,0.3,0.3,0.8,0,1L15.4,19.3z"/>
	</g>
	<g opacity="0.5">
		<path fill="#FFFFFF" d="M20.8,10.1h-1.7V9.3c0-0.2-0.2-0.4-0.4-0.4c-0.2,0-0.4,0.2-0.4,0.4v0.8h-2.4V9.3c0-0.2-0.2-0.4-0.4-0.4
			c-0.2,0-0.4,0.2-0.4,0.4v0.8h-2.4V9.3c0-0.2-0.2-0.4-0.4-0.4c-0.2,0-0.4,0.2-0.4,0.4v0.8h-1.7c-0.6,0-1.1,0.5-1.1,1.1v9.3
			c0,0.6,0.5,1.1,1.1,1.1h10.5c0.6,0,1.1-0.5,1.1-1.1v-9.3C21.8,10.6,21.3,10.1,20.8,10.1L20.8,10.1z M21,20.5
			c0,0.1-0.1,0.3-0.3,0.3H10.3c-0.1,0-0.3-0.1-0.3-0.3v-9.3c0-0.1,0.1-0.3,0.3-0.3H12v0.8c0,0.2,0.2,0.4,0.4,0.4
			c0.2,0,0.4-0.2,0.4-0.4v-0.8h2.4v0.8c0,0.2,0.2,0.4,0.4,0.4c0.2,0,0.4-0.2,0.4-0.4v-0.8h2.4v0.8c0,0.2,0.2,0.4,0.4,0.4
			c0.2,0,0.4-0.2,0.4-0.4v-0.8h1.7c0.1,0,0.3,0.1,0.3,0.3V20.5z M21,20.5"/>
		<rect x="12" y="13.7" fill="#FFFFFF" width="1.6" height="1.2"/>
		<rect x="12" y="15.6" fill="#FFFFFF" width="1.6" height="1.2"/>
		<rect x="12" y="17.6" fill="#FFFFFF" width="1.6" height="1.2"/>
		<rect x="14.7" y="17.6" fill="#FFFFFF" width="1.6" height="1.2"/>
		<rect x="14.7" y="15.6" fill="#FFFFFF" width="1.6" height="1.2"/>
		<rect x="14.7" y="13.7" fill="#FFFFFF" width="1.6" height="1.2"/>
		<rect x="17.5" y="17.6" fill="#FFFFFF" width="1.6" height="1.2"/>
		<rect x="17.5" y="15.6" fill="#FFFFFF" width="1.6" height="1.2"/>
		<rect x="17.5" y="13.7" fill="#FFFFFF" width="1.6" height="1.2"/>
	</g>
	<g display="none" opacity="0.5">
		<g display="inline">
			<path fill-rule="evenodd" clip-rule="evenodd" fill="#FFFFFF" d="M15.5,8.8c-3.5,0-6.4,2.9-6.4,6.4c0,3.5,2.9,6.4,6.4,6.4
				c3.5,0,6.4-2.9,6.4-6.4C21.9,11.7,19,8.8,15.5,8.8L15.5,8.8z M15.8,20.6v-1c0-0.1-0.1-0.3-0.3-0.3c-0.2,0-0.3,0.1-0.3,0.3v1
				c-2.7-0.1-4.9-2.3-5.1-5.1h0.9c0.1,0,0.3-0.1,0.3-0.3c0-0.2-0.1-0.3-0.3-0.3h-0.9c0.1-2.7,2.3-4.9,5.1-5.1c0,0,0,0,0,0v1
				c0,0.2,0.1,0.3,0.3,0.3c0.1,0,0.3-0.1,0.3-0.3v-1c0,0,0,0,0,0c2.7,0.1,4.9,2.3,5.1,5.1h-0.9c-0.2,0-0.3,0.1-0.3,0.3
				c0,0.1,0.1,0.3,0.3,0.3h0.9C20.7,18.2,18.5,20.4,15.8,20.6L15.8,20.6z M15.8,20.6"/>
		</g>
		<path display="inline" fill-rule="evenodd" clip-rule="evenodd" fill="#FFFFFF" d="M19,15h-3c-0.1-0.2-0.3-0.3-0.4-0.3
			c-0.1,0-0.1,0-0.2,0l-2.1-2.1c-0.1-0.1-0.3-0.1-0.4,0c-0.1,0.1-0.1,0.3,0,0.4l2.1,2.1c0,0,0,0,0,0.1c0,0.3,0.2,0.5,0.5,0.5
			c0.2,0,0.3-0.1,0.4-0.3h3c0.2,0,0.3-0.1,0.3-0.3C19.3,15.1,19.1,15,19,15L19,15z M19,15"/>
	</g>
	<g display="none" opacity="0.5">
		<path display="inline" fill="#FFFFFF" d="M20.4,11.5c-0.1-0.2-0.2-0.4-0.2-0.6c-1-2.3-3.1-3.1-4.8-3.1c-2.3,0-4.8,1.5-5.1,4.7V13
			c0,0,0,0.3,0,0.4c0.2,1.5,1.4,3.1,2.2,4.6c0.9,1.6,1.9,3.2,2.9,4.7c0.6-1,1.2-2.1,1.8-3.1c0.2-0.3,0.3-0.6,0.5-0.9
			c0.1-0.2,0.3-0.4,0.4-0.5c0.9-1.7,2.5-3.5,2.5-5.2v-0.7C20.7,12.2,20.4,11.5,20.4,11.5L20.4,11.5z M15.5,14.7
			c-0.7,0-1.4-0.3-1.8-1.3c-0.1-0.1,0-0.4,0-0.5v-0.4c0-1.2,1-1.7,1.9-1.7c1.1,0,1.9,0.9,1.9,1.9C17.4,13.8,16.5,14.7,15.5,14.7
			L15.5,14.7z M15.5,14.7"/>
	</g>
</g>
<g id="Layer_2" display="none">
</g>
</svg>
