<?xml version="1.0" encoding="utf-8"?>
<!-- Generator: Adobe Illustrator 18.1.1, SVG Export Plug-In . SVG Version: 6.00 Build 0)  -->
<svg version="1.1" id="Layer_1" xmlns="http://www.w3.org/2000/svg" xmlns:xlink="http://www.w3.org/1999/xlink" x="0px" y="0px"
	 viewBox="-1 -533 613 1235" enable-background="new -1 -533 613 1235" xml:space="preserve">
<g display="none">
	<path display="inline" fill="#393845" d="M359.8,90c-169.5,0-306,136.5-306,306c0,168.2,136.5,306,306,306
		c168.2,0,306-136.5,306-306C664.4,226.5,527.9,90,359.8,90z M485.2,438.7c-6.9,8.3-13.8,15.2-22.1,20.7c-2.8,2.8-5.5,4.1-8.3,6.9
		c-16.5,12.4-42.7,19.3-63.4,15.2c-13.8-2.8-28.9-9.6-40-19.3l0,0c-1.4,8.3-4.1,17.9-5.5,26.2c-2.8,11-4.1,23.4-6.9,34.5
		c-6.9,20.7-20.7,37.2-33.1,55.1c-1.4,2.8-6.9,1.4-5.5-1.4c-4.1-5.5-6.9-17.9-6.9-19.3c-2.8-16.5,0-35.8,2.8-52.4
		c6.9-37.2,16.5-77.2,30.3-113c-13.8-8.3-4.1-40,1.4-49.6c8.3-16.5,37.2-38.6,51-13.8c12.4,19.3,0,48.2-5.5,68.9
		c-2.8,12.4-6.9,27.6,2.8,38.6c8.3,11,22.1,12.4,33.1,8.3c35.8-11,48.2-48.2,49.6-82.7c1.4-27.6,0-64.8-23.4-84.1
		c-33.1-28.9-85.5-5.5-114.4,19.3c-31.7,27.6-55.1,73.1-22.1,110.3c2.8,0,4.1,1.4,4.1,4.1c0,6.9-2.8,13.8-5.5,19.3
		c-4.1,2.8-6.9,4.1-9.6,4.1c-12.4-2.8-23.4-8.3-30.3-19.3c-37.2-49.6-5.5-121.3,37.2-154.4c51-38.6,128.2-41.4,173.7,8.3
		C508.6,313.3,521,387.7,485.2,438.7z"/>
</g>
<path display="none" fill="#393845" d="M359.8,90c-169.5,0-306,136.5-306,306c0,168.2,136.5,306,306,306c168.2,0,306-136.5,306-306
	C664.4,226.5,527.9,90,359.8,90z M465.9,361.5c0,1.4,0,4.1,0,5.5c0,60.6-46.9,130.9-130.9,130.9c-26.2,0-49.6-8.3-70.3-20.7
	c4.1,0,6.9,0,11,0c22.1,0,41.4-6.9,56.5-19.3c-20.7,0-37.2-13.8-42.7-31.7c2.8,0,5.5,1.4,8.3,1.4c4.1,0,8.3,0,12.4-1.4
	c-20.7-4.1-37.2-23.4-37.2-45.5l0,0c6.9,4.1,13.8,5.5,20.7,5.5c-12.4-8.3-20.7-22.1-20.7-38.6c0-8.3,2.8-16.5,6.9-23.4
	c22.1,27.6,56.5,45.5,95.1,48.2c-1.4-2.8-1.4-6.9-1.4-11c0-24.8,20.7-45.5,45.5-45.5c13.8,0,24.8,5.5,33.1,15.2
	c11-1.4,20.7-5.5,28.9-11c-4.1,11-11,19.3-20.7,24.8c9.6-1.4,17.9-4.1,26.2-6.9C482.4,347.8,474.2,354.6,465.9,361.5z"/>
<path display="none" fill="#393845" d="M359.8,90c-169.5,0-306,136.5-306,306c0,168.2,136.5,306,306,306c168.2,0,306-136.5,306-306
	C664.4,226.5,527.9,90,359.8,90z M414.9,407h-37.2c0,59.3,0,130.9,0,130.9h-53.8c0,0,0-71.7,0-130.9h-26.2v-46.9h26.2v-30.3
	c0-22.1,9.6-55.1,55.1-55.1h40v45.5c0,0-24.8,0-28.9,0s-11,2.8-11,12.4v27.6h41.4L414.9,407z"/>
<g display="none">
	<path display="inline" fill="#393845" d="M359.8,357.4c-22.1,0-38.6,16.5-38.6,38.6c0,20.7,17.9,38.6,38.6,38.6
		c22.1,0,38.6-16.5,38.6-38.6S380.4,357.4,359.8,357.4z"/>
	<path display="inline" fill="#393845" d="M359.8,90c-169.5,0-306,136.5-306,306c0,168.2,136.5,306,306,306
		c168.2,0,306-136.5,306-306C664.4,226.5,527.9,90,359.8,90z M481.1,408.4c0,1.4-33.1,15.2-33.1,15.2l-5.5,15.2
		c0,0,15.2,31.7,13.8,33.1L437,489.8c-1.4,0-34.5-13.8-34.5-13.8l-15.2,5.5c0,0-12.4,33.1-13.8,33.1h-26.2
		c-1.4,0-15.2-33.1-15.2-33.1l-15.2-5.5c0,0-31.7,15.2-33.1,13.8l-19.3-19.3c-1.4-1.4,12.4-33.1,12.4-33.1l-5.5-15.2
		c0,0-33.1-12.4-33.1-13.8v-26.2c0-1.4,33.1-15.2,33.1-15.2l5.5-15.2c0,0-15.2-31.7-13.8-33.1l19.3-17.9
		c1.4-1.4,34.5,12.4,34.5,12.4l15.2-5.5c0,0,12.4-33.1,13.8-33.1h26.2c1.4,0,15.2,33.1,15.2,33.1l15.2,5.5c0,0,31.7-15.2,33.1-13.8
		l19.3,17.9c1.4,1.4-13.8,33.1-13.8,33.1l5.5,15.2c0,0,33.1,12.4,33.1,13.8v28.9h1.4V408.4z"/>
</g>
<g>
	<path fill="#D10020" d="M306,90C136.5,90,0,226.5,0,396c0,168.2,136.5,306,306,306s306-136.5,306-306C610.6,226.5,474.2,90,306,90z
		 M188.8,510.4c-4.1,1.4-8.3-2.8-6.9-6.9l12.4-56.5l49.6,49.6L188.8,510.4z M259.1,484.2l-49.6-49.6l126.8-126.8l49.6,49.6
		L259.1,484.2z M424.5,318.8l-24.8,24.8L350.1,294l22.1-22.1c8.3-8.3,22.1-8.3,31.7,0L426,294C430.1,300.9,430.1,311.9,424.5,318.8z
		"/>
	<path fill="#539ABA" d="M305-533C135.5-533-1-396.5-1-227C-1-58.8,135.5,79,305,79S611-57.5,611-227C609.6-396.5,473.2-533,305-533
		z M187.8-112.6c-4.1,1.4-8.3-2.8-6.9-6.9l12.4-56.5l49.6,49.6L187.8-112.6z M258.1-138.8l-49.6-49.6l126.8-126.8l49.6,49.6
		L258.1-138.8z M423.5-304.2l-24.8,24.8L349.1-329l22.1-22.1c8.3-8.3,22.1-8.3,31.7,0l22.1,22.1
		C429.1-322.1,429.1-311.1,423.5-304.2z"/>
</g>
</svg>
