<?xml version="1.0" encoding="utf-8"?>
<!-- Generator: Adobe Illustrator 18.1.1, SVG Export Plug-In . SVG Version: 6.00 Build 0)  -->
<svg version="1.1" id="Layer_1" xmlns="http://www.w3.org/2000/svg" xmlns:xlink="http://www.w3.org/1999/xlink" x="0px" y="0px"
	 viewBox="0 0 222 222" enable-background="new 0 0 222 222" xml:space="preserve">
<g display="none">
	<path display="inline" fill="#393845" d="M130.5,0C69,0,19.5,49.5,19.5,111c0,61,49.5,111,111,111c61,0,111-49.5,111-111
		C241,49.5,191.5,0,130.5,0z M176,126.5c-2.5,3-5,5.5-8,7.5c-1,1-2,1.5-3,2.5c-6,4.5-15.5,7-23,5.5c-5-1-10.5-3.5-14.5-7l0,0
		c-0.5,3-1.5,6.5-2,9.5c-1,4-1.5,8.5-2.5,12.5c-2.5,7.5-7.5,13.5-12,20c-0.5,1-2.5,0.5-2-0.5c-1.5-2-2.5-6.5-2.5-7c-1-6,0-13,1-19
		c2.5-13.5,6-28,11-41c-5-3-1.5-14.5,0.5-18c3-6,13.5-14,18.5-5c4.5,7,0,17.5-2,25c-1,4.5-2.5,10,1,14c3,4,8,4.5,12,3
		c13-4,17.5-17.5,18-30c0.5-10,0-23.5-8.5-30.5c-12-10.5-31-2-41.5,7c-11.5,10-20,26.5-8,40c1,0,1.5,0.5,1.5,1.5c0,2.5-1,5-2,7
		c-1.5,1-2.5,1.5-3.5,1.5c-4.5-1-8.5-3-11-7c-13.5-18-2-44,13.5-56c18.5-14,46.5-15,63,3C184.5,81,189,108,176,126.5z"/>
</g>
<path display="none" fill="#393845" d="M130.5,0C69,0,19.5,49.5,19.5,111c0,61,49.5,111,111,111c61,0,111-49.5,111-111
	C241,49.5,191.5,0,130.5,0z M169,98.5c0,0.5,0,1.5,0,2c0,22-17,47.5-47.5,47.5c-9.5,0-18-3-25.5-7.5c1.5,0,2.5,0,4,0
	c8,0,15-2.5,20.5-7c-7.5,0-13.5-5-15.5-11.5c1,0,2,0.5,3,0.5c1.5,0,3,0,4.5-0.5c-7.5-1.5-13.5-8.5-13.5-16.5l0,0c2.5,1.5,5,2,7.5,2
	c-4.5-3-7.5-8-7.5-14c0-3,1-6,2.5-8.5c8,10,20.5,16.5,34.5,17.5c-0.5-1-0.5-2.5-0.5-4c0-9,7.5-16.5,16.5-16.5c5,0,9,2,12,5.5
	c4-0.5,7.5-2,10.5-4c-1.5,4-4,7-7.5,9c3.5-0.5,6.5-1.5,9.5-2.5C175,93.5,172,96,169,98.5z"/>
<path display="none" fill="#393845" d="M130.5,0C69,0,19.5,49.5,19.5,111c0,61,49.5,111,111,111c61,0,111-49.5,111-111
	C241,49.5,191.5,0,130.5,0z M150.5,115H137c0,21.5,0,47.5,0,47.5h-19.5c0,0,0-26,0-47.5H108V98h9.5V87c0-8,3.5-20,20-20H152v16.5
	c0,0-9,0-10.5,0s-4,1-4,4.5v10h15L150.5,115z"/>
<path fill="#539ABA" d="M111,0C49.5,0,0,49.5,0,111c0,61,49.5,111,111,111s111-49.5,111-111C221.5,49.5,172,0,111,0z M68.5,152.5
	c-1.5,0.5-3-1-2.5-2.5l4.5-20.5l18,18L68.5,152.5z M94,143l-18-18l46-46l18,18L94,143z M154,83l-9,9l-18-18l8-8c3-3,8-3,11.5,0l8,8
	C156,76.5,156,80.5,154,83z"/>
<g display="none">
	<path display="inline" fill="#393845" d="M130.5,97c-8,0-14,6-14,14c0,7.5,6.5,14,14,14c8,0,14-6,14-14S138,97,130.5,97z"/>
	<path display="inline" fill="#393845" d="M130.5,0C69,0,19.5,49.5,19.5,111c0,61,49.5,111,111,111c61,0,111-49.5,111-111
		C241,49.5,191.5,0,130.5,0z M174.5,115.5c0,0.5-12,5.5-12,5.5l-2,5.5c0,0,5.5,11.5,5,12l-7,6.5c-0.5,0-12.5-5-12.5-5l-5.5,2
		c0,0-4.5,12-5,12H126c-0.5,0-5.5-12-5.5-12l-5.5-2c0,0-11.5,5.5-12,5l-7-7c-0.5-0.5,4.5-12,4.5-12l-2-5.5c0,0-12-4.5-12-5V106
		c0-0.5,12-5.5,12-5.5l2-5.5c0,0-5.5-11.5-5-12l7-6.5C103,76,115,81,115,81l5.5-2c0,0,4.5-12,5-12h9.5c0.5,0,5.5,12,5.5,12l5.5,2
		c0,0,11.5-5.5,12-5l7,6.5c0.5,0.5-5,12-5,12l2,5.5c0,0,12,4.5,12,5v10.5H174.5z"/>
</g>
</svg>
