<?xml version="1.0" encoding="utf-8"?>
<!-- Generator: Adobe Illustrator 18.1.1, SVG Export Plug-In . SVG Version: 6.00 Build 0)  -->
<svg version="1.1" id="Layer_1" xmlns="http://www.w3.org/2000/svg" xmlns:xlink="http://www.w3.org/1999/xlink" x="0px" y="0px"
	 viewBox="0 0 40 40" enable-background="new 0 0 40 40" xml:space="preserve">
<g>
	<path fill="#FFFFFF" d="M20,0C9,0,0,9,0,20c0,11,9,20,20,20c11,0,20-9,20-20C40,9,31,0,20,0L20,0z M4,20c0-8.8,7.2-16,16-16
		c3.6,0,7,1.2,9.8,3.4L7.4,29.8C5.2,27,4,23.6,4,20L4,20z M20,36c-3.6,0-7-1.2-9.8-3.4l22.4-22.4C34.8,13,36,16.4,36,20
		C36,28.8,28.8,36,20,36L20,36z M20,36"/>
</g>
</svg>
