<?xml version="1.0" encoding="utf-8"?>
<!-- Generator: Adobe Illustrator 18.1.1, SVG Export Plug-In . SVG Version: 6.00 Build 0)  -->
<svg version="1.1" id="Layer_1" xmlns="http://www.w3.org/2000/svg" xmlns:xlink="http://www.w3.org/1999/xlink" x="0px" y="0px"
	 viewBox="0 0 30.7 30.7" enable-background="new 0 0 30.7 30.7" xml:space="preserve">
<path fill="#FFFFFF" d="M15.3,0C6.8,0,0,6.8,0,15.3c0,8.4,6.8,15.3,15.3,15.3c8.4,0,15.3-6.8,15.3-15.3C30.6,6.8,23.7,0,15.3,0z
	 M18.1,15.9h-1.8c0,2.9,0,6.6,0,6.6h-2.7c0,0,0-3.6,0-6.6h-1.3v-2.3h1.3v-1.5c0-1.1,0.5-2.8,2.7-2.8l2,0v2.2c0,0-1.2,0-1.5,0
	c-0.2,0-0.6,0.1-0.6,0.6v1.4h2.1L18.1,15.9z"/>
</svg>
