<?xml version="1.0" encoding="utf-8"?>
<!-- Generator: Adobe Illustrator 18.1.1, SVG Export Plug-In . SVG Version: 6.00 Build 0)  -->
<svg version="1.1" id="Layer_1" xmlns="http://www.w3.org/2000/svg" xmlns:xlink="http://www.w3.org/1999/xlink" x="0px" y="0px"
	 viewBox="0 0 45 45" enable-background="new 0 0 45 45" xml:space="preserve">
<g display="none">
	<path display="inline" fill="#393845" d="M22.2,0C9.9,0,0,9.9,0,22.2c0,12.2,9.9,22.2,22.2,22.2c12.2,0,22.2-9.9,22.2-22.2
		C44.3,9.9,34.4,0,22.2,0z M31.3,25.3c-0.5,0.6-1,1.1-1.6,1.5c-0.2,0.2-0.4,0.3-0.6,0.5c-1.2,0.9-3.1,1.4-4.6,1.1
		c-1-0.2-2.1-0.7-2.9-1.4c0,0,0,0,0,0c-0.1,0.6-0.3,1.3-0.4,1.9c-0.2,0.8-0.3,1.7-0.5,2.5c-0.5,1.5-1.5,2.7-2.4,4
		c-0.1,0.2-0.5,0.1-0.4-0.1c-0.3-0.4-0.5-1.3-0.5-1.4c-0.2-1.2,0-2.6,0.2-3.8c0.5-2.7,1.2-5.6,2.2-8.2c-1-0.6-0.3-2.9,0.1-3.6
		c0.6-1.2,2.7-2.8,3.7-1c0.9,1.4,0,3.5-0.4,5c-0.2,0.9-0.5,2,0.2,2.8c0.6,0.8,1.6,0.9,2.4,0.6c2.6-0.8,3.5-3.5,3.6-6
		c0.1-2,0-4.7-1.7-6.1c-2.4-2.1-6.2-0.4-8.3,1.4c-2.3,2-4,5.3-1.6,8c0.2,0,0.3,0.1,0.3,0.3c0,0.5-0.2,1-0.4,1.4
		C17.4,24.9,17.2,25,17,25c-0.9-0.2-1.7-0.6-2.2-1.4c-2.7-3.6-0.4-8.8,2.7-11.2c3.7-2.8,9.3-3,12.6,0.6C33,16.2,33.9,21.6,31.3,25.3
		z"/>
</g>
<path display="none" fill="#393845" d="M22.2,0C9.9,0,0,9.9,0,22.2c0,12.2,9.9,22.2,22.2,22.2c12.2,0,22.2-9.9,22.2-22.2
	C44.3,9.9,34.4,0,22.2,0z M29.9,19.7c0,0.1,0,0.3,0,0.4c0,4.4-3.4,9.5-9.5,9.5c-1.9,0-3.6-0.6-5.1-1.5c0.3,0,0.5,0,0.8,0
	c1.6,0,3-0.5,4.1-1.4c-1.5,0-2.7-1-3.1-2.3c0.2,0,0.4,0.1,0.6,0.1c0.3,0,0.6,0,0.9-0.1c-1.5-0.3-2.7-1.7-2.7-3.3c0,0,0,0,0,0
	c0.5,0.3,1,0.4,1.5,0.4c-0.9-0.6-1.5-1.6-1.5-2.8c0-0.6,0.2-1.2,0.5-1.7c1.6,2,4.1,3.3,6.9,3.5c-0.1-0.2-0.1-0.5-0.1-0.8
	c0-1.8,1.5-3.3,3.3-3.3c1,0,1.8,0.4,2.4,1.1c0.8-0.1,1.5-0.4,2.1-0.8c-0.3,0.8-0.8,1.4-1.5,1.8c0.7-0.1,1.3-0.3,1.9-0.5
	C31.1,18.7,30.5,19.2,29.9,19.7z"/>
<path fill="#393845" d="M22.2,0C9.9,0,0,9.9,0,22.2c0,12.2,9.9,22.2,22.2,22.2c12.2,0,22.2-9.9,22.2-22.2C44.3,9.9,34.4,0,22.2,0z
	 M26.2,23h-2.7c0,4.3,0,9.5,0,9.5h-3.9c0,0,0-5.2,0-9.5h-1.9v-3.4h1.9v-2.2c0-1.6,0.7-4,4-4l2.9,0v3.3c0,0-1.8,0-2.1,0
	c-0.3,0-0.8,0.2-0.8,0.9v2h3L26.2,23z"/>
<path display="none" fill="#393845" d="M22.2,0C9.9,0,0,9.9,0,22.2c0,12.2,9.9,22.2,22.2,22.2s22.2-9.9,22.2-22.2
	C44.3,9.9,34.4,0,22.2,0z M13.7,30.5c-0.3,0.1-0.6-0.2-0.5-0.5l0.9-4.1l3.6,3.6L13.7,30.5z M18.8,28.6l-3.6-3.6l9.2-9.2l3.6,3.6
	L18.8,28.6z M30.8,16.6l-1.8,1.8l-3.6-3.6l1.6-1.6c0.6-0.6,1.6-0.6,2.3,0l1.6,1.6C31.2,15.3,31.2,16.1,30.8,16.6z"/>
<g display="none">
	<path display="inline" fill="#393845" d="M22.2,19.4c-1.6,0-2.8,1.2-2.8,2.8c0,1.5,1.3,2.8,2.8,2.8c1.6,0,2.8-1.2,2.8-2.8
		C25,20.6,23.7,19.4,22.2,19.4z"/>
	<path display="inline" fill="#393845" d="M22.2,0C9.9,0,0,9.9,0,22.2c0,12.2,9.9,22.2,22.2,22.2c12.2,0,22.2-9.9,22.2-22.2
		C44.3,9.9,34.4,0,22.2,0z M31,23.1c0,0.1-2.4,1.1-2.4,1.1l-0.4,1.1c0,0,1.1,2.3,1,2.4l-1.4,1.3C27.7,29,25.3,28,25.3,28l-1.1,0.4
		c0,0-0.9,2.4-1,2.4h-1.9c-0.1,0-1.1-2.4-1.1-2.4L19.1,28c0,0-2.3,1.1-2.4,1l-1.4-1.4c-0.1-0.1,0.9-2.4,0.9-2.4l-0.4-1.1
		c0,0-2.4-0.9-2.4-1v-1.9c0-0.1,2.4-1.1,2.4-1.1l0.4-1.1c0,0-1.1-2.3-1-2.4l1.4-1.3c0.1-0.1,2.5,0.9,2.5,0.9l1.1-0.4
		c0,0,0.9-2.4,1-2.4h1.9c0.1,0,1.1,2.4,1.1,2.4l1.1,0.4c0,0,2.3-1.1,2.4-1l1.4,1.3c0.1,0.1-1,2.4-1,2.4l0.4,1.1c0,0,2.4,0.9,2.4,1
		V23.1z"/>
</g>
</svg>
