<?xml version="1.0" encoding="utf-8"?>
<!-- Generator: Adobe Illustrator 18.1.1, SVG Export Plug-In . SVG Version: 6.00 Build 0)  -->
<svg version="1.1" id="Layer_1" xmlns="http://www.w3.org/2000/svg" xmlns:xlink="http://www.w3.org/1999/xlink" x="0px" y="0px"
	 viewBox="0 0 55 55" enable-background="new 0 0 55 55" xml:space="preserve">
<g>
	<g>
		<path fill="#FFFFFF" d="M54,5.3c-0.4-1-1.4-1.7-2.5-1.7H3.6C2.5,3.6,1.5,4.3,1,5.3c-0.4,1-0.2,2.2,0.6,3l18.9,19V51
			c0,0.6,0.5,1.2,1.2,1.2c0.6,0,1.2-0.5,1.2-1.2V26.8c0-0.3-0.1-0.6-0.3-0.8L3.3,6.6C3.1,6.5,3.1,6.3,3.2,6.2c0-0.1,0.1-0.3,0.4-0.3
			h47.9c0.2,0,0.3,0.2,0.4,0.3c0,0.1,0.1,0.3-0.1,0.5L32.5,25.9c-0.2,0.2-0.3,0.5-0.3,0.8v17.3c0,0.6,0.5,1.2,1.2,1.2
			c0.6,0,1.2-0.5,1.2-1.2V27.2l18.9-19C54.2,7.5,54.4,6.3,54,5.3L54,5.3z M54,5.3"/>
	</g>
</g>
</svg>
