<?xml version="1.0" encoding="utf-8"?>
<!-- Generator: Adobe Illustrator 18.1.1, SVG Export Plug-In . SVG Version: 6.00 Build 0)  -->
<svg version="1.1" id="Layer_1" xmlns="http://www.w3.org/2000/svg" xmlns:xlink="http://www.w3.org/1999/xlink" x="0px" y="0px"
	 viewBox="0 0 43 43" enable-background="new 0 0 43 43" xml:space="preserve">
<path fill="#FFFFFF" d="M39.4,20.8c-3.7-6.5-10.7-10.5-18.1-10.5c-7.4,0-14.4,4-18.1,10.5l-0.5,0.9l0.5,0.9C6.9,29,13.9,33,21.3,33
	c7.4,0,14.4-4,18.1-10.5l0.5-0.9L39.4,20.8z M6.7,21.7c1.6-2.4,3.7-4.3,6.2-5.7c-0.9,1.5-1.4,3.3-1.4,5.1c0,2.7,1.1,5.1,2.8,6.9
	C11.2,26.7,8.5,24.5,6.7,21.7z M21.5,14.5c1.4,0,2.7,0.4,3.8,1.2L16,24.9c-0.7-1.1-1.2-2.4-1.2-3.8C14.8,17.5,17.8,14.5,21.5,14.5z
	 M21.5,27.8c-1,0-2-0.2-2.9-0.7l8.8-8.8c0.4,0.9,0.7,1.8,0.7,2.9C28.1,24.8,25.1,27.8,21.5,27.8z M29.1,27.7
	c1.5-1.8,2.5-4.1,2.5-6.6c0-1.7-0.4-3.4-1.2-4.8c2.2,1.3,4.1,3.2,5.6,5.4C34.2,24.3,31.8,26.4,29.1,27.7z"/>
</svg>
