<?xml version="1.0" encoding="utf-8"?>
<!-- Generator: Adobe Illustrator 18.1.1, SVG Export Plug-In . SVG Version: 6.00 Build 0)  -->
<svg version="1.1" id="Layer_1" xmlns="http://www.w3.org/2000/svg" xmlns:xlink="http://www.w3.org/1999/xlink" x="0px" y="0px"
	 viewBox="0 0 22.5 22.5" enable-background="new 0 0 22.5 22.5" xml:space="preserve">
<g>
	<g>
		<g>
			<path fill="#3A3946" d="M11.2,2c5,0,9.2,4.1,9.2,9.2c0,5-4.1,9.2-9.2,9.2S2,16.2,2,11.2C2,6.1,6.1,2,11.2,2 M11.2,0
				C5,0,0,5,0,11.2c0,6.2,5,11.2,11.2,11.2c6.2,0,11.2-5,11.2-11.2C22.3,5,17.3,0,11.2,0L11.2,0z"/>
		</g>
	</g>
	<g>
		<path fill="#393845" d="M9.6,12.8c0-0.4,0.1-0.8,0.2-1.2c0.1-0.3,0.4-0.6,0.9-0.9c0.1-0.1,0.3-0.2,0.5-0.3
			c0.2-0.1,0.4-0.2,0.6-0.4c0.2-0.1,0.3-0.3,0.5-0.5c0.1-0.2,0.2-0.4,0.2-0.6c0-0.2,0-0.3-0.1-0.5S12.1,8.3,12,8.2
			c-0.1-0.1-0.2-0.2-0.4-0.2c-0.2,0-0.3-0.1-0.5-0.1c-0.2,0-0.4,0-0.5,0.1c-0.2,0.1-0.3,0.1-0.4,0.2C10,8.3,9.9,8.4,9.8,8.6
			C9.7,8.7,9.6,8.8,9.6,8.9L8.4,8.1c0.1-0.3,0.3-0.5,0.5-0.7C9.1,7.2,9.3,7,9.5,6.9c0.2-0.1,0.5-0.3,0.8-0.3
			c0.3-0.1,0.6-0.1,0.9-0.1c0.3,0,0.7,0,1,0.1C12.5,6.7,12.8,6.8,13,7s0.5,0.5,0.6,0.8c0.2,0.3,0.2,0.7,0.2,1.2c0,0.3,0,0.5-0.1,0.7
			c-0.1,0.2-0.2,0.4-0.3,0.6c-0.1,0.2-0.3,0.3-0.4,0.5c-0.2,0.1-0.4,0.3-0.6,0.4c-0.2,0.1-0.4,0.2-0.5,0.3c-0.2,0.1-0.3,0.2-0.5,0.3
			c-0.1,0.1-0.3,0.3-0.4,0.4c-0.1,0.2-0.1,0.3-0.1,0.6H9.6z M9.6,15.9v-1.8h1.5v1.8H9.6z"/>
	</g>
</g>
</svg>
