<?xml version="1.0" encoding="utf-8"?>
<!-- Generator: Adobe Illustrator 18.1.1, SVG Export Plug-In . SVG Version: 6.00 Build 0)  -->
<svg version="1.1" id="Layer_1" xmlns="http://www.w3.org/2000/svg" xmlns:xlink="http://www.w3.org/1999/xlink" x="0px" y="0px"
	 viewBox="0 0 30 30" enable-background="new 0 0 30 30" xml:space="preserve">
<g>
	<g display="none">
		<path display="inline" fill="#FFFFFF" d="M30,5.7c-1.1,0.5-2.3,0.8-3.5,1c1.3-0.8,2.2-2,2.7-3.4C28,4,26.7,4.5,25.3,4.8
			c-1.1-1.2-2.7-1.9-4.5-1.9c-3.4,0-6.2,2.8-6.2,6.2c0,0.5,0.1,1,0.2,1.4C9.7,10.1,5.1,7.7,2.1,3.9C1.6,4.8,1.3,5.9,1.3,7
			c0,2.1,1.1,4,2.7,5.1c-1,0-1.9-0.3-2.8-0.8v0.1c0,3,2.1,5.5,4.9,6c-0.5,0.1-1.1,0.2-1.6,0.2c-0.4,0-0.8,0-1.2-0.1
			c0.8,2.4,3.1,4.2,5.7,4.3c-2.1,1.6-4.8,2.6-7.6,2.6c-0.5,0-1,0-1.5-0.1c2.7,1.7,6,2.8,9.4,2.8c11.3,0,17.5-9.4,17.5-17.5l0-0.8
			C28.1,8,29.2,6.9,30,5.7L30,5.7z M30,5.7"/>
	</g>
	<g>
		<path fill-rule="evenodd" clip-rule="evenodd" fill="#FFFFFF" d="M3.9,0h22.3C28.3,0,30,1.6,30,3.9v22.3c0,2.3-1.7,3.9-3.9,3.9
			H3.9C1.7,30,0,28.4,0,26.1V3.9C0,1.6,1.7,0,3.9,0L3.9,0z M21.9,3.3c-0.7,0-1.4,0.6-1.4,1.4v3.2c0,0.7,0.6,1.4,1.4,1.4h3.4
			c0.7,0,1.3-0.6,1.3-1.4V4.7c0-0.7-0.6-1.4-1.3-1.4H21.9z M26.6,12.7H24c0.2,0.8,0.4,1.7,0.4,2.6c0,5-4.2,9-9.3,9
			c-5.1,0-9.3-4-9.3-9c0-0.9,0.1-1.8,0.4-2.6H3.3v12.7c0,0.7,0.5,1.2,1.2,1.2h20.9c0.7,0,1.2-0.5,1.2-1.2V12.7z M15,9.1
			c-3.3,0-6,2.6-6,5.8s2.7,5.8,6,5.8c3.3,0,6-2.6,6-5.8S18.4,9.1,15,9.1L15,9.1z M15,9.1"/>
	</g>
	<g display="none">
		<path display="inline" fill="#FFFFFF" d="M30,5c0-2.6-2.4-5-5-5H5C2.4,0,0,2.4,0,5v20c0,2.6,2.4,5,5,5h10V18.7h-3.7v-5H15v-1.9
			c0-3.4,2.5-6.4,5.6-6.4h4v5h-4c-0.4,0-1,0.5-1,1.3v2h5v5h-5V30H25c2.6,0,5-2.4,5-5V5z M30,5"/>
	</g>
</g>
</svg>
