<?xml version="1.0" encoding="utf-8"?>
<!-- Generator: Adobe Illustrator 18.1.1, SVG Export Plug-In . SVG Version: 6.00 Build 0)  -->
<svg version="1.1" id="Layer_1" xmlns="http://www.w3.org/2000/svg" xmlns:xlink="http://www.w3.org/1999/xlink" x="0px" y="0px"
	 viewBox="0 0 60 60" enable-background="new 0 0 60 60" xml:space="preserve">
<g display="none">
	<rect x="0" y="0" display="inline" fill="#292A33" width="60" height="60"/>
	<g display="inline" opacity="0.5">
		<path fill="#FFFFFF" d="M39.9,19.7h-3.5v-1.6c0-0.4-0.4-0.8-0.8-0.8c-0.4,0-0.8,0.4-0.8,0.8v1.6H30v-1.6c0-0.4-0.4-0.8-0.8-0.8
			c-0.4,0-0.8,0.4-0.8,0.8v1.6h-4.8v-1.6c0-0.4-0.4-0.8-0.8-0.8c-0.4,0-0.8,0.4-0.8,0.8v1.6h-3.5c-1.2,0-2.1,1-2.1,2.1v18.9
			c0,1.2,1,2.1,2.1,2.1h21.3c1.2,0,2.1-1,2.1-2.1V21.9C42,20.7,41.1,19.7,39.9,19.7L39.9,19.7z M40.4,40.8c0,0.3-0.2,0.5-0.5,0.5
			H18.6c-0.3,0-0.5-0.2-0.5-0.5V21.9c0-0.3,0.2-0.5,0.5-0.5H22V23c0,0.4,0.4,0.8,0.8,0.8c0.4,0,0.8-0.4,0.8-0.8v-1.6h4.8V23
			c0,0.4,0.4,0.8,0.8,0.8c0.4,0,0.8-0.4,0.8-0.8v-1.6h4.8V23c0,0.4,0.4,0.8,0.8,0.8c0.4,0,0.8-0.4,0.8-0.8v-1.6h3.5
			c0.3,0,0.5,0.2,0.5,0.5V40.8z M40.4,40.8"/>
		<rect x="22" y="27" fill="#FFFFFF" width="3.2" height="2.4"/>
		<rect x="22" y="31" fill="#FFFFFF" width="3.2" height="2.4"/>
		<rect x="22" y="35" fill="#FFFFFF" width="3.2" height="2.4"/>
		<rect x="27.6" y="35" fill="#FFFFFF" width="3.2" height="2.4"/>
		<rect x="27.6" y="31" fill="#FFFFFF" width="3.2" height="2.4"/>
		<rect x="27.6" y="27" fill="#FFFFFF" width="3.2" height="2.4"/>
		<rect x="33.2" y="35" fill="#FFFFFF" width="3.2" height="2.4"/>
		<rect x="33.2" y="31" fill="#FFFFFF" width="3.2" height="2.4"/>
		<rect x="33.2" y="27" fill="#FFFFFF" width="3.2" height="2.4"/>
	</g>
</g>
<g display="none">
	<rect x="0" y="0" display="inline" fill="#292A33" width="60" height="60"/>
	<g display="inline" opacity="0.5">
		<g>
			<path fill-rule="evenodd" clip-rule="evenodd" fill="#FFFFFF" d="M30.2,18c-7.2,0-13,5.8-13,13c0,7.2,5.8,13,13,13
				c7.2,0,13-5.8,13-13C43.2,23.8,37.3,18,30.2,18L30.2,18z M30.7,41.8v-1.9c0-0.3-0.2-0.6-0.6-0.6c-0.3,0-0.6,0.2-0.6,0.6v1.9
				c-5.6-0.3-10-4.7-10.3-10.3h1.8c0.3,0,0.6-0.2,0.6-0.5c0-0.3-0.2-0.6-0.6-0.6h-1.8c0.3-5.6,4.7-10,10.3-10.3c0,0,0,0,0,0v2
				c0,0.3,0.2,0.6,0.6,0.6c0.3,0,0.6-0.2,0.6-0.6v-2c0,0,0,0,0,0c5.6,0.3,10,4.7,10.3,10.3h-1.9c-0.3,0-0.6,0.2-0.6,0.6
				c0,0.3,0.2,0.5,0.6,0.5H41C40.7,37.1,36.3,41.5,30.7,41.8L30.7,41.8z M30.7,41.8"/>
		</g>
		<path fill-rule="evenodd" clip-rule="evenodd" fill="#FFFFFF" d="M37.2,30.4h-6.2c-0.2-0.3-0.5-0.5-0.9-0.5c-0.1,0-0.2,0-0.4,0.1
			l-4.3-4.3c-0.2-0.2-0.6-0.2-0.8,0c-0.2,0.2-0.2,0.6,0,0.8l4.4,4.4c0,0,0,0.1,0,0.1c0,0.6,0.5,1.1,1.1,1.1c0.4,0,0.7-0.2,0.9-0.5
			h6.2c0.3,0,0.6-0.2,0.6-0.5C37.8,30.7,37.6,30.4,37.2,30.4L37.2,30.4z M37.2,30.4"/>
	</g>
</g>
<g>
	<rect x="0" y="0" fill="#292A33" width="60" height="60"/>
	<g opacity="0.5">
		<path fill="#FFFFFF" d="M37.6,22.4c-0.1-0.4-0.3-0.8-0.5-1.2c-1.9-4.7-6.2-6.4-9.6-6.4c-4.6,0-9.7,3.1-10.3,9.4v1.3
			c0,0.1,0,0.5,0,0.8c0.4,3,2.8,6.3,4.6,9.3c1.9,3.2,3.9,6.4,5.9,9.6c1.2-2.1,2.4-4.2,3.6-6.2c0.3-0.6,0.7-1.2,1-1.8
			c0.2-0.4,0.6-0.8,0.8-1.1c1.9-3.5,5-7.1,5-10.6v-1.4C38.1,23.8,37.7,22.4,37.6,22.4L37.6,22.4z M27.6,28.9c-1.4,0-2.8-0.7-3.6-2.5
			c-0.1-0.3-0.1-0.9-0.1-0.9v-0.8c0-2.4,2-3.5,3.8-3.5c2.2,0,3.8,1.7,3.8,3.9C31.5,27.1,29.7,28.9,27.6,28.9L27.6,28.9z M27.6,28.9"
			/>
	</g>
</g>
</svg>
