<?xml version="1.0" encoding="utf-8"?>
<!-- Generator: Adobe Illustrator 18.1.1, SVG Export Plug-In . SVG Version: 6.00 Build 0)  -->
<svg version="1.1" id="Layer_1" xmlns="http://www.w3.org/2000/svg" xmlns:xlink="http://www.w3.org/1999/xlink" x="0px" y="0px"
	 viewBox="0 0 35 35" enable-background="new 0 0 35 35" xml:space="preserve">
<path opacity="0.75" fill="#FFFFFF" d="M17.7,33.8c-1.9-1.5-4-4.2-5.4-6.8c-1.8-3.5-2.2-7.5,1.1-10.1c0.9-0.7,2.1,0.1,1.9,1
	c-0.3,1.6,0,7.7,1.3,10.8c-0.6-5.1,0-9.4,1-11.2c1-1.8,2.5-1.6,3.8,0.2C22.8,19.9,25,25.1,17.7,33.8 M28,23.8
	c-0.1-1.5-1.1-1.2-2-0.3c-1.7,1.6-2.1,7.2-6.4,10.5c5.9,1.2,13.1-4,11.4-9.6c-0.3-1.1-1.5-2.1-1.8-0.3c-0.3,1.9-1.9,5.8-4.8,7.3
	C27.2,28.3,28.1,25.3,28,23.8 M15.5,33.9c-2.6-1.6-5.8-6.2-6.6-9c-1-3.3-3.4-2.7-2.9-0.6c0.5,2.1,1.1,4.1,3.7,7
	c-3-1.5-4.5-5.5-4.7-6.2c-0.1-0.9-1.2-1.5-1.4,0C3.3,29.3,6.8,34.8,15.5,33.9 M2.5,10.2c-0.8,1.5-1.9,3.5-2.3,5.5
	c-0.6,2.6,0.1,5.2,2.8,6.2c0.7,0.3,1.2-0.4,1-1c-0.3-0.9-1.5-5-1.2-7.3c0.6,3.5,1.8,6.1,2.8,7c1,1,1.9,0.5,2.5-0.9
	C8.5,18.4,9.3,15.1,2.5,10.2 M8.6,14.3c1,0.9,1.7,1.1,2-0.7C11,12,10,9.2,11.2,4.4c0.1,4.8,0.6,8.5,0.9,9.8c0.3,1.3,1.8,1.7,3-0.4
	c1.4-2.3,1-5.4-3.6-13.1C9,4.4,4.6,10.3,8.6,14.3 M26.2,7.8c-0.4-2.3-1.5-4.5-2.2-6.3c-7.4,5.1-6.7,8.9-6.2,10.5
	c0.5,1.6,1.5,2.2,2.6,1.1c1.1-1,2.5-3.8,3.2-7.7c0.2,2.6-1.2,7.1-1.5,8.1c-0.2,0.7,0.2,1.4,1,1.2C25.9,13.7,26.7,10.8,26.2,7.8
	 M34.8,16.3c0-2.1-0.7-4.3-1.2-6.1c-8,3.4-7.9,6.9-7.6,8.4c0.3,1.5,1.1,2.2,2.4,1.5c1.2-0.7,3-3.1,4.3-6.5c-0.2,2.4-2.2,6.3-2.7,7.1
	c-0.3,0.6,0,1.3,0.8,1.2C33.6,21.5,34.8,19.1,34.8,16.3"/>
</svg>
