<?xml version="1.0" encoding="utf-8"?>
<!-- Generator: Adobe Illustrator 18.1.1, SVG Export Plug-In . SVG Version: 6.00 Build 0)  -->
<svg version="1.1" id="Layer_1" xmlns="http://www.w3.org/2000/svg" xmlns:xlink="http://www.w3.org/1999/xlink" x="0px" y="0px"
	 viewBox="0 0 242.8 42.7" enable-background="new 0 0 242.8 42.7" xml:space="preserve">
<g>
	<path fill="#FFFFFF" d="M72.6,27.7c-0.8,3.1-1.6,5.3-2.4,6.5c-0.5,0.8-1.2,1.3-2.1,1.5c-0.9,0.2-2.4,0.3-4.6,0.3
		c0.9-2.2,1.6-4.5,2.3-7c0.7-2.4,1-4.2,1-5.4c0-1.1-0.4-1.7-1.2-1.7c-1.3,0-2.6,1.3-4,3.8c-1.4,2.5-2.4,5.4-3.2,8.7l-0.2,1.4h-6.1
		c1.1-6.4,2.4-12.2,3.8-17.2c0.3-1.2,1-1.9,1.9-2.2c1-0.3,2.6-0.5,5-0.5c-0.5,1.6-1,3.3-1.5,5.3c2.7-3.7,5.5-5.5,8.4-5.5
		c2.7,0,4,1.5,4,4.4C73.8,22,73.4,24.5,72.6,27.7"/>
	<path fill="#FFFFFF" d="M77.9,19.9c2-2.9,4.3-4.4,7-4.4c2.3,0,3.9,1,4.7,3.1l0.7-2.7h6c-1.6,6.4-2.7,12.2-3.3,17.3
		c-0.1,0.6-0.2,1.1-0.5,1.5c-0.3,0.4-0.7,0.6-1.3,0.8c-0.6,0.2-1.2,0.3-1.9,0.3c-0.6,0-1.5,0.1-2.8,0.1c0.2-2.2,0.5-3.9,0.6-5.2
		c-2.4,3.6-5,5.4-7.9,5.4c-1.4,0-2.5-0.5-3.3-1.5c-0.8-1-1.2-2.5-1.2-4.6C74.9,26.2,75.9,22.8,77.9,19.9 M82.8,30.5
		c0.9,0,2-0.8,3.1-2.4c1.1-1.6,1.9-3.3,2.5-5c-0.1-0.7-0.4-1.3-0.7-1.7c-0.4-0.5-0.9-0.7-1.5-0.7c-1.3,0-2.4,0.8-3.3,2.5
		c-0.9,1.7-1.3,3.5-1.3,5.4C81.4,29.8,81.9,30.5,82.8,30.5"/>
	<path fill="#FFFFFF" d="M98.5,34.7c-1-1-1.5-2.4-1.5-4.4c0-1.3,0.4-3.7,1.2-7.1c0.8-3.4,1.6-6.5,2.5-9.2c0.2-0.8,0.7-1.4,1.2-1.7
		c0.6-0.4,1.3-0.6,2.1-0.7c0.8-0.1,2-0.1,3.6-0.1c-0.7,2.2-1.2,3.7-1.4,4.5h4c0.9,0,1.4,0.3,1.5,0.8c0.1,0.5-0.1,1.9-0.6,4.1h-6.2
		c-1,3.8-1.4,6.2-1.4,7.4c0,0.9,0.2,1.6,0.7,2.1c0.5,0.5,1.2,0.8,2.2,0.8c1,0,1.9-0.2,2.8-0.6l0.2,0.2l-0.5,2.1
		c-0.3,1.2-1,2-2.2,2.6c-1.2,0.5-2.6,0.8-4.1,0.8C100.8,36.1,99.4,35.6,98.5,34.7"/>
	<path fill="#FFFFFF" d="M128.1,35.4c-0.9,0.3-2.5,0.4-5,0.4c0.5-3.1,0.8-4.7,0.8-4.9c-2.6,3.4-5.3,5.2-8.1,5.2c-2.7,0-4-1.5-4-4.4
		c0-2,0.4-4.6,1.1-7.7c0.8-3.1,1.6-5.3,2.4-6.5c0.5-0.8,1.2-1.3,2.1-1.5c0.9-0.2,2.4-0.3,4.6-0.3c-0.9,2.2-1.6,4.5-2.3,7
		c-0.7,2.4-1,4.2-1,5.4c0,1.1,0.4,1.7,1.2,1.7c1,0,2.1-0.8,3.2-2.5c1.1-1.7,2.1-3.8,3-6.4c0.6-2.1,1.1-3.8,1.4-5h6.2
		c-1.7,5.6-3,11.4-4,17.2C129.6,34.4,129,35.2,128.1,35.4"/>
	<path fill="#FFFFFF" d="M132.9,35.7c1.1-6.4,2.4-12.2,3.8-17.2c0.3-1.2,1-1.9,1.9-2.2c1-0.3,2.6-0.5,5-0.5
		c-0.8,2.6-1.4,4.8-1.9,6.7c0.9-1.9,1.9-3.4,2.8-4.5c0.9-1.1,1.7-1.8,2.2-2c0.6-0.3,1.2-0.4,1.8-0.4c0.7,0,1.2,0.2,1.5,0.6
		c0.3,0.4,0.4,1.1,0.3,2.2c-0.1,1-0.4,2.4-0.9,4.1c-1.2-0.3-2.4-0.1-3.6,0.5c-1.2,0.7-2.2,1.7-3,3.1c-0.9,1.4-1.6,2.8-2.2,4.4
		c-0.6,1.6-1.1,3.2-1.4,4.9l-0.1,0.4H132.9z"/>
	<path fill="#FFFFFF" d="M152.6,33.7c-1.6-1.6-2.3-3.7-2.3-6.3c0-3.4,1-6.2,3-8.5c2-2.3,4.7-3.4,8.2-3.4c2.1,0,3.9,0.6,5.3,1.7
		c1.4,1.1,2.2,2.7,2.2,4.8c0,3.9-4,6.2-12,6.8c0.7,1.8,2.4,2.7,4.9,2.7c1.6,0,3-0.3,4.3-0.9l0.2,0.2l-0.2,1.1
		c-0.3,1.6-1.1,2.7-2.3,3.4c-1.2,0.7-2.8,1-4.9,1C156.2,36.1,154.2,35.3,152.6,33.7 M157.8,21.4c-0.7,1-1.1,2.2-1.3,3.6
		c2.1-0.1,3.6-0.4,4.7-0.9c1.1-0.5,1.6-1.2,1.6-2.3c0-0.6-0.2-1-0.6-1.4c-0.4-0.3-0.9-0.5-1.6-0.5C159.4,19.9,158.5,20.4,157.8,21.4
		"/>
	<path fill="#FFFFFF" d="M170.6,35.2c-0.8-0.6-1.1-1.6-1.1-2.9c0-1.4,0.5-4.1,1.4-8.1c0.9-4,2.2-8.4,3.8-13.2c0.4-1.2,1.1-2,2.1-2.3
		c1-0.3,2.7-0.4,5.2-0.4c-1.9,5.8-3.3,10.7-4.3,14.7c-1,4-1.5,6.5-1.5,7.6c0,1,0.6,1.6,1.9,1.6h0.3l-0.2,1.2c-0.2,0.9-0.8,1.6-1.7,2
		c-0.9,0.4-2,0.7-3.1,0.7C172.3,36.1,171.4,35.8,170.6,35.2"/>
	<path fill="#FFFFFF" d="M190.8,34.7c-0.6,2-1.3,3.8-2,5.5c-0.4,0.9-0.9,1.5-1.6,1.9s-1.7,0.5-3,0.5c-0.8,0-1.7,0-2.7-0.1
		c1.1-2.7,2-5.2,2.7-7.4l-2.8-18.8l0.1-0.4h6.8l1.2,12.3c3.7-5.1,5.5-9.2,5.4-12.3h6.9C202.2,19.3,198.5,25.6,190.8,34.7"/>
	<path fill="#FFFFFF" d="M220.1,27.7c-0.8,3.1-1.6,5.3-2.4,6.5c-0.5,0.8-1.2,1.3-2.1,1.5c-0.9,0.2-2.4,0.3-4.6,0.3
		c0.9-2.2,1.6-4.5,2.3-7c0.7-2.4,1-4.2,1-5.4c0-1.1-0.4-1.7-1.2-1.7c-1.3,0-2.6,1.3-4,3.8c-1.4,2.5-2.4,5.4-3.2,8.7l-0.2,1.4h-6.1
		c1.1-6.4,2.4-12.2,3.8-17.2c0.3-1.2,1-1.9,1.9-2.2c1-0.3,2.6-0.5,5-0.5c-0.5,1.6-1,3.3-1.5,5.3c2.7-3.7,5.5-5.5,8.4-5.5
		c2.7,0,4,1.5,4,4.4C221.3,22,220.9,24.5,220.1,27.7"/>
	<path fill="#FFFFFF" d="M240.6,20.6c-1.4,1.9-3.1,3.8-5.2,5.8l3.9,8.9l-0.1,0.5h-6.4l-2.5-5.7c-2,2.1-3.2,4-3.7,5.7h-6.7
		c0.3-2.5,3-6,8.3-10.6l-3.7-8.6l0.1-0.5h6.4l2.3,5.2c1.5-1.9,2.5-3.6,3-5.2h6.6C242.7,17.2,242,18.7,240.6,20.6"/>
	<path fill="#FFFFFF" d="M22.6,42.2c-2.4-1.9-5.1-5.4-6.9-8.7c-2.4-4.4-2.8-9.6,1.4-12.9c1.1-0.9,2.7,0.1,2.5,1.3
		c-0.4,2.1,0.1,9.9,1.7,13.9c-0.8-6.6,0-12,1.3-14.3c1.2-2.3,3.2-2,4.8,0.2C29.2,24.4,32,31.1,22.6,42.2 M35.8,29.4
		c-0.2-1.9-1.3-1.5-2.5-0.4c-2.2,2.1-2.7,9.2-8.1,13.5c7.6,1.6,16.8-5.2,14.6-12.2c-0.4-1.5-1.9-2.7-2.3-0.4
		c-0.4,2.4-2.4,7.4-6.1,9.4C34.8,35.1,35.9,31.3,35.8,29.4 M19.8,42.4c-3.4-2-7.4-7.9-8.5-11.6c-1.3-4.2-4.3-3.4-3.7-0.7
		c0.7,2.7,1.4,5.3,4.7,8.9c-3.9-1.9-5.8-7-5.9-7.9c-0.2-1.1-1.5-1.9-1.8,0C4.2,36.4,8.7,43.5,19.8,42.4 M3.1,12c-1,2-2.4,4.5-2.9,7
		c-0.7,3.4,0.2,6.7,3.6,8c0.9,0.4,1.5-0.5,1.2-1.3c-0.4-1.2-1.9-6.4-1.6-9.3c0.8,4.5,2.3,7.8,3.6,9c1.3,1.2,2.5,0.7,3.2-1.1
		C10.9,22.5,11.9,18.3,3.1,12 M11,17.3c1.3,1.2,2.1,1.4,2.6-0.8c0.5-2.2-0.7-5.8,0.7-11.9c0.2,6.2,0.8,10.9,1.1,12.5
		c0.4,1.7,2.3,2.1,3.9-0.5c1.8-3,1.3-6.9-4.6-16.7C11.4,4.6,5.9,12.2,11,17.3 M33.5,8.9c-0.5-2.9-1.9-5.8-2.9-8.1
		c-9.5,6.5-8.6,11.4-7.9,13.4c0.6,2,1.9,2.8,3.3,1.4c1.4-1.3,3.1-4.9,4.1-9.9c0.2,3.3-1.5,9.1-2,10.4c-0.3,0.9,0.3,1.9,1.3,1.5
		C33.2,16.5,34.2,12.8,33.5,8.9 M44.5,19.8c0-2.7-1-5.6-1.6-7.8c-10.3,4.3-10.1,8.9-9.8,10.8c0.3,2,1.5,2.8,3,1.9
		c1.6-1,3.8-3.9,5.5-8.3c-0.3,3-2.8,8-3.5,9.1c-0.4,0.7,0,1.7,1,1.6C43,26.5,44.6,23.4,44.5,19.8"/>
	<path fill="#FFFFFF" d="M64.2,11.3l-0.4-2.4h-3.4l-1,2.3h-2.6l5.5-11H65L67,10.8L64.2,11.3z M63.1,3.1l-1.7,3.7h2.2L63.1,3.1z"/>
	<path fill="#FFFFFF" d="M74.8,5.4c0.9,0.4,1.6,1.1,1.6,2.3c0,2.3-1.8,3.5-4.6,3.5h-3.7l1.7-11h3.4c2.3,0,3.5,1,3.5,2.6
		C76.7,4.2,75.8,5,74.8,5.4 M72.1,6.4h-0.6L71,9.3h0.8c1.2,0,2-0.6,2-1.6C73.8,6.8,73.2,6.4,72.1,6.4 M72.8,2.1h-0.7l-0.4,2.6h0.7
		c1,0,1.7-0.5,1.7-1.4C74.2,2.5,73.8,2.1,72.8,2.1"/>
	<polygon fill="#FFFFFF" points="89.4,11.2 86.6,11.2 87.3,4 84.2,11.2 81.8,11.2 81,4 79.4,11.2 77.1,11.2 79.6,0.2 83,0.2 
		83.8,7.6 87,0.2 90.3,0.2 	"/>
	<polygon fill="#FFFFFF" points="93.8,11.2 91.1,11.2 92.9,0.2 95.5,0.2 	"/>
</g>
</svg>
