<?xml version="1.0" encoding="utf-8"?>
<!-- Generator: Adobe Illustrator 18.1.1, SVG Export Plug-In . SVG Version: 6.00 Build 0)  -->
<svg version="1.1" id="Layer_1" xmlns="http://www.w3.org/2000/svg" xmlns:xlink="http://www.w3.org/1999/xlink" x="0px" y="0px"
	 viewBox="0 0 50 50" enable-background="new 0 0 50 50" xml:space="preserve">
<g>
	<g>
		<path fill="#FFFFFF" d="M48.9,46c0,0-0.1-9.1-0.6-10c-0.8-1.4-2.7-2.4-6.3-3.8c-3.5-1.5-4.7-2.7-4.7-5.4c0-1.6,1.1-1.1,1.6-4
			c0.2-1.2,1.2,0,1.3-2.8c0-1.1-0.5-1.4-0.5-1.4s0.3-1.6,0.4-2.9c0.1-1.6-0.8-5.6-5.7-5.6c-4.9,0-5.8,4.1-5.7,5.6
			c0.1,1.3,0.4,2.9,0.4,2.9s-0.5,0.3-0.5,1.4c0.2,2.8,1.1,1.6,1.3,2.8c0.5,2.9,1.6,2.4,1.6,4c0,1.8-0.5,3-2,4
			c7.7,3.9,8.8,4.7,8.8,8.1V46H48.9z M25.5,33.6c-4.7-2-6.2-3.6-6.2-7.2c0-2.1,1.4-1.4,2.1-5.4c0.3-1.6,1.5,0,1.8-3.7
			c0-1.5-0.7-1.8-0.7-1.8s0.4-2.2,0.5-3.9C23.1,9.4,21.9,4,15.3,4c-6.6,0-7.8,5.4-7.6,7.5c0.1,1.7,0.5,3.9,0.5,3.9s-0.7,0.4-0.7,1.8
			C7.7,20.9,9,19.3,9.3,21c0.6,3.9,2.1,3.2,2.1,5.4c0,3.6-1.5,5.2-6.2,7.2c-1.4,0.6-4,1.5-4,3.8V46h33.2v-6.5
			C34.3,37.5,30.3,35.5,25.5,33.6L25.5,33.6z M25.5,33.6"/>
	</g>
</g>
</svg>
