<?xml version="1.0" encoding="utf-8"?>
<!-- Generator: Adobe Illustrator 18.1.1, SVG Export Plug-In . SVG Version: 6.00 Build 0)  -->
<svg version="1.1" id="Layer_1" xmlns="http://www.w3.org/2000/svg" xmlns:xlink="http://www.w3.org/1999/xlink" x="0px" y="0px"
	 viewBox="0 0 43 43" enable-background="new 0 0 43 43" xml:space="preserve">
<g>
	<g>
		<path fill="#FFFFFF" d="M21.5,4.1c9.6,0,17.4,7.8,17.4,17.4s-7.8,17.4-17.4,17.4c-9.6,0-17.4-7.8-17.4-17.4S11.9,4.1,21.5,4.1
			 M21.5,0.4C9.9,0.4,0.4,9.9,0.4,21.5s9.5,21.1,21.1,21.1s21.1-9.5,21.1-21.1S33.1,0.4,21.5,0.4L21.5,0.4z"/>
	</g>
	<path fill="#FFFFFF" d="M24.1,21.3l7-7c0.7-0.7,0.7-1.8,0-2.5c-0.7-0.7-1.8-0.7-2.5,0l-7,7l-7-7c-0.7-0.7-1.8-0.7-2.5,0
		c-0.7,0.7-0.7,1.8,0,2.5l7,7l-7,7c-0.7,0.7-0.7,1.8,0,2.5c0.3,0.3,0.8,0.5,1.2,0.5s0.9-0.2,1.2-0.5l7-7l7,7
		c0.3,0.3,0.8,0.5,1.2,0.5c0.4,0,0.9-0.2,1.2-0.5c0.7-0.7,0.7-1.8,0-2.5L24.1,21.3z"/>
</g>
</svg>
