<?xml version="1.0" encoding="utf-8"?>
<!-- Generator: Adobe Illustrator 18.1.1, SVG Export Plug-In . SVG Version: 6.00 Build 0)  -->
<svg version="1.1" id="Layer_1" xmlns="http://www.w3.org/2000/svg" xmlns:xlink="http://www.w3.org/1999/xlink" x="0px" y="0px"
	 viewBox="0 0 43 43" enable-background="new 0 0 43 43" xml:space="preserve">
<path fill="#FFFFFF" d="M21.8,37.8c-1.9-1.5-4-4.2-5.4-6.8c-1.8-3.5-2.2-7.5,1.1-10.1c0.9-0.7,2.1,0.1,1.9,1
	c-0.3,1.6,0,7.7,1.3,10.8c-0.6-5.1,0-9.4,1-11.2c1-1.8,2.5-1.6,3.8,0.2C26.9,23.9,29.1,29.1,21.8,37.8 M32.1,27.8
	c-0.1-1.5-1.1-1.2-2-0.3c-1.7,1.6-2.1,7.2-6.4,10.5c5.9,1.2,13.1-4,11.4-9.6c-0.3-1.1-1.5-2.1-1.8-0.3c-0.3,1.9-1.9,5.8-4.8,7.3
	C31.3,32.3,32.2,29.3,32.1,27.8 M19.6,37.9c-2.6-1.6-5.8-6.2-6.6-9c-1-3.3-3.4-2.7-2.9-0.6c0.5,2.1,1.1,4.1,3.7,7
	c-3-1.5-4.5-5.5-4.7-6.2c-0.1-0.9-1.2-1.5-1.4,0C7.4,33.3,10.9,38.8,19.6,37.9 M6.6,14.2c-0.8,1.5-1.9,3.5-2.3,5.5
	c-0.6,2.6,0.1,5.2,2.8,6.2c0.7,0.3,1.2-0.4,1-1c-0.3-0.9-1.5-5-1.2-7.3c0.6,3.5,1.8,6.1,2.8,7c1,1,1.9,0.5,2.5-0.9
	C12.6,22.4,13.4,19.1,6.6,14.2 M12.7,18.3c1,0.9,1.7,1.1,2-0.7c0.4-1.7-0.6-4.5,0.6-9.3c0.1,4.8,0.6,8.5,0.9,9.8
	c0.3,1.3,1.8,1.7,3-0.4c1.4-2.3,1-5.4-3.6-13.1C13,8.4,8.7,14.3,12.7,18.3 M30.3,11.8c-0.4-2.3-1.5-4.5-2.2-6.3
	c-7.4,5.1-6.7,8.9-6.2,10.5c0.5,1.6,1.5,2.2,2.6,1.1c1.1-1,2.5-3.8,3.2-7.7c0.2,2.6-1.2,7.1-1.5,8.1c-0.2,0.7,0.2,1.4,1,1.2
	C30,17.7,30.8,14.8,30.3,11.8 M38.9,20.3c0-2.1-0.7-4.3-1.2-6.1c-8,3.4-7.9,6.9-7.6,8.4c0.3,1.5,1.1,2.2,2.4,1.5
	c1.2-0.7,3-3.1,4.3-6.5c-0.2,2.4-2.2,6.3-2.7,7.1c-0.3,0.6,0,1.3,0.8,1.2C37.7,25.5,38.9,23.1,38.9,20.3"/>
</svg>
