<?xml version="1.0" encoding="utf-8"?>
<!-- Generator: Adobe Illustrator 18.1.1, SVG Export Plug-In . SVG Version: 6.00 Build 0)  -->
<svg version="1.1" id="Layer_1" xmlns="http://www.w3.org/2000/svg" xmlns:xlink="http://www.w3.org/1999/xlink" x="0px" y="0px"
	 viewBox="0 0 43 43" enable-background="new 0 0 43 43" xml:space="preserve">
<g>
	<g>
		<path fill="#FFFFFF" d="M21.5,4C31.1,4,39,11.9,39,21.5C39,31.1,31.1,39,21.5,39C11.9,39,4,31.1,4,21.5C4,11.9,11.9,4,21.5,4
			 M21.5,0.4C9.8,0.4,0.4,9.8,0.4,21.5c0,11.7,9.5,21.1,21.1,21.1s21.1-9.5,21.1-21.1C42.6,9.8,33.2,0.4,21.5,0.4L21.5,0.4z"/>
	</g>
	<g>
		<path fill="#FFFFFF" d="M32.7,24.6h-13v-13c0-1,0.8-1.8,1.8-1.8c1,0,1.8,0.8,1.8,1.8v9.4h9.4c1,0,1.8,0.8,1.8,1.8
			C34.5,23.8,33.7,24.6,32.7,24.6z"/>
	</g>
</g>
</svg>
