<?xml version="1.0" encoding="utf-8"?>
<!-- Generator: Adobe Illustrator 18.1.1, SVG Export Plug-In . SVG Version: 6.00 Build 0)  -->
<svg version="1.1" id="Layer_1" xmlns="http://www.w3.org/2000/svg" xmlns:xlink="http://www.w3.org/1999/xlink" x="0px" y="0px"
	 viewBox="0 0 43 43" enable-background="new 0 0 43 43" xml:space="preserve">
<g>
	<path fill="#FFFFFF" d="M21.5,2.6c-6.9,0-12.6,5.6-12.6,12.6c0,2.8,1.8,7.3,5.4,13.9c2.6,4.6,5.1,8.5,5.2,8.7l1.9,2.8l1.9-2.8
		c0.1-0.2,2.7-4,5.2-8.7c3.7-6.6,5.4-11.1,5.4-13.9C34.1,8.3,28.4,2.6,21.5,2.6L21.5,2.6z M21.5,21.6c-3.6,0-6.5-2.9-6.5-6.5
		c0-3.6,2.9-6.5,6.5-6.5c3.6,0,6.5,2.9,6.5,6.5C28,18.7,25.1,21.6,21.5,21.6L21.5,21.6z M21.5,21.6"/>
</g>
</svg>
