<?xml version="1.0" encoding="utf-8"?>
<!-- Generator: Adobe Illustrator 18.1.1, SVG Export Plug-In . SVG Version: 6.00 Build 0)  -->
<svg version="1.1" id="Layer_1" xmlns="http://www.w3.org/2000/svg" xmlns:xlink="http://www.w3.org/1999/xlink" x="0px" y="0px"
	 viewBox="0 0 42.5 48.2" enable-background="new 0 0 42.5 48.2" xml:space="preserve">
<g>
	<g>
		<path fill="#FFFFFF" d="M40.6,23.7c-0.9,0.1-1.7,0.9-1.6,1.9c0.8,9.8-6.5,18.4-16.3,19.2c-9.8,0.8-18.4-6.5-19.2-16.3
			C2.8,19.2,9.2,11,18.1,9.4l0.3,4c0,0.6,0.4,1.2,1,1.4c0.3,0.1,0.6,0.2,0.9,0.2c0.3,0,0.6-0.1,0.8-0.3l9.5-6.6
			c0.5-0.3,0.8-0.9,0.7-1.6c0-0.6-0.4-1.2-1-1.4L20,0.2c-0.6-0.3-1.2-0.2-1.7,0.1c-0.5,0.3-0.8,0.9-0.7,1.6L17.8,6
			C7,7.7-0.8,17.5,0.1,28.6C1,40.3,11.3,49.1,22.9,48.1c11.7-0.9,20.4-11.2,19.5-22.9C42.4,24.3,41.5,23.6,40.6,23.7L40.6,23.7z
			 M40.6,23.7"/>
	</g>
</g>
</svg>
