<?xml version="1.0" encoding="utf-8"?>
<!-- Generator: Adobe Illustrator 18.1.1, SVG Export Plug-In . SVG Version: 6.00 Build 0)  -->
<svg version="1.1" id="Layer_1" xmlns="http://www.w3.org/2000/svg" xmlns:xlink="http://www.w3.org/1999/xlink" x="0px" y="0px"
	 viewBox="0 0 55 55" enable-background="new 0 0 55 55" xml:space="preserve">
<g>
	<path fill="#FFFFFF" d="M40.7,21.1c0-11-9-20-20-20c-11,0-20,9-20,20s9,20,20,20C31.8,41.1,40.7,32.1,40.7,21.1z M20.7,39.1
		c-9.9,0-18-8.1-18-18s8.1-18,18-18c9.9,0,18,8.1,18,18S30.7,39.1,20.7,39.1z"/>
	<path fill="#FFFFFF" d="M17.2,7.5C11,9.1,6.7,14.7,6.7,21.1c0,2.5,0.6,4.9,1.9,7c0.2,0.3,0.5,0.5,0.9,0.5c0.2,0,0.3,0,0.5-0.1
		c0.5-0.3,0.6-0.9,0.4-1.4c-1-1.8-1.6-3.9-1.6-6c0-5.5,3.7-10.2,8.9-11.6c0.5-0.1,0.9-0.7,0.7-1.2C18.3,7.7,17.7,7.4,17.2,7.5z"/>
	<path fill="#FFFFFF" d="M53.2,46.9L41.7,35.4c-1.1-1.1-3.1-1.1-4.2,0l-2.1,2.1c-1.2,1.2-1.2,3.1,0,4.2l11.5,11.5
		c0.7,0.7,1.8,1.1,2.8,1.1c0.5,0,1.1-0.1,1.5-0.3l0.2-0.1l2.6-2.6l0.1-0.2C54.6,49.8,54.2,47.9,53.2,46.9z M52.2,50.2l-2,2
		c-0.6,0.2-1.5,0-2-0.4L36.7,40.3c-0.4-0.4-0.4-1,0-1.4l2.1-2.1c0.2-0.2,0.4-0.3,0.7-0.3c0.3,0,0.5,0.1,0.7,0.3l11.5,11.5
		C52.2,48.7,52.4,49.6,52.2,50.2z"/>
</g>
</svg>
