<?xml version="1.0" encoding="utf-8"?>
<!-- Generator: Adobe Illustrator 18.1.1, SVG Export Plug-In . SVG Version: 6.00 Build 0)  -->
<svg version="1.1" id="Layer_1" xmlns="http://www.w3.org/2000/svg" xmlns:xlink="http://www.w3.org/1999/xlink" x="0px" y="0px"
	 viewBox="1.5 -514 603.8 1209.8" enable-background="new 1.5 -514 603.8 1209.8" xml:space="preserve">
<g display="none">
	<path display="inline" fill="#393845" d="M301.9,90C134.6,90,0,224.6,0,391.9c0,165.9,134.6,301.9,301.9,301.9
		c165.9,0,301.9-134.6,301.9-301.9C602.5,224.6,467.8,90,301.9,90z M425.7,434.1c-6.8,8.2-13.6,15-21.8,20.4
		c-2.7,2.7-5.4,4.1-8.2,6.8c-16.3,12.2-42.2,19-62.6,15c-13.6-2.7-28.6-9.5-39.4-19l0,0c-1.4,8.2-4.1,17.7-5.4,25.8
		c-2.7,10.9-4.1,23.1-6.8,34c-6.8,20.4-20.4,36.7-32.6,54.4c-1.4,2.7-6.8,1.4-5.4-1.4c-4.1-5.4-6.8-17.7-6.8-19
		c-2.7-16.3,0-35.4,2.7-51.7c6.8-36.7,16.3-76.2,29.9-111.5c-13.6-8.2-4.1-39.4,1.4-49c8.2-16.3,36.7-38.1,50.3-13.6
		c12.2,19,0,47.6-5.4,68c-2.7,12.2-6.8,27.2,2.7,38.1c8.2,10.9,21.8,12.2,32.6,8.2c35.4-10.9,47.6-47.6,49-81.6
		c1.4-27.2,0-63.9-23.1-83c-32.6-28.6-84.3-5.4-112.9,19c-31.3,27.2-54.4,72.1-21.8,108.8c2.7,0,4.1,1.4,4.1,4.1
		c0,6.8-2.7,13.6-5.4,19c-4.1,2.7-6.8,4.1-9.5,4.1c-12.2-2.7-23.1-8.2-29.9-19c-36.7-49-5.4-119.7,36.7-152.3
		c50.3-38.1,126.5-40.8,171.4,8.2C448.8,310.3,461,383.8,425.7,434.1z"/>
</g>
<path display="none" fill="#393845" d="M301.9,90C134.6,90,0,224.6,0,391.9c0,165.9,134.6,301.9,301.9,301.9
	c165.9,0,301.9-134.6,301.9-301.9C602.5,224.6,467.8,90,301.9,90z M406.6,357.9c0,1.4,0,4.1,0,5.4c0,59.8-46.2,129.2-129.2,129.2
	c-25.8,0-49-8.2-69.4-20.4c4.1,0,6.8,0,10.9,0c21.8,0,40.8-6.8,55.8-19c-20.4,0-36.7-13.6-42.2-31.3c2.7,0,5.4,1.4,8.2,1.4
	c4.1,0,8.2,0,12.2-1.4c-20.4-4.1-36.7-23.1-36.7-44.9l0,0c6.8,4.1,13.6,5.4,20.4,5.4c-12.2-8.2-20.4-21.8-20.4-38.1
	c0-8.2,2.7-16.3,6.8-23.1c21.8,27.2,55.8,44.9,93.8,47.6c-1.4-2.7-1.4-6.8-1.4-10.9c0-24.5,20.4-44.9,44.9-44.9
	c13.6,0,24.5,5.4,32.6,15c10.9-1.4,20.4-5.4,28.6-10.9c-4.1,10.9-10.9,19-20.4,24.5c9.5-1.4,17.7-4.1,25.8-6.8
	C423,344.3,414.8,351.1,406.6,357.9z"/>
<path display="none" fill="#393845" d="M301.9,90C134.6,90,0,224.6,0,391.9c0,165.9,134.6,301.9,301.9,301.9
	c165.9,0,301.9-134.6,301.9-301.9C602.5,224.6,467.8,90,301.9,90z M356.3,402.8h-36.7c0,58.5,0,129.2,0,129.2h-53
	c0,0,0-70.7,0-129.2h-25.8v-46.2h25.8v-29.9c0-21.8,9.5-54.4,54.4-54.4h39.4v44.9c0,0-24.5,0-28.6,0s-10.9,2.7-10.9,12.2v27.2h40.8
	L356.3,402.8z"/>
<path display="none" fill="#393845" d="M301.9,90C134.6,90,0,224.6,0,391.9c0,165.9,134.6,301.9,301.9,301.9
	s301.9-134.6,301.9-301.9C602.5,224.6,467.8,90,301.9,90z M186.3,504.8c-4.1,1.4-8.2-2.7-6.8-6.8l12.2-55.8l49,49L186.3,504.8z
	 M255.7,479l-49-49l125.1-125.1l49,49L255.7,479z M418.9,315.8l-24.5,24.5l-49-49l21.8-21.8c8.2-8.2,21.8-8.2,31.3,0l21.8,21.8
	C424.3,298.1,424.3,309,418.9,315.8z"/>
<g>
	<g>
		<path fill="#D10020" d="M303.4,355.8c-21.8,0-38.1,16.3-38.1,38.1c0,20.4,17.7,38.1,38.1,38.1c21.8,0,38.1-16.3,38.1-38.1
			S323.8,355.8,303.4,355.8z"/>
		<path fill="#D10020" d="M303.4,92C136.1,92,1.5,226.6,1.5,393.9c0,165.9,134.6,301.9,301.9,301.9c165.9,0,301.9-134.6,301.9-301.9
			C604,226.6,469.3,92,303.4,92z M423.1,406.2c0,1.4-32.6,15-32.6,15l-5.4,15c0,0,15,31.3,13.6,32.6l-19,17.7
			c-1.4,0-34-13.6-34-13.6l-15,5.4c0,0-12.2,32.6-13.6,32.6h-25.8c-1.4,0-15-32.6-15-32.6l-15-5.4c0,0-31.3,15-32.6,13.6l-19-19
			c-1.4-1.4,12.2-32.6,12.2-32.6l-5.4-15c0,0-32.6-12.2-32.6-13.6v-25.8c0-1.4,32.6-15,32.6-15l5.4-15c0,0-15-31.3-13.6-32.6
			l19-17.7c1.4-1.4,34,12.2,34,12.2l15-5.4c0,0,12.2-32.6,13.6-32.6h25.8c1.4,0,15,32.6,15,32.6l15,5.4c0,0,31.3-15,32.6-13.6
			l19,17.7c1.4,1.4-13.6,32.6-13.6,32.6l5.4,15c0,0,32.6,12.2,32.6,13.6v28.6h1.4V406.2z"/>
	</g>
	<g>
		<path fill="#539ABA" d="M303.4-250.2c-21.8,0-38.1,16.3-38.1,38.1c0,20.4,17.7,38.1,38.1,38.1c21.8,0,38.1-16.3,38.1-38.1
			S323.8-250.2,303.4-250.2z"/>
		<path fill="#539ABA" d="M303.4-514C136.1-514,1.5-379.4,1.5-212.1C1.5-46.2,136.1,89.8,303.4,89.8
			c165.9,0,301.9-134.6,301.9-301.9C604-379.4,469.3-514,303.4-514z M423.1-199.8c0,1.4-32.6,15-32.6,15l-5.4,15
			c0,0,15,31.3,13.6,32.6l-19,17.7c-1.4,0-34-13.6-34-13.6l-15,5.4c0,0-12.2,32.6-13.6,32.6h-25.8c-1.4,0-15-32.6-15-32.6l-15-5.4
			c0,0-31.3,15-32.6,13.6l-19-19c-1.4-1.4,12.2-32.6,12.2-32.6l-5.4-15c0,0-32.6-12.2-32.6-13.6v-25.8c0-1.4,32.6-15,32.6-15l5.4-15
			c0,0-15-31.3-13.6-32.6l19-17.7c1.4-1.4,34,12.2,34,12.2l15-5.4c0,0,12.2-32.6,13.6-32.6h25.8c1.4,0,15,32.6,15,32.6l15,5.4
			c0,0,31.3-15,32.6-13.6l19,17.7c1.4,1.4-13.6,32.6-13.6,32.6l5.4,15c0,0,32.6,12.2,32.6,13.6v28.6H423.1z"/>
	</g>
</g>
</svg>
