<?xml version="1.0" encoding="utf-8"?>
<!-- Generator: Adobe Illustrator 18.1.1, SVG Export Plug-In . SVG Version: 6.00 Build 0)  -->
<svg version="1.1" id="Layer_1" xmlns="http://www.w3.org/2000/svg" xmlns:xlink="http://www.w3.org/1999/xlink" x="0px" y="0px"
	 viewBox="0 0 50 50" enable-background="new 0 0 50 50" xml:space="preserve">
<g>
	<path fill="#FFFFFF" d="M2.2,38.4c-0.2,0.3-0.5,0.7-0.7,1c-0.3,0.4-0.2,0.8,0,1.2c0.4,0.7,1,1.2,1.7,1.6c0.3,0.2,0.7,0.4,1.1,0.5
		c0.1,0,0.1,0,0.1-0.1c-0.3-0.7-0.3-1.3-0.1-1.8c0-0.1,0.1-0.2,0.2-0.2c0.1,0,0.3-0.1,0.4-0.1c0.1,0,0.2-0.1,0.3-0.1
		c0.7-0.3,1.5-0.5,2.2-0.8c0.7-0.2,1.3-0.1,2,0.2c1.4,0.7,2.8,1.4,4.2,1.9c2.1,0.9,4.4,1.1,6.6,0.9c0.5,0,1.1-0.1,1.6-0.2
		c0.1,0,0.2,0.1,0.2,0.1c0,0.2,0,0.4,0.1,0.6c0,0.1,0,0.2-0.1,0.2c-0.6,0.1-1,0.6-1.2,1.3c-0.1,0.1-0.1,0.3-0.2,0.4
		c-0.3,0.3-0.3,0.6,0.1,0.9c0.1,0.1,0.1,0.3,0.1,0.4c0,0.3-0.1,0.7-0.2,1c0,0.1,0,0.2,0.1,0.2c0.3,0.1,0.6,0.3,0.8,0.2
		c0.2-0.1,0.3-0.3,0.5-0.6c0-0.1,0.1-0.1,0.2,0c0.2,0.1,0.4,0.3,0.5,0.4c0.1,0.1,0.2,0,0.3,0c0.5-0.4,0.9-0.9,1.4-1.3
		c0.1-0.1,0-0.1,0-0.1c-0.5,0.1-0.9,0.1-1.4,0.2c-0.1,0-0.2,0-0.2-0.1c0-0.4,0-0.8,0.1-1.2c0-0.1,0.2-0.2,0.3-0.2
		c0.2,0,0.4,0,0.6,0.1c0.1,0,0.1,0.1,0.1,0.2c0,0.3-0.1,0.5-0.1,0.7c0,0.1,0,0.1,0.1,0.1c0.6-0.2,0.8-0.7,1.1-1.2
		c0-0.1,0-0.2-0.1-0.2c-0.3-0.2-0.6-0.3-0.9-0.5c-0.1,0-0.1-0.1-0.1-0.2c0.1-0.2,0.3-0.4,0.4-0.6c0,0,0.1-0.1,0.1-0.1
		c0,0,0-0.1,0.1-0.1c0-0.1,0.1-0.1,0-0.1c0,0,0-0.1,0.1-0.1c0.1-0.1,0.1-0.2,0.2-0.4c0-0.1,0.1-0.1,0.2,0c0.1,0.1,0.3,0.2,0.4,0.2
		c0.1,0,0.2,0.1,0.3,0.1c0.5,0.2,1,0.5,1.5,0.7c0.6,0.3,0.7,0.9,0.7,1.5c0,0.4-0.3,0.5-0.6,0.7c-0.4,0.2-0.8,0.4-1.2,0.7
		c-0.4,0.4-0.4,0.7-0.1,1.2c0.1,0.1,0,0.3,0,0.4c-0.4,1-0.4,1,0.4,1.7c0.1,0.1,0.3,0.3,0.4,0.4c0.1,0.1,0.1,0,0.1,0
		c-0.1-0.3-0.1-0.6-0.2-0.9c-0.1-0.5-0.1-0.7,0.3-1c0.1-0.1,0.2-0.1,0.3,0c0.2,0.1,0.3,0.2,0.5,0.3c0.1,0,0.1,0,0.1-0.1
		c0-0.1,0-0.1,0-0.1c-0.2-0.9-0.2-1,0.6-1.3c0.1,0,0.2,0,0.2,0.1c0.1,0.6,0.1,1.1,0.2,1.7c0,0.1,0,0.2,0,0.3c0,0.6,0.3,0.8,0.8,0.9
		c0.1,0,0.2,0,0.3-0.1c0.3-0.2,0.6-0.5,1-0.8c0.1-0.1,0.1-0.1,0-0.1c-0.3,0-0.6,0-0.9-0.1c-0.1,0-0.3-0.2-0.3-0.3c0-0.7,0-1.5,0-2.2
		c0-0.1,0.1-0.1,0.2-0.1c0.1,0,0.3,0.1,0.4,0.2c0.1,0.1,0.2,0.2,0.2,0.3c0,0.3,0,0.5,0,0.8c0,0.1,0,0.1,0.1,0.1
		c0.5-0.4,0.8-0.7,1-1.3c0.1-0.2,0.1-0.4-0.2-0.5c-0.5-0.2-1.1-0.5-1.5-0.8c-0.2-0.2-0.4-0.5-0.6-0.8c0-0.1,0-0.1,0.1-0.1
		c0.6,0,1.1-0.1,1.6-0.1c0.1,0,0.1-0.1,0.1-0.2c-0.2-0.4-0.5-0.8-0.4-1.3c0-0.1,0.1-0.1,0.2,0c0.3,0.3,0.6,0.3,1,0.2
		c0.1,0,0.2-0.1,0.2-0.1c0,0,0,0,0,0c-0.7-0.6-0.8-1.4-0.4-2.4c0,0,0,0,0,0c0,0,0.1,0,0.2-0.1c0.5-0.2,1-0.2,1.5,0
		c0.5,0.2,0.8,0.6,1,1.3c0.3,1,0.3,1.9-0.1,2.9c-0.2,0.5-0.5,0.9-0.9,1.2c-0.1,0-0.1,0.1,0,0.1c0.8,0.3,1.6,0.3,2.2-1.1
		c0-0.1,0.1-0.1,0.1,0c0,0.1,0,0.2,0,0.2c0,1,0.4,1.9,1.2,2.6c1.2,1,2.5,1.7,4.1,1.6c1.4-0.1,3.1-1.4,3.4-2.7c0.2-1,0.1-2-0.5-2.9
		c-0.1-0.1-0.2-0.2-0.3-0.4c0,0,0,0-0.1-0.1c0,0-0.1,0,0,0.1c0.1,0.3,0.2,0.5,0.2,0.7c0.1,1-0.5,1.9-1.6,2.3c-0.9,0.3-1.7,0-2.4-0.5
		c-0.5-0.4-0.9-1-1.3-1.6c-0.1-0.1-0.1-0.2-0.1-0.4c0-0.1,0-0.1,0.1,0c0.7,0.8,1.5,0.7,2.4,0.4c0.1,0,0.1-0.1,0-0.2
		c-0.3-0.4-0.6-0.7-0.9-1c-0.5-0.5-0.8-1.2-1-1.9c-0.1-0.4-0.2-0.7-0.3-0.9c0-0.1-0.1-0.2-0.1-0.3c-0.2-0.6-0.6-1.1-1-1.5
		c-0.1-0.1-0.2-0.2-0.2-0.3c-0.2-0.2-0.3-0.5-0.5-0.6c-0.1-0.1-0.1-0.2-0.2-0.3c0-0.1-0.1-0.1-0.2-0.2c-0.4-0.3-0.9-0.6-1.4-0.8
		c-0.1,0-0.2-0.1-0.3-0.2c-0.6-0.4-1.2-0.8-1.8-1.1c-0.1,0-0.1-0.1,0-0.1c1.5-0.2,3-0.5,4.5-1c0.1,0,0.1,0,0,0
		c-1.1,0.1-2.1,0.2-3.2,0.2c-0.4,0-0.8,0-1.2,0c-0.1,0-0.1-0.1-0.1-0.1c0.1-0.1,0.4-0.2,0.5-0.2c0.2-0.1,0.3-0.1,0.5-0.2
		c0.1,0,0.2-0.1,0.3-0.1c2,0,4-0.7,5.9-1.5c0.1,0,0.1-0.1,0,0c-0.8,0.1-1.6,0.2-2.4,0.3c-0.5,0-1,0-1.5,0c-0.1,0-0.2-0.1-0.2-0.1
		c0-0.1-0.1-0.1,0-0.1c0,0,0,0,0,0c0.2-0.1,0.3-0.2,0.5-0.3c0.2-0.1,0.4-0.2,0.6-0.3c0.1,0,0.2-0.1,0.3-0.1c0.2,0,0.4-0.1,0.7-0.2
		c1.5-0.4,2.8-1.1,4.1-1.8c0.1,0,0.1-0.1,0,0c-1.4,0.4-2.9,0.7-4.3,0.8c-0.1,0-0.2,0-0.3,0c-0.1,0-0.1-0.1,0-0.1
		c0.2-0.2,0.3-0.4,0.5-0.6c0.1-0.1,0.2-0.1,0.3-0.2c2.4-0.6,4.6-1.7,6.6-3.5c0.1-0.1,0.1-0.1,0,0c-0.2,0.1-0.5,0.2-0.7,0.3
		c-1.5,0.8-3.1,1.3-4.7,1.8c-0.1,0-0.1,0-0.1-0.1c0.2-0.2,0.3-0.5,0.5-0.7c0-0.1,0.2-0.2,0.2-0.2c0.2-0.1,0.4-0.1,0.7-0.2
		c2.2-0.7,3.7-2.2,5.3-3.7c0.1-0.1,0.1-0.1,0.1-0.2c0,0-0.1,0-0.2,0c-0.2,0.1-0.5,0.3-0.7,0.4c-0.8,0.4-1.5,0.9-2.4,1.2
		c-0.1,0-1.6,0.5-1.4,0c0.1-0.4,0.6-0.7,0.9-1c0.6-0.5,1.2-1.1,1.8-1.6c0.4-0.3,0.8-0.6,1.1-1c1.3-1.4,2.3-2.9,3.4-4.5
		c0.1-0.1,0.1-0.1,0-0.2c0,0-0.1,0-0.2,0.1c-0.5,0.4-0.9,0.9-1.4,1.3c-1.5,1.4-3.1,2.6-4.8,3.6c-0.1,0-0.1,0-0.1-0.1
		c0-0.1,0.1-0.2,0.1-0.4c0,0,0,0,0-0.1c0,0,0.1-0.1,0.1-0.2c0.2-0.2,0.3-0.4,0.5-0.6c0.1-0.1,0.2-0.2,0.2-0.2
		c0.6-0.5,1.2-1.1,1.6-1.8c0-0.1,0.1-0.2,0.2-0.3c1.9-2.3,3-5.1,3.3-8.2c0-0.1,0-0.1-0.1,0c-0.6,1.1-1.2,2.1-1.8,3.2
		c-1.1,1.9-2.4,3.7-4,5.2c-0.1,0.1-0.2,0.1-0.3,0.2c-0.1,0.1-0.3,0.1-0.4,0.2c-0.1,0-0.2,0-0.2,0c0,0,0-0.1,0-0.2
		c0.6-0.9,1.2-1.8,1.6-2.8c0-0.1,0.1-0.2,0.2-0.3c1-1.6,1.7-3.3,2.3-5c0-0.1,0.1-0.2,0.1-0.2c-0.3-0.9-0.1-1.9-0.1-2.8
		c-0.1-1.7-0.9-3.2-1.8-4.6c-0.1-0.2-0.3-0.4-0.4-0.6c-0.1-0.1-0.1,0-0.1,0c0.2,0.5,0.3,1.1,0.5,1.6C44.3,4.8,44.5,7,44,9.3
		c-0.3,1.2-0.9,2.2-1.6,3.2c-1.2,1.6-2.5,3.1-4.3,4.1c-1,0.5-1.9,1.1-2.9,1.6c-3.3,1.6-6.4,3.5-9.3,5.7c-1.1,0.7-2.1,1.5-3.1,2.4
		c-0.1,0.1-0.1,0-0.1,0c0.3-0.7,0.5-1.3,0.7-2.1c0-0.1,0-0.2,0-0.1c0,0-0.1,0-0.1,0c-0.2,0.5-0.6,1-1,1.4c-0.1,0.1-0.1,0.1-0.2,0
		C22.1,25.2,22,25,22,24.8c0-0.1,0-0.2,0-0.3c0.6-1.2,1.1-2.4,1.4-3.7c0-0.1,0-0.2,0-0.2c0,0-0.1,0-0.1,0.1c0,0.1-0.1,0.2-0.2,0.3
		c-0.5,0.8-1,1.6-1.5,2.4c0,0.1-0.1,0.1-0.2,0c-0.1-0.2-0.2-0.5-0.3-0.7c0-0.1,0-0.2,0-0.3c0.5-1.6,1-3.2,1.2-4.8c0-0.1,0-0.2,0-0.2
		c0,0-0.1,0-0.1,0.1C22,17.7,22,17.8,21.9,18c-0.5,1-1,2-1.4,3.1c0,0.1-0.1,0.1-0.1,0c-0.2-0.4-0.5-0.9-0.7-1.3c0-0.1-0.1-0.2,0-0.3
		c0.2-1.1,0.4-2.2,0.5-3.3c0-0.4,0-0.7,0-1.1c0-0.1,0-0.1-0.1,0c-0.4,1.1-0.8,2.2-1.1,3.2c0,0.1-0.1,0.1-0.1,0
		c-0.2-0.3-0.4-0.6-0.5-0.8c-0.1-0.1-0.1-0.2-0.1-0.3c0.3-1.8,0.4-3.7,0.2-5.5c0-0.1,0-0.2-0.1-0.2c0,0-0.1,0.1-0.1,0.2
		c0,0.2,0,0.4-0.1,0.6c-0.3,1.1-0.6,2.3-1,3.4c0,0.1-0.1,0.1-0.1,0c-0.2-0.3-0.4-0.5-0.6-0.8c-0.1-0.1-0.1-0.2-0.1-0.3
		c0.1-2.3-0.2-4.5-1-6.8c0-0.1,0-0.1,0,0c0.3,1.2,0,3.4-0.3,4.7c0,0.1-0.1,0.2-0.2,0.2c-0.4,0-0.8-0.3-1-0.7c-0.2-0.5-0.3-1-0.3-1.5
		c-0.2-1.9-0.7-3.7-1.5-5.4c0-0.1-0.1-0.1-0.1,0c0.2,1.8,0.3,3.6,0,5.4c0,0.1-0.1,0.1-0.1,0C10.4,7.7,9.1,4.8,7.7,2
		c0-0.1-0.1-0.1,0,0C8,4,8.4,6,8.8,8c0,0.1,0,0.1-0.1,0.1C7.4,7,6.4,5.4,6.1,3.7c0-0.1,0-0.1,0,0c0,0.6,0,1.9,0.3,2.4
		c0,0.1,0,0.1,0,0C6.2,6.1,6.1,6,6.1,5.9C6,5.9,5.9,5.7,5.9,5.7C5.6,5.2,5.3,4.7,5.1,4.3c-0.5-0.8-1-1.6-1.6-2.4
		C2.9,1.3,2.2,0.7,1.6,0.1C1.5,0,1.4,0,1.4,0c0,0,0,0.1,0,0.2c0.3,0.6,0.7,1.1,1,1.7c1.6,2.8,2.8,5.8,3.5,9c0.5,2.4,0.4,4.9,0.1,7.3
		c-0.2,1.9-0.6,3.8-1.3,5.7c-0.2,0.4-0.4,0.9-0.6,1.3c0,0.1,0,0.2,0.1,0.2c0.3,0.3,0.7,0.5,1,0.8c0.1,0,0.2,0,0.3-0.1
		c0.6-0.3,1.2-0.7,1.8-1c0,0,0.1,0,0.1-0.1c0.1,0,0.2,0,0.2,0c0,0,0,0.1-0.1,0.1c-0.1,0-0.1,0.1-0.2,0.1c-0.1,0.1-0.1,0.1,0,0.1
		c0.7-0.2,1.5-0.4,2.2-0.4c1.7,0.1,3.3,2.1,2.9,3.7c-0.2,0.8-0.7,1.3-1.4,1.7c-1.3,0.9-2.7,1.4-4.2,1.9c-0.8,0.3-1.6,0.5-2.4,0.8
		c-1.4,0.4-1.9,1.5-2.2,2.8c-0.1,0.2-0.1,0.5-0.1,0.8c0,0.1,0,0.2,0,0.3c0,0.2,0,0.4,0,0.6c0,0.1,0,0.1,0.1,0.2c0,0.1,0,0.2,0,0.3
		C2.3,38.2,2.2,38.3,2.2,38.4z"/>
</g>
</svg>
