<?xml version="1.0" encoding="utf-8"?>
<!-- Generator: Adobe Illustrator 18.1.1, SVG Export Plug-In . SVG Version: 6.00 Build 0)  -->
<svg version="1.1" id="Layer_1" xmlns="http://www.w3.org/2000/svg" xmlns:xlink="http://www.w3.org/1999/xlink" x="0px" y="0px"
	 viewBox="0 0 127 127" enable-background="new 0 0 127 127" xml:space="preserve">
<g>
	<g>
		<path fill="#FFFFFF" d="M5,90.4c-0.3,0-0.5,0.1-0.8,0.1c-0.3,0-0.5,0-0.8-0.1v7c0,1.4,0.2,2.9,1.3,3.9c0.9,0.8,2.1,1.2,3.8,1.2
			c3.1,0,5.1-1.7,5.1-5.2v-6.9c-0.2,0-0.3,0.1-0.5,0.1c-0.2,0-0.3,0-0.5-0.1v6.5c0,2.8-1,4.8-3.8,4.8c-3,0-3.9-1.6-3.9-4.7V90.4z"/>
		<path fill="#FFFFFF" d="M27.3,90.4c-0.2,0-0.3,0.1-0.5,0.1c-0.2,0-0.3,0-0.5-0.1v9h-0.2l-8.3-9h-0.7v11.9c0.2,0,0.3-0.1,0.5-0.1
			c0.2,0,0.3,0,0.5,0.1V93h0.2l7.5,8.3c0.4,0.4,0.7,0.8,0.9,1.1h0.5V90.4z"/>
		<path fill="#FFFFFF" d="M30.6,102.4c0.2,0,0.5-0.1,0.8-0.1c0.2,0,0.5,0,0.8,0.1V90.4c-0.3,0-0.5,0.1-0.8,0.1c-0.3,0-0.5,0-0.8-0.1
			V102.4z"/>
		<path fill="#FFFFFF" d="M41,98.4c-0.3,0.7-0.6,1.4-1,2.1h-0.2l-2.1-5.3l-1.2-3c-0.2-0.6-0.4-1.2-0.6-1.7c-0.3,0-0.6,0.1-0.9,0.1
			c-0.3,0-0.6,0-0.8-0.1c0.8,1.5,3.3,7.8,5.3,11.9c0.1,0,0.2-0.1,0.4-0.1c0.1,0,0.2,0,0.3,0.1c0.6-1.9,4.5-10.9,5-11.9
			c-0.2,0-0.4,0.1-0.6,0.1c-0.2,0-0.4,0-0.6-0.1l-0.1,0.3l-1,2.9L41,98.4z"/>
		<path fill="#FFFFFF" d="M48.5,91.3h1.3l1.7,0c0.5,0,1,0.1,1.6,0.2c0-0.2-0.1-0.3-0.1-0.5c0-0.2,0-0.3,0.1-0.5H47v11.9h6.3
			c0-0.2-0.1-0.3-0.1-0.5c0-0.2,0-0.3,0.1-0.5c-0.5,0.1-1.1,0.1-1.6,0.2c-1,0-2.1,0.1-3.2,0.1v-5.1h2.7c0.5,0,1,0.1,1.6,0.1
			c0-0.2-0.1-0.3-0.1-0.5c0-0.2,0-0.3,0.1-0.5c-0.5,0-1,0.1-1.6,0.1h-2.7V91.3z"/>
		<path fill="#FFFFFF" d="M55.7,102.4c0.2,0,0.5-0.1,0.8-0.1c0.2,0,0.5,0,0.8,0.1v-5.8h0.7l1.4,1.6l2.1,2.7c0.4,0.5,0.7,1,1.1,1.5
			c0.3,0,0.7-0.1,1-0.1c0.3,0,0.6,0,1,0.1l-0.3-0.4l-0.8-1l-3.6-4.5c1.8-0.3,3.6-1.3,3.6-3.3c0-1.8-1.2-2.7-3.9-2.7h-3.7V102.4z
			 M57.3,91.1c0.7,0,1.9-0.1,2.6,0c1.3,0.2,1.9,1,1.9,2.2c0,1.4-1,2.2-2.2,2.5c-0.9,0.2-2,0.1-2.2,0.1V91.1z"/>
		<path fill="#FFFFFF" d="M65.9,100c-0.1,0.5-0.2,1-0.3,1.6c0.6,0.6,2,1,2.8,1c2.4,0,4.3-1.5,4.3-4c0-3.7-5.5-2.4-5.5-5.6
			c0-1.2,1-2,2.2-2c1,0,1.8,0.6,2.2,1.5h0.2c0.1-0.5,0.3-1,0.5-1.4c-0.6-0.6-1.7-0.8-2.5-0.8c-2.1,0-3.9,1.1-3.9,3.4
			c0,3.9,5.5,2.5,5.5,5.8c0,1.4-1,2.5-2.4,2.5c-1.4,0-2.1-0.7-2.8-1.8H65.9z"/>
		<path fill="#FFFFFF" d="M75.2,102.4c0.2,0,0.5-0.1,0.8-0.1c0.2,0,0.5,0,0.8,0.1V90.4c-0.3,0-0.5,0.1-0.8,0.1c-0.3,0-0.5,0-0.8-0.1
			V102.4z"/>
		<path fill="#FFFFFF" d="M84.1,91.3c1.6,0,2.8,0.1,3.6,0.2c0-0.2-0.1-0.3-0.1-0.5c0-0.2,0-0.3,0.1-0.5h-9c0,0.2,0.1,0.3,0.1,0.5
			c0,0.2,0,0.3-0.1,0.5c1-0.1,2.1-0.2,3.8-0.2v11.1c0.2,0,0.5-0.1,0.8-0.1c0.2,0,0.5,0,0.8,0.1V91.3z"/>
		<path fill="#FFFFFF" d="M94.2,97c0.2-0.5,0.6-1.1,1-1.7l1.9-3.1c0.4-0.6,0.8-1.2,1.2-1.7c-0.2,0-0.5,0.1-0.7,0.1
			c-0.2,0-0.5,0-0.7-0.1c-0.5,0.9-2.7,5.1-3.3,5.8c-0.6-0.8-2.6-4.5-3.3-5.8c-0.3,0-0.7,0.1-1,0.1c-0.3,0-0.7,0-1-0.1l4.3,6.9v5
			c0.2,0,0.5-0.1,0.8-0.1c0.2,0,0.5,0,0.8,0.1V97z"/>
		<path fill="#FFFFFF" d="M110.4,102.6c3.9,0,6.6-2.5,6.6-6.4c0-4.2-3.3-6-6.6-6c-3.6,0-6.5,2.4-6.5,6.2
			C104,100.1,106.6,102.6,110.4,102.6 M115.3,96.3c0.1,1.9-1.2,5.7-4.9,5.7c-2.6,0-4.8-1.8-4.8-5.4c0-3.5,1.8-5.9,4.9-5.9
			c1.4,0,2.8,0.6,3.6,1.7C115.2,93.6,115.3,94.8,115.3,96.3"/>
		<path fill="#FFFFFF" d="M119.3,102.4c0.2,0,0.5-0.1,0.8-0.1c0.2,0,0.5,0,0.8,0.1v-6h2.7c0.5,0,1,0.1,1.5,0.1
			c0-0.2-0.1-0.3-0.1-0.5c0-0.2,0-0.3,0.1-0.5c-0.5,0-1,0.1-1.5,0.1h-2.7v-4.4h1.3l1.7,0c0.5,0,1,0.1,1.6,0.2c0-0.2,0-0.3,0-0.5
			c0-0.2,0-0.3,0-0.5h-6.2V102.4z"/>
		<path fill="#FFFFFF" d="M19.9,123.2c-0.6,0.5-3,2.3-6.1,2.3c-4.6,0-7.7-3.5-7.7-9.1c0-4.9,2.6-9.2,7.9-9.2c3,0,5.1,2,5.5,2.5
			l0.2,0c0.1-0.8,0.3-1.5,0.6-2.2c-1.9-0.8-4.1-1.3-6.2-1.3c-6.1,0-10.9,3.7-10.9,10.2c0,6.3,3.8,10.3,10.1,10.3
			c2.2,0,4.6-0.4,6.4-1.6L19.9,123.2z"/>
		<path fill="#FFFFFF" d="M33.7,117.4h-6.3l3.1-7.4L33.7,117.4z M31.5,106.2h-0.7l-9,20.1c0.3,0,0.6-0.1,1-0.1
			c0.3,0,0.7,0.1,1.1,0.1c0.8-2.7,1.8-5.2,2.9-7.8h7.3c1.2,2.6,2.2,5.4,3,7.8c0.5,0,1-0.1,1.5-0.1c0.5,0,1,0.1,1.5,0.1L31.5,106.2z"
			/>
		<path fill="#FFFFFF" d="M45.7,106.6c-0.5,0-0.9,0.1-1.3,0.1c-0.4,0-0.9-0.1-1.3-0.1v19.6h10.5c0-0.3-0.1-0.6-0.1-0.9
			c0-0.3,0.1-0.5,0.1-0.9c-0.9,0.1-1.8,0.2-2.7,0.3c-1.7,0.1-3.5,0.2-5.2,0.1V106.6z"/>
		<path fill="#FFFFFF" d="M71.1,110.1c0.2-0.8,0.4-1.5,0.7-2.2c-0.6-0.4-3.1-1.7-7.3-1.7c-6.4,0-11.2,3.6-11.2,10.3
			c0,5.9,3.3,10.2,10.6,10.2c2.7,0,5.3-0.5,7.8-1.3v-8.2c-0.5,0-0.9,0.1-1.3,0.1c-0.4,0-0.9-0.1-1.3-0.1v7.4c-1.3,0.7-2.9,1-4.5,1
			c-5.7,0-8.6-3.6-8.6-9.3c0-5.8,3.4-9.1,8.3-9.1c2.4,0,4.9,1,6.5,2.8H71.1z"/>
		<path fill="#FFFFFF" d="M86.3,117.4H80l3.1-7.4L86.3,117.4z M84.1,106.2h-0.7l-9,20.1c0.3,0,0.6-0.1,1-0.1c0.3,0,0.7,0.1,1.1,0.1
			c0.8-2.7,1.8-5.2,2.8-7.8h7.3c1.2,2.6,2.2,5.4,3,7.8c0.5,0,1-0.1,1.5-0.1c0.5,0,1,0.1,1.5,0.1L84.1,106.2z"/>
		<path fill="#FFFFFF" d="M95.1,126.4c0.4,0,0.8-0.1,1.3-0.1c0.4,0,0.8,0.1,1.3,0.1v-9.6h1.1l2.3,2.7l3.4,4.4
			c0.6,0.8,1.2,1.6,1.8,2.5c0.5,0,1.1-0.1,1.6-0.1c0.5,0,1.1,0.1,1.7,0.1l-0.5-0.7l-1.4-1.6l-5.9-7.5c2.9-0.5,5.9-2.1,5.9-5.5
			c0-2.9-2-4.4-6.4-4.4h-6.1V126.4z M97.7,107.7c1.2-0.1,3.2-0.1,4.2,0c2.2,0.3,3.2,1.6,3.2,3.6c0,2.3-1.6,3.7-3.7,4.1
			c-1.5,0.3-3.3,0.2-3.7,0.1V107.7z"/>
		<path fill="#FFFFFF" d="M118.1,117.5c0.4-0.8,1-1.9,1.6-2.9l3.2-5.1c0.6-1,1.3-2,2-2.9c-0.4,0-0.8,0.1-1.1,0.1
			c-0.4,0-0.8-0.1-1.1-0.1c-0.8,1.5-4.5,8.5-5.5,9.7c-0.9-1.4-4.4-7.4-5.5-9.7c-0.6,0-1.1,0.1-1.6,0.1c-0.5,0-1.1-0.1-1.6-0.1
			l7.1,11.4v8.3c0.4,0,0.8-0.1,1.3-0.1c0.4,0,0.8,0.1,1.3,0.1V117.5z"/>
	</g>
	<path fill="#FFFFFF" d="M106.3,43.2l-0.1-0.3l0,0l-0.2-0.2l-0.3-0.2l-0.4-0.2l-0.7-0.2l-0.5-0.2l-0.6-0.2l-0.5-0.2l-0.5-0.2
		l-0.4-0.3l-0.5-0.4l-0.4-0.3l-0.4-0.4l-0.4-0.5l-0.4-0.5l-0.5-0.5L98.9,38l-0.4-0.5l-0.3-0.3l-0.4-0.3l-0.3-0.1l-0.4-0.1l-0.5,0
		l-0.4,0.2l-0.4,0.3l-0.4,0.4L95,37.9l-0.3,0.4l-0.2,0.4l0.1,0.1l-0.1-0.1L94,39.5l-0.4,1.1l-0.3,1.2L93,42.6l-0.1,1.1L92.8,45
		l0,1.2v1.1l0.1,1.1l0.1,0.9l0.2,0.8l0,0.2l0,0.2l-0.3,0.7l-0.6,1.3l-0.6,1l-1,1.7l-0.7,1l-0.8,1l-0.7,1l-0.7,0.9l-0.8,1L86,61.1
		l-0.7,0.8l-1,1l-0.9,0.9l-0.8,0.7l-1,0.8l-1.2,1l-1.3,0.9l-0.8,0.6l-1,0.6l-1,0.6l-1,0.5l-1.1,0.6l-1,0.5l-1.5,0.7l-1.2,0.5
		l-1.2,0.5L68.1,73l-1.2,0.4l-0.9,0.3l-0.6,0.1l-0.3,0.1L65,73.7l-0.6-0.1l-0.9-0.3l-1.2-0.4L61,72.4l-1.2-0.5l-1.2-0.5l-1.5-0.7
		l-1-0.5L55,69.5L54,69l-1-0.6l-1-0.6l-0.8-0.6L50,66.2l-1.2-1l-1-0.8L47,63.7l-0.9-0.9l-1-1l-0.7-0.8l-0.8-0.9l-0.8-1l-0.7-0.9
		l-0.7-1l-0.8-1l-0.7-1l-1-1.7l-0.6-1l-0.6-1.2l-0.3-0.7l0-0.2l0-0.2l0.2-0.7l0.1-0.9l0.1-1.1v-1.1l0-1.2l-0.1-1.2l-0.1-1.1
		l-0.2-0.9l-0.3-1.2l-0.4-1.1L36,38.6l-0.1,0.1l0.1-0.1l-0.2-0.3l-0.3-0.4l-0.3-0.4l-0.4-0.4l-0.4-0.3L34,36.7l-0.5-0.1L33,36.7
		l-0.3,0.1l-0.4,0.3L32,37.5L31.6,38l-0.3,0.4l-0.5,0.5l-0.4,0.5l-0.4,0.5l-0.4,0.4l-0.4,0.3L28.6,41l-0.4,0.3l-0.5,0.2l-0.5,0.3
		l-0.6,0.2l-0.6,0.2l-0.7,0.1l-0.4,0.2l-0.3,0.2l-0.2,0.2l0,0l-0.1,0.3l0,0.5l0,0.5l0.1,0.5l0.2,0.7l0.2,0.7l0.2,0.8l0.1,0.5
		l0.4,1.1l0.4,1.2l0.5,1.4l0.4,1l0.5,1.3l0.4,0.9l0.4,0.8l0.4,0.8l0.4,0.8l0.5,1l0.2,0.4l0,0.7v0.7v1.1l0,1l0,0.4l0.1,0.6l0.2,0.7
		l0.2,0.8l0.3,0.8l0.2,0.5l0.4,0.8l0.4,0.6l0.4,0.5l0.5,0.6l0.6,0.6l0.6,0.5l0.6,0.3l0.6,0.3l0.6,0.2l0.5,0.1h1.9l-0.6-0.3l-0.3-0.1
		l-0.4-0.2L36,68.9l-0.4-0.4l-0.4-0.4l-0.4-0.5L34.5,67l-0.2-0.5L34,65.8l-0.1-0.6l0-0.4l1.4,1.8l1.1,1.2l1.3,1.5l1.3,1.3l1.3,1.3
		l1.3,1.2l1.4,1.1l1.3,1l1.4,1.1l1.4,0.9l1.5,0.9l1.3,0.8l1.5,0.8l1.6,0.8l1.8,0.8l2.1,0.9l1.7,0.5l1.7,0.5l2.3,0.8l1.3,0.3l1.3,0.2
		v0.1l0.2,0l0.2,0v-0.1l1.3-0.2l1.3-0.3l2.3-0.8l1.7-0.5l1.7-0.5l2.1-0.9l1.8-0.8l1.6-0.8l1.5-0.8l1.3-0.8l1.5-0.9l1.4-0.9l1.4-1.1
		l1.3-1l1.3-1.1l1.3-1.2l1.3-1.3l1.3-1.3l1.3-1.5l1.1-1.2l1.4-1.8l0,0.5l-0.1,0.6l-0.3,0.7L96,67l-0.4,0.6l-0.4,0.5l-0.4,0.4
		l-0.4,0.4L94,69.2l-0.4,0.2l-0.3,0.1l-0.1,0.1l-0.5,0.3h1.9l0.5-0.1l0.6-0.2l0.6-0.3L97,69l0.6-0.4l0.6-0.6l0.5-0.6l0.4-0.5
		l0.4-0.6l0.4-0.8l0.2-0.5l0.3-0.8l0.2-0.8l0.2-0.7l0.1-0.6l0-0.4l0-1v-1.1v-0.7l0-0.7l0.2-0.5l0.5-1l0.4-0.8l0.4-0.8l0.4-0.8
		l0.4-0.9l0.5-1.3l0.4-1l0.5-1.4l0.4-1.2l0.4-1.1l0.1-0.5l0.2-0.8l0.2-0.6l0.2-0.7l0.1-0.6l0-0.5L106.3,43.2z M93.4,46v-0.7l0.1-0.8
		l0.1-0.7l0.1-0.7l0.1-0.6l0.2-0.7l0.2-0.8l0.2-0.6l0.3-0.6l0.3-0.6l0.3-0.6l0.4-0.5l0.2-0.3l0.2-0.1l0.1-0.1l0.2-0.1l0.2,0l0.1,0
		l0.1,0.1l0,0.2l0,0.2l0,0.3l0,0.3l0,0.4l0,0.3l-0.1,0.6l-0.1,0.6l-0.1,0.7l-0.2,0.8l-0.2,0.9l-0.2,0.8l-0.3,0.9l-0.3,0.9l-0.3,1
		l-0.4,0.9l-0.2,0.6l-0.5,1.1l-0.3,0.7l-0.1-0.2l0-0.2l0-0.2l0-0.4v-0.4l0-0.6l0-0.5l0-0.7L93.4,46z M33.6,37.7l0-0.2l0.1-0.1l0.1,0
		l0.2,0l0.2,0.1l0.1,0.1l0.2,0.1l0.2,0.3l0.4,0.5l0.3,0.6l0.3,0.6l0.3,0.6l0.2,0.6l0.2,0.8l0.2,0.7l0.1,0.6l0.1,0.7l0.1,0.7l0.1,0.8
		V46l0,0.6l0,0.7l0,0.5l0,0.6v0.4l0,0.4l0,0.2l0,0.2l-0.1,0.2l-0.3-0.7l-0.5-1.1l-0.2-0.6l-0.4-0.9l-0.3-1l-0.3-0.9l-0.3-0.9
		l-0.2-0.8l-0.2-0.9L34,41.1l-0.1-0.7l-0.1-0.6l-0.1-0.6l0-0.3l0-0.4l0-0.3l0-0.3L33.6,37.7z M34,67.4l0.3,0.4l0.3,0.4l0.4,0.4
		l0.2,0.3l0.1,0.1l0.1,0.1l0,0.1l0,0l-0.1,0l-0.1,0l-0.7-0.3l-0.6-0.4l-0.7-0.5l-0.6-0.7l-0.5-0.6l-0.4-0.5l-0.4-0.8l-0.4-0.9
		l-0.4-1l-0.2-0.8l-0.1-0.7l-0.1-0.6l0-0.9l0-0.5v-0.2l0-0.2l0-0.2l0-0.1l0.1,0l0.1,0.1l0.1,0.1l0.1,0.2l0.1,0.1l2.5,3.7l0.2,0.4
		l-0.1,0.5l-0.1,0.6l0,0.6l0.1,0.6l0.2,0.5l0.2,0.5L34,67.4z M100.4,60.3l0,0.9l-0.1,0.6l-0.1,0.7l-0.2,0.8l-0.4,1l-0.4,0.9
		l-0.4,0.8l-0.4,0.5l-0.5,0.6l-0.6,0.7l-0.7,0.5L96,68.8l-0.7,0.3l-0.1,0l-0.1,0l0,0l0-0.1l0.1-0.1l0.1-0.1l0.2-0.3l0.4-0.4l0.3-0.4
		l0.3-0.4l0.3-0.5l0.2-0.5l0.2-0.5l0.1-0.6l0-0.6l-0.1-0.6l-0.1-0.5l0.2-0.4l2.5-3.7l0.1-0.1l0.1-0.2l0.1-0.1l0.1-0.1l0.1,0l0,0.1
		l0,0.2l0,0.2v0.2L100.4,60.3z M105.6,43.6v0.2v0.4l-0.1,0.6l-0.2,0.7l-0.2,0.7l-0.2,0.7l-0.4,1.2l-0.5,1.2l-0.4,1.2l-0.4,1.2
		l-0.3,1l-0.5,1l-0.5,1l-0.4,0.8l-0.4,0.9l-0.5,0.9l-0.6,1l-0.5,0.9l-0.6,0.9l-0.6,1l-0.7,1.1L97.1,63l-0.6,0.8l-0.6,0.8l-0.6,0.8
		l-0.6,0.7L94,66.9l-0.8,0.8l-0.8,0.9l-0.7,0.8l-0.8,0.8L90,71l-0.7,0.7l-0.8,0.7l-0.7,0.6L87,73.7l-1,0.8l-0.8,0.6l-1,0.7L83,76.5
		l-1.2,0.8l-0.9,0.6l-1.1,0.6L78.7,79l-1,0.5L76.8,80l-0.9,0.4L75,80.8l-1,0.4l-1,0.4l-1,0.3l-0.8,0.3l-0.9,0.3l-0.9,0.3L68.7,83
		l-0.9,0.2l-0.8,0.2l-0.8,0.2l-0.7,0.1l-0.4,0h0h0l-0.4,0l-0.7-0.1l-0.8-0.2l-0.8-0.2L61.8,83L61,82.7L60,82.4l-0.9-0.3l-0.8-0.3
		l-1-0.3l-1-0.4l-1-0.4l-0.9-0.4L53.7,80l-0.9-0.4l-1-0.5l-1.1-0.6l-1.1-0.6l-0.9-0.6l-1.2-0.8l-1.1-0.7l-1-0.7l-0.8-0.6l-1-0.8
		l-0.9-0.7l-0.7-0.6l-0.8-0.7L40.5,71l-0.8-0.7l-0.8-0.8l-0.7-0.8l-0.8-0.9l-0.8-0.8l-0.7-0.8l-0.6-0.7l-0.6-0.8L34,63.8L33.4,63
		l-0.5-0.8l-0.7-1.1l-0.6-1l-0.6-0.9l-0.5-0.9l-0.6-1l-0.5-0.9l-0.4-0.9l-0.4-0.8l-0.5-1l-0.5-1l-0.3-1l-0.4-1.2l-0.4-1.2L25.9,48
		l-0.4-1.2l-0.2-0.7l-0.2-0.7L25,44.7l-0.1-0.6v-0.4v-0.2v-0.2l0.1-0.2l0.1-0.1l0.2-0.1l0.8-0.3l0.8-0.3l0.8-0.3l0.7-0.2l0.5-0.3
		l0.5-0.3l0.6-0.5l0.6-0.6l0.5-0.5l0.5-0.6l0.4-0.5l0.3-0.4l0.3-0.3l0.2-0.2l0.1-0.1l0.1,0l0.1,0.1l0,0.1l0,0.4l0,0.4l0,0.6l0,0.3
		v0.2l0.1,0.5l0.2,0.9l0.2,0.8l0.2,1l0.3,1l0.2,0.9l0.4,1.1l0.4,1.1l0.4,1l0.4,1l0.4,0.8l0.5,1.1l0.5,1l0.6,1.3l0.6,1l0.5,0.9
		l0.6,0.9l0.5,0.8l0.7,1l0.5,0.7l0.7,0.9l0.5,0.7l0.7,0.8l0.7,0.7l0.6,0.7l0.7,0.7l0.6,0.6l0.7,0.6l0.6,0.6l0.9,0.7l0.7,0.6l1,0.7
		l0.9,0.6l1,0.7l1,0.7l1,0.6l0.9,0.5l1,0.5l1,0.5l0.9,0.5l1.1,0.5l1.1,0.5l1,0.4l1,0.4l1.1,0.4l0.9,0.3l0.8,0.3l0.6,0.1l0.3,0l0.3,0
		l0.6-0.1l0.8-0.3l0.9-0.3l1.1-0.4l1-0.4l1-0.4l1.1-0.5l1.1-0.5l0.9-0.5l1-0.5l1-0.5l0.9-0.5l1-0.6l1-0.7l1-0.7l0.9-0.6l1-0.7
		l0.7-0.6l0.9-0.7l0.6-0.6l0.7-0.6l0.6-0.6l0.6-0.7l0.6-0.7l0.7-0.7l0.7-0.8l0.5-0.7l0.7-0.9l0.5-0.7l0.7-1l0.5-0.8l0.6-0.9l0.5-0.9
		l0.6-1l0.6-1.3l0.5-1l0.5-1.1l0.4-0.8l0.4-1l0.4-1l0.4-1.1l0.4-1.1l0.2-0.9l0.3-1l0.2-1l0.2-0.8l0.2-0.9l0.1-0.5v-0.2l0-0.3l0-0.6
		l0-0.4l0-0.4l0-0.1l0.1-0.1l0.1,0l0.1,0.1l0.2,0.2l0.3,0.3l0.3,0.4l0.4,0.5l0.5,0.6l0.5,0.5l0.6,0.6l0.6,0.5l0.5,0.3l0.5,0.3
		l0.7,0.2l0.8,0.3l0.8,0.3l0.8,0.3l0.2,0.1l0.1,0.1l0.1,0.2V43.6z"/>
	<g>
		<path fill="#FFFFFF" d="M92.3,33.1V35l-0.1,1l-0.1,0.8L92,37.7l-0.2,1.1l-0.2,0.9l-0.3,1.1L91,41.6l-0.3,1l-0.3,0.9l-0.3,0.8
			l-0.3,0.8l-0.3,0.8l-0.4,0.9l-0.4,0.9l-0.5,1L88,49.5l-0.4,0.7L87.2,51l-0.4,0.7l-0.5,0.8l-0.6,0.9l-0.6,0.9l-0.6,0.8l-0.5,0.7
			l-0.6,0.8L83.1,57l-0.5,0.6l-0.6,0.7l-0.5,0.5l-0.5,0.5L80.2,60l-1,0.9L78,61.9L76.7,63l-1,0.7l-1.2,0.8l-1.2,0.7l-1.1,0.6
			L71,66.5l-1.3,0.6l-1.4,0.6l-1,0.4l-1.2,0.5L65.4,69l-0.8-0.2l-1.2-0.5l-1-0.4L61,67.1l-1.3-0.6l-1.2-0.6l-1.1-0.6l-1.2-0.7
			l-1.2-0.8L54,63l-1.4-1.1l-1.1-0.9l-1-0.9l-0.7-0.6l-0.5-0.5l-0.5-0.5l-0.6-0.7L47.7,57l-0.4-0.5l-0.6-0.8l-0.5-0.7l-0.6-0.8
			l-0.6-0.9l-0.6-0.9l-0.5-0.8L43.5,51l-0.4-0.8l-0.4-0.7l-0.3-0.7l-0.5-1l-0.4-0.9l-0.4-0.9l-0.3-0.8l-0.3-0.8l-0.3-0.8L40,42.6
			l-0.3-1l-0.2-0.9l-0.3-1.1L39,38.7l-0.2-1.1l-0.1-0.9l-0.1-0.8l-0.1-1l-0.1-2.8l0-1.5h0l0-5.9l0.7-0.5l1-0.6l1.2-0.6l1.4-0.8
			l1.6-0.8l1.5-0.6l1.7-0.6l2.3-0.7l1.9-0.5l1.8-0.4l1.9-0.3l2.1-0.3l2-0.3l1.7-0.1l1.9-0.1l1.8,0l2.2,0l2.1,0.1l2.4,0.2l3,0.4
			l2.4,0.4l2.1,0.5l2.4,0.6l2,0.6l2.1,0.8l1.8,0.8l1.9,1l2.1,1.3l0.7,0.5v5.8h0V33.1z M92.3,0.7V24l-1.1-0.8l-1.4-0.8l-1.6-0.8
			l-1.7-0.8l-1.9-0.7l-1.9-0.7l-2.5-0.7l-3-0.7l-3.3-0.5l-3.3-0.4L67.6,17l-2.9,0l-2.3,0.1l-2.2,0.2l-2.6,0.3l-2.6,0.3L53,18.3
			L51,18.7l-2,0.5l-1.8,0.5l-2.9,1.1l-2.2,1l-1.8,0.9l-1.9,1l0-23.2H92.3z M37.6-0.2L37.6-0.2l0,30.8v0.3v0.9l0,1.3l0,1.1l0.1,1.1
			l0.1,1.2l0.3,1.6l0.3,1.6l0.4,1.7l0.3,1.1l0.5,1.4l0.6,1.9l0.8,1.9l0.7,1.6l0.8,1.5l0.9,1.6l1.1,1.7l0.8,1.2l0.8,1.1l1,1.2
			l1.3,1.6l1.6,1.5l1.3,1.1l0.9,0.8l1.3,1l1.4,1l1.4,0.9l1.2,0.7l1.5,0.8l1.4,0.7l1.5,0.7l1.8,0.8l1.6,0.7c0,0,0,0,0,0
			c0,0,0,0,0.1,0h0c0,0,0,0,0,0c0,0,0,0,0.1,0c0,0,0,0,0,0l1.6-0.7l1.8-0.8l1.5-0.7l1.4-0.7l1.5-0.8l1.2-0.7l1.4-0.9l1.4-1l1.3-1
			l0.9-0.8l1.3-1.1l1.6-1.5l1.3-1.6l1-1.2l0.8-1.1l0.8-1.2l1.1-1.7l0.9-1.6l0.8-1.6l0.7-1.6l0.8-1.9l0.6-1.9l0.5-1.4l0.3-1.1
			l0.4-1.7l0.3-1.6l0.3-1.6l0.1-1.2l0.1-1.1l0-1.1l0-1.3v-0.9v-0.3v-0.4V-0.2H37.6z"/>
	</g>
	<path fill="#FFFFFF" d="M27,45.7l0.3,0l0.2,0.1l0.2,0.1l0.2,0.1l0.1,0.1l0.1,0.1l0.1,0l0.1,0h0.2l0.2-0.1l0.4-0.1l0.4-0.1l0.4-0.2
		l0.4-0.1l0.4-0.1l0.3-0.1l0.2-0.1l0.2-0.1l0.2,0l0.2,0l0.2,0h0.1l0-0.1l-0.1,0L31.9,45l-0.1-0.1l-0.1-0.2l0-0.2l0-0.2l0-0.1
		L31.5,44l0-0.1v0l0.1,0l0.1,0l0.3,0l0.2,0.1l0.2,0.1l0.1,0.2l0.1,0.3l0.1,0.2l0.1,0.3l0.1,0.2l0,0.2l0.1,0.2l0,0.1l0,0.1v0.1
		l-0.4,0.3l-0.4,0.3l-0.6,0.5l-0.5,0.4l-0.6,0.5l-0.4,0.3l-0.3,0.2l-0.1,0.1l0,0.1l0.1,0l0.3,0l0.4,0l0.4,0l0.5,0l0.6,0l0.4,0l0.6,0
		l0.4,0l0.5,0l0.2,0l0.1,0.1l0.1,0.1l0.1,0.2l0.1,0.3l0,0.2l0.1,0.3l0.1,0.2l0.1,0.2l0.1,0.1l0,0.1l0,0.1l-0.1,0l-0.2,0l-0.2,0
		L34,50.5l-0.2-0.1l-0.1-0.2l-0.1-0.1l0-0.1l0-0.1l-0.1,0L33.3,50l-0.4,0.2l-0.4,0.1l-0.6,0.2l-0.4,0.2l-0.4,0.2l-0.3,0.1L30.5,51
		l-0.2,0l-0.2,0L30,50.9l-0.1-0.1l-0.1-0.1l-0.1,0l0,0l0.1,0.1l0.1,0.1l0.1,0.2l0.1,0.2l0,0.2l0.1,0.1l0.1,0.1l0.1,0.1l-0.1,0
		l-0.1,0l-0.2,0l-0.2,0l-0.2-0.1l-0.2-0.2L29,51.3l-0.1-0.3l-0.1-0.3l-0.1-0.3l-0.1-0.2L28.6,50l-0.1-0.1l-0.1-0.1v0h0.2l0.2,0
		l0.3,0.1l0.2,0.1l0.1,0.1l0.1,0.1l0.1,0l0.2,0l0.3-0.1l0.5-0.1l0.5-0.2l0.5-0.2l0.4-0.1l0.3-0.1l0.3-0.1l0.2-0.1l0.2,0l0.2,0h0.1
		l0,0l0,0l-0.1-0.1l-0.3,0l-0.7,0l-0.6,0l-0.6,0l-0.7,0l-0.7-0.1L29,48.9l-0.5,0l-0.3-0.1l-0.1,0l0-0.1l0.6-0.4l3.3-2.7l0,0v0
		l-0.1,0l-0.2,0.1l-2.8,1l-0.1,0.1l-0.2,0l-0.1,0l-0.1,0l-0.1-0.1l-0.1,0l-0.1,0l0,0.2l0,0.2l0,0.2l0.1,0.2l0.1,0.1l0.1,0.1l0,0.1
		v0.1l-0.1,0l-0.2,0L28,47.5l-0.3-0.1l-0.1-0.1l-0.1-0.2l-0.1-0.2l-0.1-0.2v-0.2l0-0.2l0-0.1L27.2,46l-0.1-0.1L27,45.8L27,45.7
		L27,45.7z M35.2,53.5l0-0.3L35,52.8l-0.2-0.2l-0.3-0.2l-0.3-0.1h-0.4l-0.4,0l-0.4,0.1l-0.4,0.2l-0.3,0.2L32.2,53l-0.3,0.3l-0.3,0.4
		l-0.1,0.5v0.5l0.2,0.6l0.2,0.3l0.4,0.3l0.4,0.2l0.7,0l0.7-0.3l0.4-0.4l0.3-0.6l0.2-0.5l0.1-0.6L35.2,53.5z M36.1,53.6l0,0.5
		L36,54.5L35.8,55l-0.2,0.4l-0.3,0.4l-0.4,0.4l-0.5,0.3L34,56.7l-0.6,0h-0.5l-0.4-0.1l-0.5-0.2L31.4,56L31,55.6l-0.3-0.4l-0.2-0.5
		l0-0.4l0-0.3l0.1-0.3l0.1-0.4l0.2-0.4l0.3-0.3l0.4-0.3l0.4-0.2l0.4-0.1l0.4-0.1h0.6l0.5,0l0.5,0l0.5,0.1l0.5,0.2l0.4,0.3l0.2,0.4
		l0.1,0.3L36.1,53.6z M35.4,58.7l0,0.1l0.3,0.6l0,0.1l0.1,0l0.4-0.6l0-0.1l0-0.1l-0.1-0.3l-0.1-0.2l0-0.2L36,58L35.4,58.7z
		 M40.2,63.1l0.4-0.1l0.4,0l0.3,0l0-0.5l0-0.4l-0.1-0.3L41,61.5l-0.2-0.3l-0.3-0.3l-0.3-0.3l-0.4-0.1l-0.3-0.1l-0.3,0l-0.4,0.1
		l-0.3,0.1l-0.3,0.2L38,60.9l-0.2,0.2l0,0.3l0,0.3l0,0.3l0.1,0.4l0.1,0.3l0.1,0.4l0.1,0.4l0.1,0.4v0.3l0,0.2l-0.1,0.2L38,64.8
		l-0.2,0.1l-0.3,0l-0.3-0.1l-0.3-0.2l-0.3-0.3L36.5,64l-0.1-0.3l0-0.3v-0.3l0-0.2l0.1-0.3l0.1-0.3l0.1-0.2l0.1-0.1L37,62v-0.1
		l-1.4,0.2l-0.1,0.1l0,0.1l0,0.9l0.1,0.3l0.1,0.4l0.2,0.3l0.2,0.3l0.3,0.3l0.3,0.2l0.3,0.2l0.3,0.1l0.2,0.1l0.3,0l0.3,0l0.3-0.1
		l0.2-0.1l0.3-0.1l0.3-0.2l0.1-0.3l0.1-0.3l0-0.2v-0.3l-0.1-0.3l-0.1-0.3l-0.1-0.3L39,62.5l-0.1-0.3l-0.1-0.3l0-0.3v-0.2l0-0.2
		l0.1-0.2l0.1-0.1l0.1,0l0.2,0h0.2l0.2,0l0.2,0.1l0.2,0.2l0.2,0.3l0.1,0.3l0,0.3v0.3l0,0.3l0,0.2L40.2,63.1z M42.1,64.8L41.7,65
		l-0.4,0.3l-0.5,0.4l-0.5,0.5L40,66.6l-0.3,0.2l-0.1,0.1L39.5,67l-0.2,0L39,66.9l-0.1-0.1l-0.2,0l-0.2,0.1l-0.2,0L38.1,67l0,0.1
		l0.2,0l0.2,0.2l0.3,0.3l0.3,0.4l0.2,0.3l0.2,0.1l0.3,0l0.3,0l0.3-0.1l0.1-0.1l-0.1-0.1L40.2,68L40,67.8l-0.2-0.2l-0.2-0.2l-0.1-0.1
		l0.3,0l0.2,0l0.3,0l0.3-0.2l0.3-0.2l0.2-0.2l0.2-0.2l0.1-0.1h0.1l1.8,1.8l0,0.1l-0.1,0.1l-1,1l-0.2,0.1l-0.2,0l-0.2-0.1l-0.2,0
		l-0.2,0l-0.3,0.1l-0.1,0l-0.2,0l-0.1,0.1l0.1,0.1l0.2,0l1.1,1.2l0.4,0l0.3,0l0.4-0.1l0-0.1l0-0.1l-0.1,0L42.1,70l0.1,0l0.3,0
		l0.4-0.1l0.1-0.1l2.3-2.3l0.1,0l0.1,0.1l0.2,0.2l0.1,0l0.7-0.2l-1.2-1.3l-0.9,0.1l0,0.1l0.5,0.5l0,0.1l-0.2,0l-0.2,0.1l-0.7,0.7
		h-0.1l-1.7-1.6l-0.1-0.1l-0.2,0h-0.1l0-0.1l1.2-1l0.1,0l0.1,0l0.2,0.2l1-0.1l-1.3-1.4l-1,0l0,0.1l0.1,0.1l0.5,0.6l0,0.1l0,0.1
		l-0.1,0l-0.2,0L42.1,64.8L42.1,64.8z M46.6,68.5l1,0.9l0,0.1l0,0.1h-0.2l-0.3,0.1l-0.4,0.2L46.2,70l-0.5,0.2l-0.4,0.2l-0.3,0.2
		l-0.3,0.3l-0.2,0.2l-0.1,0.3l-0.1,0.2l0,0.3l0,0.2l0,0.2l0.1,0.3l0.1,0.3l0.2,0.3l0.2,0.2l0.2,0.2l0.3,0.2l0.3,0.1l0.3,0l0.3,0
		l0.3-0.1l0.3-0.1l0.3-0.1l0.1-0.1l0.1-0.1l0.1,0l0,0.1l0,0.1l-0.1,0.2L47.2,74l-0.1,0.2l0,0.2l0,0.2l0.1,0.2l0.1,0.2l0.1,0.2l0.2,0
		l0.6-0.3l0.1-0.1l-0.1,0l-0.1-0.1l-0.1-0.2l0-0.1l0-0.2l0.3-0.5l0.7-1l0.5-0.7l0.3-0.4l0.3-0.3l0.2-0.2l0.2-0.1l0.2-0.1l0-0.1
		l-0.1-0.1L50,69.9l-0.1-0.1l-0.1,0l-0.2,0l-0.8,0.3l0.8,0.6l0.1,0.1l0.1,0.1l0,0.1l-0.2,0.1l-0.4,0.3l-0.5,0.7l-0.4,0.6L48,72.8
		l-0.3,0.2l-0.4,0.2l-0.5,0.2l-0.2,0.1l-0.2,0L46,73.2L45.7,73l-0.2-0.2l-0.1-0.3l-0.1-0.3v-0.3l0.1-0.4l0.2-0.3l0.2-0.2l0.3-0.2
		l0.4-0.2l0.5-0.3l0.6-0.3l0.5-0.2l0.4-0.1l0.5-0.2l0.2-0.1l0-0.1l-0.1-0.1l-0.2-0.1L48,68.5l-0.2-0.2l-0.1-0.1l-0.2,0l-0.2,0
		L47,68.3l-0.2,0.1L46.6,68.5z M48.7,68.1l-0.2,0l-0.1,0.1l0.2,0l0.2,0.1l1.2,1.3l0.1,0.1l0.1,0l0.1,0h0.6l0.1,0l0-0.1l0-0.1
		l-0.2-0.1l-0.2-0.1l-0.1-0.1l-0.8-1l-0.1-0.1l-0.1-0.1l-0.2-0.1l-0.2,0H48.7z M51.7,72.8l-1.6,2.5l-0.1,0.2L50,75.7l-0.1,0l-0.2,0
		l-0.2,0l-0.2,0L49,75.7l-0.2,0.1L48.6,76l0,0.1l0.5,0.2l0.5,0.3l0.3,0.3l0.1,0.1l0.2,0h0.2l0.2-0.1l0.3-0.2l0.2-0.1l0.1-0.1l0-0.1
		H51l-0.8-0.5L50.2,76l-0.1-0.1l0.1,0l0.3-0.1l0.3-0.1l0.1-0.1l1.6-2.6l0-0.1l0.1-0.1l0.1,0l0.1,0.1l0,0.1l0.1,0.1l0.1,0l0.1,0
		l0.1-0.1l0.6-0.3l0.1-0.1l0-0.1l-0.1,0l-0.1,0l-0.1,0l-1.1-0.8l-0.1-0.1l-0.1,0l-0.1,0l-0.1,0l-0.6,0.3l-0.1,0l0,0.1l0.1,0l0.1,0.1
		l0.4,0.3l0.1,0v0.1l-0.1,0.1L52,72.7l-0.1,0.1L51.7,72.8L51.7,72.8z M54.4,74.5L53.1,77L53,77.2l-0.1,0.1l-0.1,0l-0.1,0l-0.1,0
		l-0.1,0l-0.2,0l-0.1,0.1L52,77.4l-0.1,0.1l-0.1,0.1l-0.1,0l-0.1,0l0.1,0h0.1l0.2,0.1l1,0.6l0.8,0.5l0.6,0.3l0.2,0.1l0.2,0.1
		l0.2,0.1h0.2l0.2,0l0.3-0.1l0.4-0.3l0.7-0.6l0.1-0.1l0.1-0.2l0.1-0.1l0.1-0.1l0-0.2v-0.2l-0.1-0.2L57,77.2l-0.1-0.1L56.7,77
		l-0.3-0.1l-0.3,0L56,77l-0.2,0.1l-0.1,0.1l-0.1,0.1l-0.1,0.1l0,0l0.4,0l0.1,0l0.1,0.1l0.1,0.1l0.1,0.2l0,0.2v0.2l-0.1,0.1l-0.1,0.1
		L56,78.8l-0.1,0h-0.2l-0.1,0l-0.1,0l-0.9-0.5L54,77.9l-0.1-0.1l-0.3-0.1l-0.2-0.1l-0.2-0.1l0-0.1l0,0l0.1,0h0.1l0.1-0.1l0.2-0.1
		l0.5-0.8l0.7-1.4l0.2-0.4l0.2-0.4l0.1-0.2l0.1-0.1l0.1,0l0.1,0.1v0.1v0.1l0,0.2l0.1,0.2l0.2,0.2l0.1,0.1l0.1,0l0.1-0.1l0.7-0.4
		v-0.1l-0.1,0l-0.3-0.1l-0.2-0.1l-0.2-0.2l-0.1-0.3L56,73.8l0-0.2v-0.2v-0.1l-0.1,0l0,0.1l-0.2,0.1l-0.4,0.1l-0.2,0.1L55,73.8
		l-0.2,0.1l-0.1,0.1l-0.2,0.2L54.4,74.5z M59.1,76.7l-0.5,1.1l-0.4,1L58,79.4l-0.1,0.2l-0.1,0.1l-0.1,0l-0.2,0h-0.2l-0.2,0l-0.1,0
		l-0.1,0.1L56.7,80l-0.1,0.1l0,0h0.1l0.3,0.1l0.5,0.2l0.8,0.4l0.6,0.3l0.4,0.2l0.3,0.1l0.2,0.1l0.2,0l0.2,0l0.2-0.1l0.2-0.2l0.2-0.2
		l0.1-0.1l0.1,0l0-0.1h-0.1l-0.1,0l-0.2-0.1l-0.3-0.1l-0.4-0.2l-0.3-0.2l-0.4-0.2L58.8,80L58.6,80l-0.2,0l-0.2,0l0,0l0-0.1l0.1,0
		l0.1,0l0.3-0.2l0.2-0.4l0.2-0.5l0.1-0.2l0-0.1l0.1-0.1l0.1,0l0.1,0l0.1,0.1l0.9,0.5l0.1,0.1l0.1,0l0.2,0l0.2-0.1l0.2-0.1l0.1-0.1
		l0.1-0.1l0.1,0v-0.1l-0.1,0l-0.1,0l-0.1-0.1L61,78.3l-0.3-0.2L60.5,78l-0.2-0.1l-0.1,0l-0.2,0l-0.2,0l-0.1,0l-0.1,0l0,0l0,0l0,0
		l0-0.1l0.4-0.9l0.1-0.2l0-0.1l0.1-0.1l0.1-0.1l0.1,0l0.1,0.1l0.6,0.3l0.3,0.2l0.3,0.1l0.1,0.1l0.1,0l0.1,0l0.1,0l0.1-0.1l0.2-0.1
		l0.1-0.1l0.1-0.1l0.1-0.1l0.1-0.1l0-0.1l-0.1,0l-0.1,0l-0.1,0l-0.7-0.3l-0.9-0.4l-0.6-0.3l-0.3-0.2l-0.1,0l-0.1,0l-0.2,0l-0.1,0
		L59,75.3l-0.2,0.2l-0.2,0.1l-0.1,0.1l-0.1,0.1l0.1,0h0.1l0.1,0l0.1,0l0.5,0.2l0.1,0.1l0,0.1l0,0.1l-0.1,0.1l-0.1,0l-0.1,0.1
		l-0.1,0.1L59.1,76.7z M64.7,79.6l-0.2,0l-0.1,0.1l0.5,0.7l0.1,0.1l0.7-0.1l0.1,0l0-0.1l-0.5-0.6l-0.1-0.1l-0.1-0.1l-0.3,0
		L64.7,79.6z M67.5,77.8l0.9,2.4l0.1,0.2l0,0.2v0.1l0,0.1l-0.1,0.2l-0.2,0.2l-0.1,0.2l0,0.2l0,0.2v0.2v0.1l0,0l0.1-0.1l0.2-0.1
		l0.6-0.2l0.5-0.1l0.3-0.1l0.2-0.1L70,81l0.1-0.2l0-0.3l0-0.2v-0.2H70l0,0.1l-0.1,0l-0.2,0.1l-0.1,0l-0.2,0.1l-0.2,0.1l-0.1,0.1
		l-0.1,0l-0.1,0v-0.1l0-0.1l0.1-0.2l0.1-0.2l0-0.2l0-0.2l-0.1-0.3l-0.9-2.4L68.1,77l-0.1-0.1v-0.1l0-0.1l0.1,0l0.6-0.2l0.6-0.3
		l0.2-0.2l0.1-0.2l0.1-0.2l0-0.2l0-0.2v-0.1l-0.1,0l0,0.1l-0.1,0.1l-0.3,0.1l-0.6,0.2l-0.7,0.2l-0.9,0.3l-0.4,0.1l-0.2,0.1l-0.2,0.1
		l-0.1,0.1l-0.1,0.1l-0.1,0.2l0,0.2v0.3l0,0.2l0,0.1h0l0-0.1l0.3-0.1l0.8-0.3l0.3-0.1l0.1-0.1h0.1l0,0.1l0,0.1l0,0.1v0.2l0,0.1
		L67.5,77.8z M74.7,77l-0.3-0.6L74,75.9l-0.6-0.3l-0.5-0.2l-0.6-0.1l-0.4,0l-0.3,0l-0.3,0.1l-0.2,0.2L70.9,76l-0.1,0.3v0.4l0,0.4
		l0.1,0.4l0.2,0.4l0.2,0.3l0.1,0.1l0.3,0.3l0.4,0.3l0.5,0.1h0.5l0.6-0.2l0.3-0.2l0.3-0.4l0.2-0.4L74.7,77z M75.2,77.1v0.5L75,78
		l-0.2,0.5l-0.4,0.5l-0.4,0.4l-0.4,0.3l-0.5,0.2l-0.4,0.1l-0.3,0l-0.3-0.1l-0.4-0.1l-0.4-0.2L71,79.2l-0.3-0.4l-0.2-0.4L70.4,78
		l-0.1-0.4V77l0-0.5l0-0.5l0.1-0.5l0.2-0.5l0.3-0.4l0.4-0.2l0.3-0.1l0.4-0.1l0.5,0l0.3,0.1l0.5,0.2l0.4,0.2l0.4,0.3l0.4,0.4L75,76
		l0.1,0.5L75.2,77.1z M78.1,71l-0.2,0.2l-0.3,0.2l-0.3,0.1l-0.4,0.2l-0.3,0.1l-0.3,0.1l-0.2,0.2l-0.2,0.2l-0.2,0.2l-0.1,0.2L75.5,73
		l-0.1,0.3l-0.1,0.3l0,0.5l0,0.4l0,0.3l0.1,0.4l0.1,0.3l0.1,0.3l0.2,0.4l0.2,0.3l0.3,0.3l0.3,0.2L77,77l0.4,0.1l0.3,0.1l0.4,0l0.4,0
		l0.4-0.1l0.3-0.1l0.3-0.2l0.3-0.3l0.2-0.3l0.1-0.3l0.1-0.3l0-0.2l0-0.1l0-0.1l0.1,0l0.1,0.1l0.1,0.2l0.2,0.2l0.2,0.1l0.2,0h0.2
		l0.1,0l0.1-0.1l0-0.1l0-0.9l0,0l-0.1,0l-0.1,0.1l-0.1,0.1l-0.1,0h-0.1l-0.1,0l-0.2-0.1l-0.3-0.3L80.1,74L80,73.8l-0.1-0.2l-0.1-0.2
		l0-0.3l0-0.2v-0.2v-0.1l-0.1,0l-0.1,0l0,0.1l-0.1,0.1l-0.2,0.1l-0.5,0.3l-0.4,0.2l-0.3,0.1L78,73.5l-0.3,0.2l-0.1,0.2L77.5,74
		l0,0.3l0,0.4l0,0.2l0.1,0l0-0.1l0.1-0.1l0.5-0.2l0.7-0.3l0.2-0.1l0.1-0.1l0.1,0l0.1,0.1l0.1,0.3l0.1,0.2l0,0.2v0.2l-0.1,0.3
		l-0.2,0.3l-0.2,0.3l-0.4,0.2l-0.3,0.1l-0.4,0l-0.4,0L77.4,76L77,75.8l-0.3-0.2l-0.2-0.2l-0.2-0.2l-0.2-0.3L76,74.7L76,74.4l0-0.2
		l0-0.2v-0.2l0.1-0.3l0.2-0.3l0.3-0.3l0.4-0.2l0.3-0.2l0.3-0.2l0.2-0.1l0.2-0.1l0.1-0.1l0.1-0.1l0.1-0.1v-0.4l0-0.2L78.1,71L78.1,71
		L78.1,71z M83.3,71.2L83.3,71.2L83.2,71l-1.1-0.7l-0.3-0.2L81.6,70l-0.1-0.1l-0.1,0V70l0.1,0.2l0.1,0.4l0.2,0.6l0.2,0.6L82,72
		l0,0.1l0,0.1l0.1,0l0.1-0.1l0.2-0.3l0.3-0.2l0.2-0.1l0.2-0.1l0.1,0L83.3,71.2L83.3,71.2z M86,71.6v0.6l-0.1,0l-0.1,0.1l-0.1,0
		l-0.2,0h-0.3l-0.1-0.1l-0.1-0.1l-0.2-0.1L84,71.5l-0.1-0.1l-0.1,0l-0.4,0.3l-0.6,0.4l-0.5,0.4l-0.1,0.1l0,0.1l0,0.1l0,0.2l0.1,0.2
		l0,0.3l0,0.1l0,0.1l0,0l0.2-0.1l0.2-0.1l0.2-0.2l0.1,0l0.1,0v0.9l-0.7,0.4L82.1,75L82,75.1l0,0L81.9,75l0-0.1l0-0.1l0-0.2l0-0.2
		l0-0.1l0.1-0.1l0.1-0.1l0.1-0.1v-0.2l0-0.2l0-0.2L82,73.2l-0.8-2.5l-0.1-0.3L80.9,70l-0.1-0.1l-0.1,0L80.6,70l-0.1,0.1l-0.1,0.2
		l-0.1,0.2l-0.1,0.1h-0.1l0-0.1l0-0.2l0-0.2l0-0.2l0-0.2l0.1-0.2l0.1-0.1l0.1-0.1l0.1-0.1l0.2-0.1l0.2-0.1l0.2,0l0.2,0l0.2,0
		l0.1,0.1l0.2,0.1l0.3,0.2l0.6,0.3l0.5,0.4l1.2,0.8l1,0.6l0.1,0h0.1l0.1,0l0.1,0l0.1,0l0,0l0,0l0.1,0l0,0.1l0,0.1L86,71.6z
		 M91.9,66.7l-0.3-0.1l-0.2-0.1l-0.2,0l-0.2,0l-0.2,0.1l-0.1,0l-0.1,0l-0.1,0l-0.2-0.1l-0.2-0.2L89.8,66l-0.3-0.3l-0.3-0.3L88.9,65
		l-0.3-0.3l-0.2-0.2l-0.2-0.2l-0.1-0.1L88,64L87.8,64l-0.2,0l-0.1,0l0.1-0.1l0.1,0h0.2l0.2-0.1l0.1-0.2l0.1-0.2l0.1-0.1l0.1-0.1
		l0.1,0l0.1,0l0,0L88.6,63l-0.1,0l-0.3-0.1l-0.2,0l-0.2,0l-0.2,0.1l-0.2,0.2l-0.1,0.1l-0.2,0.2l-0.1,0.1l-0.1,0.1l-0.1,0.1l-0.1,0.1
		l-0.1,0l0,0.1l0.2,0.4l0.2,0.5l0.3,0.7l0.2,0.6l0.3,0.7l0.2,0.5l0.1,0.3l0,0.1v0.1l-0.1,0l-0.2-0.1l-0.4-0.1l-0.3-0.2l-0.4-0.2
		L86.2,67l-0.3-0.1l-0.5-0.3l-0.4-0.2l-0.4-0.2l-0.2-0.1l-0.1,0l-0.2,0l-0.2,0.2l-0.2,0.2l-0.1,0.2L83.3,67l-0.2,0.1l-0.2,0.2
		l-0.1,0.1l-0.1,0.1l0,0.1l0.1,0l0.2,0l0.2,0.1l0.2,0l0.3,0l0.2-0.1l0.1-0.1l0.1-0.1l0-0.1l0.1,0l0.2,0.2l0.3,0.3l0.3,0.3l0.4,0.4
		l0.3,0.3l0.3,0.4l0.2,0.2l0.2,0.2l0.1,0.1l0.2,0l0.2,0l0.2,0l0.1,0l0.1,0l0,0.1L87,70l-0.1,0.1l-0.2,0.1l-0.1,0.2l-0.1,0.1
		l-0.1,0.1l-0.1,0.1l-0.1,0.1l0.1,0.1l0.1,0l0.2,0.1l0.2,0.1l0.2,0l0.2-0.1l0.3-0.2l0.2-0.2l0.2-0.3l0.2-0.2l0.2-0.1l0.1-0.1
		l0.1-0.1l0.1,0l0,0l-0.2-0.1l-0.2-0.1L88,69.5l-0.2,0l-0.2,0.1l-0.1,0.1l-0.1,0l-0.2-0.1l-0.2-0.2l-0.4-0.3l-0.3-0.4l-0.3-0.4
		l-0.3-0.3l-0.2-0.2l-0.2-0.2L85,67.2l-0.2-0.1L84.7,67l-0.1-0.1l0-0.1l0,0l0.1,0L85,67l0.7,0.3l0.6,0.3l0.6,0.3l0.7,0.3l0.6,0.3
		l0.5,0.2l0.5,0.2l0.3,0.1l0.1,0l0-0.1l-0.3-0.7l-1.7-3.9l0-0.1l0,0l0.1,0l0.1,0.1l2,2.2l0.1,0.1l0.1,0.1l0.1,0l0.1,0l0.1,0l0.1,0
		l0.1,0L90.3,67l-0.1,0.1l-0.1,0.1l-0.1,0.2l-0.1,0.1l-0.1,0.1l-0.1,0l0,0.1l0.1,0l0.2,0.1l0.3,0.1l0.3,0.1l0.2,0l0.2-0.2l0.2-0.2
		l0.1-0.1l0.1-0.2l0.1-0.2l0.1-0.1l0.1-0.1l0.1-0.1L91.9,66.7L91.9,66.7L91.9,66.7z M90.8,62.9L90.8,62.9l-0.3,0.3l-0.1,0.2
		l-0.1,0.1l0,0.1l0.9,0.1l0.1,0l0.4-0.6l0.1-0.1l-0.1,0l-0.8,0L90.8,62.9z M93.1,58.4L92.8,58l-0.1-0.3l-0.1-0.2l-0.4,0.2l-0.4,0.2
		L91.5,58l-0.2,0.2l-0.2,0.3l-0.2,0.4l-0.1,0.4v0.4l0,0.3l0.1,0.3l0.2,0.3l0.2,0.3l0.3,0.2l0.3,0.1l0.3,0.1l0.3-0.1l0.3-0.1l0.3-0.2
		l0.3-0.2l0.2-0.2l0.3-0.3l0.3-0.3l0.3-0.2l0.3-0.1l0.2-0.1l0.2,0l0.2,0.1l0.2,0.1l0.1,0.3l0,0.3l-0.1,0.4l-0.2,0.4l-0.2,0.2
		L95,61.7l-0.3,0.1l-0.3,0.1l-0.2,0l-0.3,0l-0.3,0l-0.2-0.1l-0.1-0.1l-0.1-0.1l-0.1,0l0.7,1.3l0.1,0l0.1,0l0.8-0.3l0.3-0.2l0.3-0.2
		l0.3-0.3l0.2-0.3l0.2-0.4l0.1-0.3l0.1-0.3l0-0.3l0-0.2l-0.1-0.2L96,59.5l-0.2-0.2l-0.2-0.2l-0.2-0.2l-0.3-0.2l-0.3,0l-0.3,0l-0.2,0
		L94,58.9l-0.3,0.2l-0.3,0.2l-0.3,0.2l-0.3,0.2L92.7,60l-0.2,0.2l-0.2,0.1L92,60.4l-0.2,0.1l-0.2,0l-0.1-0.1l-0.1-0.1l-0.1-0.1
		L91.3,60l0-0.2l0-0.2l0.1-0.3l0.2-0.3l0.2-0.2l0.2-0.1l0.3-0.1l0.2-0.1l0.2,0L93.1,58.4z M99.7,43.9l-0.3-0.3l-0.2-0.3l-0.2-0.2
		l-0.4,0.3l-0.3,0.2L98,43.8l-0.2,0.3l-0.1,0.4l-0.1,0.4l0,0.4l0.1,0.4l0.1,0.3l0.2,0.3l0.3,0.3l0.2,0.2l0.3,0.1l0.3,0.1l0.3,0
		l0.3-0.1l0.3-0.2l0.2-0.2l0.3-0.3l0.2-0.2l0.2-0.3l0.3-0.3l0.3-0.3l0.3-0.2l0.2-0.1l0.2,0l0.2,0l0.2,0.1l0.2,0.3l0.1,0.3l0,0.4
		l-0.1,0.4l-0.1,0.3l-0.2,0.3l-0.2,0.2l-0.2,0.2l-0.2,0.1l-0.3,0.1l-0.3,0l-0.2,0l-0.2,0l-0.1,0l-0.1,0l1,1.1l0.1,0l0.1,0l0.7-0.5
		l0.2-0.2l0.2-0.3l0.2-0.3l0.1-0.4l0.1-0.4l0-0.4v-0.4l-0.1-0.3l-0.1-0.2l-0.1-0.2l-0.2-0.2l-0.2-0.2l-0.2-0.1l-0.3-0.1l-0.3-0.1
		l-0.3,0.1l-0.3,0.1L101,44l-0.2,0.2l-0.2,0.2l-0.2,0.3l-0.2,0.3l-0.2,0.3l-0.2,0.3l-0.2,0.2l-0.2,0.2L99.1,46l-0.2,0.1l-0.2,0.1
		l-0.2,0l-0.1-0.1L98.4,46l-0.1-0.1l-0.1-0.2l0-0.3l0.1-0.3l0.1-0.3l0.2-0.3l0.2-0.2l0.3-0.2l0.2-0.1l0.2-0.1L99.7,43.9z M99.4,50.1
		L99.4,50.1L99.3,50l-0.1,0l-1.3,0l-0.3,0l-0.3,0l-0.1,0L97.1,50l0.1,0.1l0.2,0.1l0.3,0.2l0.5,0.4l0.4,0.4l0.2,0.2l0.1,0.1l0.1,0.1
		l0.1-0.1l0-0.2l0-0.4l0.1-0.3l0.1-0.2l0.1-0.2L99.4,50.1L99.4,50.1z M102.2,49.5L102.2,49.5l-0.1,0.2l-0.1,0.1l-0.1,0.1l-0.2,0.1
		l-0.1,0l-0.1,0l-0.2,0l-1.1,0l-0.2,0l-0.1,0.1l-0.2,0.4l-0.3,0.7l-0.2,0.6v0.1l0.1,0l0.1,0.1l0.1,0.1l0.2,0.1l0.2,0.2l0.1,0.1
		l0.1,0l0-0.1l0.1-0.2l0.1-0.2l0.1-0.3l0.1-0.1l0.1,0l0.5,0.8l-0.3,0.7l-0.3,0.6l0,0.1l0,0l-0.1,0l-0.1-0.1l-0.1-0.1l-0.1-0.2
		l-0.1-0.2l0-0.1l0-0.1v-0.1l0-0.1l-0.1-0.1l-0.1-0.2l-0.1-0.1l-0.1-0.1l-2-1.8l-0.2-0.2l-0.3-0.3l-0.1,0l-0.1,0l-0.1,0.1l0,0.1
		l0,0.2l0,0.2v0.1l-0.1,0L96.3,51l-0.1-0.1l-0.1-0.1l-0.1-0.1l-0.1-0.2l0-0.2v-0.2l0-0.2l0.1-0.2l0.1-0.2l0.1-0.1l0.1-0.1l0.1-0.1
		l0.2-0.1l0.2,0l0.2,0l0.3,0l0.7,0l0.6,0l1.4,0.1l1.2,0l0.1,0l0.1-0.1l0.1-0.1l0.1-0.1l0-0.1v-0.1l0,0l0-0.1l0.1,0l0.1,0.1l0.1,0.1
		L102.2,49.5z M93.4,56.8l0.8-1.1l0.1-0.1l0.1,0l0,0.2l0.1,0.3l0.2,0.4L95,57l0.3,0.4l0.3,0.4l0.2,0.2l0.3,0.2l0.3,0.2l0.3,0.1
		l0.3,0.1h0.3l0.2,0l0.2,0l0.3-0.1l0.3-0.1l0.2-0.2l0.2-0.2l0.2-0.3l0.1-0.3l0-0.3l0-0.3l0-0.3L98.7,56l-0.1-0.2l-0.1-0.3l-0.1-0.1
		l-0.1-0.1l0-0.1l0.1,0l0.1,0l0.2,0.1l0.2,0.1l0.2,0.1l0.2,0l0.2-0.1l0.2-0.1l0.2-0.1l0.2-0.1v-0.2l-0.4-0.6l-0.1-0.1l0,0.1
		l-0.1,0.1l-0.1,0.1l-0.1,0.1l-0.2,0l-0.5-0.3l-1-0.6l-0.8-0.4L96,53.1l-0.4-0.2l-0.2-0.2l-0.1-0.2l-0.1-0.2l-0.1,0L95,52.4
		l-0.6,0.9l-0.1,0.1l0,0.1l0,0.2l0.4,0.8l0.5-0.8l0-0.1l0-0.1h0.1l0.1,0.2l0.4,0.3l0.7,0.4l0.6,0.3l0.3,0.2l0.2,0.3l0.2,0.4l0.2,0.4
		l0.1,0.2l0,0.2l-0.1,0.4L98,57.1l-0.2,0.3l-0.2,0.2l-0.3,0.1l-0.3,0l-0.4,0l-0.3-0.1L96,57.4l-0.3-0.2l-0.3-0.4l-0.3-0.4l-0.3-0.5
		l-0.2-0.4L94.4,55l-0.2-0.5l-0.1-0.2l-0.1,0l-0.1,0.1l-0.1,0.2l-0.6,0.8l-0.1,0.2L93,55.8l0,0.2l0,0.2l0.1,0.2l0.1,0.2L93.4,56.8z"
		/>
	<polygon fill="#FFFFFF" points="65.4,61.8 65.3,61.7 65.4,64.2 65.7,61.4 	"/>
	<path fill="#FFFFFF" d="M90,39.3L90,39.8l-0.1,0.5l-0.3,0.5l-0.2,0.5l-0.3,0.5l-0.4,0.5l-0.4,0.4l-0.4,0.4l-0.5,0.4L87,44l-0.5,0.5
		L85.9,45l-0.4,0.5L85,46.2l-0.4,0.5l-0.4,0.5L84,47.4h-0.1l-0.1-0.2l0-0.2l0-0.4l-0.1-0.5l-0.2-0.5l-0.3-0.6l-0.3-0.5L82.4,44
		L82,43.6l-0.3-0.4l-0.3-0.5l-0.3-0.5l-0.3-0.6L80.5,41l-0.1-0.5l-0.1-0.4l0-0.4l0-0.3l0-0.2l0.1-0.1l0.2-0.1l0.2-0.1l0.4-0.4
		l0.5-0.5l0.4-0.5l0.5-0.6l0.5-0.6l0.5-0.6l0.4-0.6l0.4-0.7l0.4-0.7l0.3-0.6l0.4-0.9l0.2-0.7l0.1-0.6l0.1-0.3l0.1-0.2l0.1,0.1
		l0.1,0.1l0.1,0.2l0.1,0.4l0.2,0.4l0.3,0.5l0.3,0.5l0.4,0.5l0.4,0.5l0.4,0.6l0.5,0.6l0.4,0.7l0.3,0.5l0.3,0.7l0.2,0.6l0.1,0.7
		l0.1,0.6l0,0.4L90,39.3z M85.9,47.5l0,0.6l0,0.5l-0.1,0.5l-0.2,0.5l-0.2,0.5l-0.2,0.4l-0.4,0.6l-0.5,0.5l-0.4,0.3l-0.6,0.4
		l-0.5,0.3l-0.5,0.3l-0.6,0.4l-0.5,0.3l-0.4,0.3l-0.4,0.4l-0.3,0.4l-0.3,0.4l-0.3,0.5l-0.3,0.5l-0.2,0.5l-0.3,0.6l-0.3,0.6l-0.3,0.6
		l-0.4,0.5l-0.4,0.3L77,59.5l-0.3,0.1l-0.1,0l0.1-0.1l0.1-0.2l0.1-0.2l0.1-0.4l0.1-0.3l0-0.4l0-0.4l0-0.4l-0.1-0.3l-0.1-0.6
		l-0.2-0.4l-0.3-0.7l-0.2-0.6L75.9,54l-0.3-0.7l-0.2-0.6l-0.2-0.7l-0.1-0.5l0.1-0.4l0-0.4l0.1-0.4l0.3-0.4l0.4-0.3l0.5-0.2l0.4-0.1
		l0.4,0l0.3,0.1l0.4,0.1l0.5,0.3l0.6,0.3l0.6,0.3l0.6,0.3l0.7,0.2l0.6,0l0.4,0l0.4-0.2l0.4-0.3L83,50l0.3-0.4l0.3-0.4l0.1-0.4
		l0.3-0.5l0.3-0.5l0.3-0.4l0.4-0.5l0.3-0.4l0.2-0.3l0.2-0.1l0.2,0.1l0.1,0.2l0.1,0.3l0,0.4L85.9,47.5z M78.1,48.5l0.3-0.2l0.5-0.3
		l0.5-0.4l0.4-0.4l0.5-0.4l0.4-0.5l0.5-0.6l0.5-0.8l0.4-0.6l0.1,0l0.1,0.1l0.1,0.2l0.2,0.3l0.3,0.4l0.2,0.4l0.2,0.5l0.2,0.5l0.1,0.5
		l0,0.4l-0.1,0.4l-0.1,0.5l-0.2,0.4l-0.3,0.5L82.5,50L82,50.3l-0.5,0.1L81,50.3L80.3,50l-0.6-0.3l-0.6-0.4l-0.4-0.2l-0.6-0.3
		L78,48.7L78.1,48.5z M80.4,38.1l4.8-8.4l0.1,0l0.1,0v0.1l-0.1,0.3l0,0.3l-0.1,0.4l-0.2,0.5L84.9,32l-0.2,0.6l-0.3,0.8l-0.4,0.8
		l-0.5,0.9l-0.5,0.7l-0.5,0.7l-0.6,0.7l-0.5,0.6l-0.6,0.6l-0.2,0V38.1z M50.5,39.7l0,0.4l-0.1,0.4L50.3,41L50,41.5l-0.3,0.6
		l-0.3,0.5L49,43.1l-0.3,0.4L48.3,44L48,44.6l-0.3,0.5l-0.3,0.6l-0.2,0.5L47,46.6l0,0.4l0,0.2l-0.1,0.2h-0.1l-0.2-0.2l-0.4-0.5
		l-0.4-0.5l-0.5-0.6L44.8,45l-0.5-0.6l-0.5-0.5l-0.4-0.4l-0.5-0.4l-0.4-0.4L42,42.3l-0.4-0.5l-0.3-0.5l-0.2-0.5l-0.3-0.5l-0.1-0.5
		l-0.1-0.6l0-0.5l0-0.4l0.1-0.6l0.1-0.7l0.2-0.6l0.3-0.7l0.3-0.5l0.4-0.7l0.5-0.6l0.4-0.6l0.4-0.5l0.4-0.5l0.3-0.5l0.3-0.5l0.2-0.4
		l0.1-0.4l0.1-0.2l0.1-0.1l0.1-0.1l0.1,0.2l0.1,0.3l0.1,0.6l0.2,0.7l0.4,0.9l0.3,0.6l0.4,0.7l0.4,0.7l0.4,0.6l0.5,0.6l0.5,0.7
		l0.5,0.6l0.4,0.5l0.5,0.5l0.4,0.4l0.2,0.1l0.2,0.1l0.1,0.1l0,0.2L50.5,39.7z M49.2,44.9l0.5,0.8l0.5,0.6l0.4,0.5l0.5,0.4l0.4,0.4
		l0.5,0.4l0.5,0.3l0.3,0.2l0.1,0.2l-0.1,0.1L52,49l-0.4,0.2L51,49.6L50.4,50l-0.7,0.3l-0.5,0.1l-0.5-0.1l-0.5-0.3l-0.3-0.3l-0.3-0.5
		l-0.2-0.4l-0.1-0.5l-0.1-0.4l0-0.4l0.1-0.5l0.2-0.5l0.2-0.5l0.2-0.4l0.3-0.4l0.2-0.3l0.1-0.2l0.1-0.1l0.1,0L49.2,44.9z M53.4,49.1
		l0.4,0l0.4,0.1l0.5,0.2l0.4,0.3l0.3,0.4l0.1,0.4l0,0.4l0.1,0.4l-0.1,0.5l-0.2,0.7l-0.2,0.6l-0.3,0.7l-0.2,0.6l-0.2,0.6L54,55.8
		l-0.2,0.4l-0.1,0.6l-0.1,0.3l0,0.4l0,0.4l0,0.4l0.1,0.3l0.1,0.4l0.1,0.2l0.1,0.2l0.1,0.1l-0.1,0l-0.3-0.1l-0.3-0.3l-0.4-0.3
		l-0.4-0.5l-0.3-0.6l-0.3-0.6l-0.3-0.6L51.6,56l-0.2-0.5L51.1,55l-0.3-0.4l-0.3-0.4L50,53.8l-0.4-0.3l-0.5-0.3l-0.6-0.4l-0.5-0.3
		l-0.5-0.3L47,51.8l-0.4-0.3L46.1,51l-0.4-0.6L45.4,50l-0.2-0.5L45,49.1l-0.1-0.5l0-0.5l0-0.6l0-0.4l0-0.4l0.1-0.3l0.1-0.2l0.2-0.1
		l0.2,0.1l0.2,0.3l0.3,0.4l0.4,0.5l0.3,0.4l0.3,0.5l0.3,0.5l0.1,0.4l0.3,0.4l0.2,0.4l0.2,0.3l0.4,0.3l0.4,0.2l0.4,0l0.6,0l0.7-0.2
		l0.6-0.3l0.6-0.3l0.6-0.3l0.5-0.3l0.4-0.1L53.4,49.1z M45.4,29.7L45.4,29.7l0.2-0.1l4.8,8.4v0.1l-0.2,0l-0.6-0.6L49,37l-0.6-0.7
		l-0.5-0.7l-0.5-0.7L46.8,34l-0.4-0.8l-0.3-0.8l-0.2-0.6l-0.2-0.6l-0.2-0.5l-0.1-0.4l0-0.3l-0.1-0.3V29.7z M90.5,37.8l-0.1-0.5
		l-0.1-0.4l-0.2-0.6l-0.3-0.6l-0.4-0.6l-0.4-0.6L88.7,34l-0.4-0.6l-0.4-0.6l-0.4-0.5l-0.4-0.6l-0.3-0.6l-0.3-0.5l-0.2-0.4l-0.2-0.4
		l0-0.3L86,29.1l0-0.4v-0.3l0-0.2l0.7-1.3l0.1-0.1l0.2,0h0.3l0.2,0l0.3-0.1l0.1-0.3l0.1-0.2v-0.3l-0.2-0.3l-0.2-0.2l-0.2-0.2
		L87.1,25l-0.4-0.1l-0.3,0h-0.3l-0.3,0.1l-0.2,0.2l-0.1,0.2v0.3l0.1,0.2l0.1,0.1l0.1,0.1l0.1,0.1l0,0.2l-0.1,0.2L65.4,61.8
		L45.1,26.5L45,26.3l0-0.2L45,26l0.1-0.1l0.1-0.1l0.1-0.2v-0.3l-0.1-0.2l-0.2-0.2l-0.3-0.1h-0.3l-0.3,0L43.6,25l-0.3,0.2l-0.2,0.2
		l-0.2,0.2l-0.2,0.3v0.3l0.1,0.2l0.1,0.3l0.3,0.1l0.3,0h0.2l0.2,0l0.1,0.1l0.7,1.3l0,0.2v0.3l0,0.4l-0.1,0.3l0,0.3l-0.2,0.4
		l-0.2,0.4l-0.3,0.5l-0.3,0.6l-0.4,0.6l-0.4,0.5l-0.4,0.6L42,33.9l-0.4,0.5L41.3,35l-0.4,0.6l-0.3,0.6l-0.2,0.6l-0.1,0.4l-0.1,0.5
		l0,0.5v0.5l0,0.4l0,0.5l0.1,0.6l0.2,0.5l0.3,0.6l0.3,0.6l0.4,0.4l0.5,0.5l0.5,0.5l0.7,0.6l0.6,0.6l0.5,0.5l0.3,0.3l0,0.2L44.6,46
		l-0.1,0.3l-0.1,0.3l-0.1,0.5l0,0.5l0,0.5l0,0.5l0.1,0.4l0.2,0.6l0.3,0.5l0.5,0.8l0.6,0.7l0.7,0.6l0.6,0.5L48,53l0.7,0.4l0.6,0.4
		l0.6,0.5l0.4,0.4l0.4,0.5l0.2,0.5l0.3,0.6l0.3,0.5l0.3,0.6l0.3,0.6l0.4,0.5l0.3,0.4l0.6,0.4l0.6,0.3l0.5,0.2l0.6,0.1l0.2,0L55,60
		l-0.2-0.2l-0.3-0.3l-0.2-0.4l-0.1-0.4L54.1,58l0-0.5l0.1-0.5l0.1-0.6l0.2-0.7l0.3-0.6l0.3-0.7l0.3-0.6l0.3-0.7l0.2-0.6l0.1-0.6
		l0.1-0.6l0-0.4L56,50.7l-0.1-0.4l-0.2-0.5l-0.2-0.4l-0.3-0.3l-0.4-0.3l-0.5-0.2l-0.6-0.2l-0.5-0.2l-0.5-0.4l-0.4-0.3l-0.5-0.4
		l-0.4-0.4L51,46.5l-0.3-0.3l-0.6-0.7l-0.4-0.6l-0.3-0.5l-0.1-0.4l-0.1-0.3l0.1-0.2l0.2-0.3l0.3-0.4l0.3-0.5l0.3-0.5l0.3-0.6
		l0.2-0.5l0.1-0.5l0.1-0.5l0.1-0.1l0.1,0.1l0.1,0.2l14.1,24.3l14.1-24.3l0.1-0.2l0.1-0.1l0.1,0.1l0.1,0.5l0.1,0.5l0.2,0.5l0.3,0.6
		l0.3,0.5l0.3,0.5l0.3,0.4l0.2,0.3l0.1,0.2L81.5,44l-0.1,0.4l-0.3,0.5l-0.4,0.6l-0.6,0.7l-0.3,0.3L79.4,47l-0.4,0.4l-0.5,0.4
		L78.1,48l-0.5,0.4l-0.5,0.2l-0.6,0.2L76,48.9l-0.4,0.3l-0.3,0.3l-0.2,0.4l-0.2,0.5l-0.1,0.4L74.7,51l0,0.4l0.1,0.6l0.1,0.6l0.2,0.7
		l0.3,0.7l0.3,0.6l0.3,0.6l0.3,0.6l0.2,0.7l0.1,0.6l0.1,0.5l0,0.5l-0.1,0.7l-0.1,0.4l-0.2,0.4L76,59.8L75.8,60l-0.2,0.2l0.2,0
		l0.6-0.1l0.5-0.2l0.6-0.3l0.6-0.4l0.3-0.4l0.4-0.5l0.3-0.6l0.3-0.6l0.3-0.5l0.3-0.6l0.2-0.5l0.4-0.5l0.4-0.4l0.6-0.5l0.6-0.4
		l0.7-0.4l0.5-0.3l0.6-0.5l0.7-0.6l0.6-0.7l0.5-0.8l0.2-0.5l0.2-0.6l0.1-0.4l0-0.5l0-0.5l0-0.5l-0.1-0.5l-0.1-0.3l-0.1-0.3l-0.1-0.3
		l0-0.2l0.3-0.3l0.5-0.5l0.6-0.6l0.7-0.6l0.5-0.5l0.5-0.5l0.4-0.4l0.3-0.6l0.3-0.6l0.2-0.5l0.1-0.6l0-0.5l0-0.4v-0.5L90.5,37.8z"/>
	<g>
		<polygon fill="#FFFFFF" points="67,35.7 66.5,35.6 66.1,35.6 65.7,35.6 65.3,35.7 65,35.8 64.8,35.8 64.5,35.8 64.1,35.8 
			63.8,35.8 63.5,35.8 63.1,35.7 63,35.7 62.8,35.7 63.1,36.1 63.3,36.5 63.4,36.9 63.4,37.3 63.4,37.8 63.4,38.3 63.4,38.9 
			63.3,39.5 63.2,40 63,40.4 62.8,40.8 62.7,41 62.7,41.1 62.8,41.2 63,41.1 63.5,41.1 64,41.2 64.6,41.5 65,41.7 65.4,41.8 
			66,41.7 66.4,41.6 66.9,41.4 67.3,41.2 67.7,41.2 68,41.1 68.2,41.2 68.3,41.2 68.2,41 68,40.4 67.8,40 67.7,39.5 67.6,39 
			67.5,38.6 67.5,38.2 67.5,37.8 67.5,37.3 67.6,36.8 67.7,36.5 67.9,36.2 68,36 68.1,35.8 68.1,35.8 67.7,35.7 		"/>
		<path fill="#FFFFFF" d="M68,41.7l-0.2,0l-0.2,0l-0.2,0.1l-0.2,0.1l-0.2,0.1L66.9,42l-0.2,0.1l-0.2,0.1l-0.2,0.1l-0.3,0.1l-0.3,0
			l-0.3,0H65l-0.2-0.1l-0.3-0.1l-0.3-0.1L64,42l-0.2-0.1l-0.2-0.1l-0.2-0.1l-0.2,0l-0.2,0h-0.2l-0.1,0l-0.1,0.1l0,0L62.3,42l0,0.2
			l0,0.2v0.3v0.4l0,0.2v0.4l0,0.4l-0.1,0.3L62,44.8L61.9,45l-0.1,0.4l0,0.3l0,0.3l0.1,0.3l0.1,0.2l0.2,0.2l0.3,0.1l0.2,0.1l0.3-0.1
			l0.3-0.1l0.3-0.1l0.3-0.1l0.3-0.1l0.3,0l0.4,0h0.5l0.3,0l0.3,0l0.5,0l0.3,0.1l0.2,0.1l0.3,0.1l0.3,0.1l0.3,0l0.3,0l0.3-0.1
			l0.3-0.1l0.1-0.2l0.1-0.2l0.1-0.2l0-0.2l0-0.3L69,45.3l-0.1-0.4l-0.1-0.3l-0.1-0.3l-0.1-0.3l0-0.4l0-0.4l0-0.3l0-0.3v-0.3l0-0.2
			L68.5,42l-0.1-0.1l-0.2-0.1L68,41.7z M64.4,44.4l0,0.2l-0.1,0.3l-0.1,0.2L64,45.2l-0.2,0.2l-0.2,0.2l-0.2,0.1l-0.2,0.1l-0.2,0
			h-0.2l-0.2,0l-0.1,0l0-0.1l0.1-0.1l0.2-0.1l0.2-0.1l0.2-0.1l0.2-0.1l0.2-0.2l0.1-0.2l0.1-0.2l0.1-0.1l0-0.2l0-0.1V44l0-0.2l0-0.1
			l0-0.1l-0.1-0.1l-0.1-0.1l-0.1-0.1l-0.1-0.1l-0.1,0l-0.1,0l-0.1,0.1l0,0.1l0,0.1l0,0.1l0,0.2l0,0.2l0.1,0.1l0,0.1l0,0.1l0,0.1
			l0,0.1l-0.1,0l-0.2,0l-0.1-0.1L62.7,44l-0.1-0.1l0-0.2v-0.2v-0.2l0-0.1l0-0.2l0.1-0.1l0.1-0.1l0.1-0.1l0.1-0.1l0.2-0.1l0.1,0
			l0.2,0l0.2,0.1l0.2,0.2l0.2,0.2l0.1,0.2l0.1,0.2l0,0.2l0,0.3L64.4,44.4z M68.1,43.6v0.2L68,43.9L68,44l-0.1,0.1l-0.1,0.1l-0.2,0
			l-0.1,0l0-0.1l0-0.1l0-0.1l0-0.1l0.1-0.1l0-0.2l0-0.2l0-0.1l0-0.1l-0.1-0.1l-0.1-0.1l-0.1,0l-0.1,0l-0.1,0.1L67,43.3l-0.1,0.1
			l-0.1,0.1l0,0.1l0,0.1l0,0.2v0.2l0,0.1l0.1,0.2l0.1,0.1l0.1,0.2l0.1,0.2l0.2,0.2l0.2,0.1l0.2,0.1l0.2,0.1l0.2,0.1l0.1,0.1l0,0.1
			l-0.1,0l-0.2,0h-0.2l-0.2,0l-0.2-0.1L67,45.6l-0.2-0.2l-0.2-0.2l-0.1-0.2l-0.1-0.2l-0.1-0.3l0-0.2l0-0.3l0-0.3l0-0.2l0.1-0.2
			l0.1-0.2l0.2-0.2l0.2-0.2l0.2-0.1l0.2,0l0.1,0l0.2,0.1l0.1,0.1l0.1,0.1l0.1,0.1l0.1,0.1l0,0.2l0,0.1V43.6z"/>
		<path fill="#FFFFFF" d="M82.7,27.9l-0.2,0.2l-0.5,0.3l-0.5,0.3L81,28.8l-0.5,0.1l-0.3,0h-0.7l-0.6-0.1l-0.5-0.1l-0.5-0.1l-0.4-0.1
			l-0.3,0l-0.3,0h-0.3l-0.1,0l-0.1-0.1l0.1-0.1l1-0.8l0.6-0.6l0.8-0.8l0.6-0.7l0.4-0.6l0.4-0.7l0.3-0.7l0.3-0.7l0.3-0.8l0.1-0.5
			l0-0.5v-0.3l-0.1-0.2l-0.2-0.1l-0.2,0l-0.2,0.1l-0.4,0.5l-0.5,0.6L79,22.1l-0.5,0.6L78,23.2l-0.6,0.6l-0.6,0.5l-0.6,0.5l-0.8,0.4
			l-0.7,0.4l-0.8,0.3L73,26.2l-0.7,0.3l-0.5,0.2l-0.3,0.1l-0.2-0.1L71,26.6l-0.2-0.1l-0.3,0l-0.1,0.1l-0.1,0.1L70,26.2l-0.5-0.6
			L69,25.2l-0.4-0.4l-0.4-0.2l-0.4-0.2l-0.3-0.1l-0.4-0.1l-0.3,0l-0.2,0l-0.2,0h-0.2L66,24.2l-0.3-0.1l-0.4,0l-0.4,0l-0.4,0l-0.5,0
			h-0.4l-0.4,0.1l-0.5,0.3l-0.4,0.2L62,25.1l-0.4,0.4l-0.4,0.4L61,26.1l-0.2,0.1l-0.3,0.1l-0.3,0.1l-0.3,0l-0.3,0l-0.5-0.2L58.3,26
			l-0.7-0.2L57,25.5L56.2,25l-0.6-0.4L55,24.2l-0.6-0.4L54,23.3l-0.6-0.6l-0.5-0.5l-0.5-0.5l-0.4-0.5l-0.2-0.3l-0.3-0.3l-0.1-0.2
			l-0.2-0.2l-0.3-0.1h-0.1l-0.1,0.1l-0.2,0.3l-0.1,0.4l0.1,0.5l0.1,0.5l0.2,0.7l0.3,0.7l0.3,0.7l0.4,0.7l0.4,0.7l0.6,0.7l0.5,0.6
			l0.5,0.5l0.4,0.4l0.4,0.4l0.2,0.2l0,0.1l-0.1,0.1h-0.3H54l-0.5,0.1L53,28.8L52.4,29l-0.5,0.2l-0.6,0.1l-0.4,0l-0.4,0L50,29.3
			l-0.5-0.1L49,29l-0.3-0.2l-0.2-0.1l-0.1-0.1h-0.1l0,0.2l0.1,0.3l0.2,0.5l0.2,0.4l0.4,0.4l0.5,0.4l0.5,0.2l0.3,0L51,31l0.5,0l0.4,0
			l0.2,0l0,0.1L52,31.2l-0.4,0.1l-0.4,0.1h-0.4l-0.3,0l-0.3-0.1H50l0.4,0.5l0.3,0.3l0.5,0.4l0.4,0.3l0.1,0h0.2l0.3-0.3l0.3-0.3
			l0.3-0.3l0.2-0.1l0.1-0.1v-0.1l0.2,0v0.3L53,32.1l-0.2,0.3l-0.3,0.3l-0.2,0.2L52.2,33l0,0.1l0,0.1l0.4,0.4l0.2,0.1l0.2,0l0.3-0.3
			l0.4-0.4l0.4-0.3l0.3-0.3l0.1-0.1l0.1,0.1l0.1,0.1l-0.1,0.2L54.3,33l-0.4,0.4l-0.3,0.3L53.3,34L53.2,34l0,0.1l0.5,0.4l0.3,0.3
			l0.3,0.1l0.3-0.1l0.4-0.4l0.3-0.5l0.3-0.3l0.3-0.3l0.3-0.1l0.4-0.1l0.3,0.1l0.1,0.2l0.1,0.2V34l-0.1,0.4l-0.1,0.7l0,0.5l0,0.7
			l0,0.6l0.1,0.5l0.1,0.4l0.3,0.6l0.3,0.6l0.3,0.6l0.4,0.8l0.4,0.6l0.4,0.7l0.4,0.7l0.4,0.6l0.4,0.7l0.3,0.6l0.3,0.8l0.2,0.8l0,0.6
			v0.4l0,0.5l0.1,0.4l0.1,0.4l0.2,0.5l0.4,0.5l0.6,0.3l0.6,0.1l0.6,0l0.6-0.1l0.5-0.1l0.4-0.1l0.3-0.1h0.3l0.4,0.1l0.5,0.1l0.5,0
			l0.5,0l0.7,0l0.4-0.1l0.4-0.3l0.4-0.5l0.3-0.5l0.1-0.5l0.1-0.4l0-0.6v-0.6L70,45.6l0-0.3v-0.3l0-0.4l0.1-0.3l0.2-0.4l0.3-0.5
			l0.3-0.4l0.4-0.5l0.5-0.6l0.5-0.6l0.4-0.6l0.4-0.8l0.3-0.8l0.3-0.8l0.1-0.8l0.1-0.5v-0.8l-0.1-0.6l-0.1-0.6l-0.1-0.6l0-0.4l0-0.3
			l0.2-0.1l0.2-0.1l0.3,0l0.3,0l0.4,0.2l0.4,0.3l0.4,0.4l0.2,0.2l0.3,0.1l0.2,0.1l0.4,0l0.3-0.1l0.4-0.4l0.4-0.3l0.2-0.2l-0.3-0.3
			l-0.4-0.4l-0.4-0.2l-0.2-0.1l-0.1-0.1l0-0.1h0.7l0.2,0.1l0.3,0.3l0.4,0.3l0.2,0.1l0.2,0l0.2,0l0.9-0.7l0.1-0.1l-0.1-0.1L79.4,32
			l-0.5-0.3l-0.2-0.1l-0.2-0.2l0-0.1l0.1-0.1h0.1l0.2,0l0.8,0.4l0.4,0.1l0.3,0l0.3,0l0.1-0.1l0.4-0.4l0.5-0.5l0.2-0.3l0-0.2l-0.2,0
			h-0.4h-0.4l-0.3-0.1l-0.2-0.1l0-0.1l0.1-0.1l0.3-0.1l0.4,0l0.3-0.1l0.4-0.3l0.4-0.3l0.2-0.4l0.1-0.3l0.1-0.3l0.1-0.2L82.7,27.9z
			 M61.4,27L61.4,27l0.1,0l0.2,0.2l0.2,0l0.2-0.1l0.1-0.1l0.3-0.2l0.3-0.3l0.2-0.3l0.1-0.2l0.1-0.2l0.1-0.1l0.1-0.1l0.1,0l0.1,0v0.1
			l0,0.1l-0.1,0.2l-0.1,0.2l-0.1,0.2l-0.1,0.2l0,0.1l0,0.1l0,0.1v0.1l0.1,0.2l0.1,0.1l0.1,0.1l0.2,0l0.1-0.1l0.1-0.3l0.1-0.3
			l0.1-0.3l0.1-0.2l0.1-0.2l0.1-0.2l0-0.1l0.1-0.1l0.1-0.1l0.1,0l0,0.1l0,0.1l0,0.1l-0.1,0.3l-0.1,0.2l0,0.2l0,0.1l0,0.1l0,0.2
			l0,0.2l0.1,0.1l0.1,0.1l0.2,0.1l0.3,0.1l0.2,0l0.3-0.1l0.2-0.1l0.2-0.1l0.1,0l0-0.1v-0.1l0-0.1l0-0.1l-0.1-0.1l0-0.1l0-0.2v-0.2
			l0-0.2l0-0.2l0-0.2l0.1-0.1l0.1-0.1l0.1,0l0.1,0l0.1,0.1l0,0.1l0,0.2l0,0.2l0,0.2l0,0.2l0,0.1l0.1,0.1l0,0.1l0.1,0.1l0.1,0.1
			l0.1,0l0.1,0l0.2,0l0.1,0l0.1-0.1l0.1-0.1l0-0.1l0-0.2l-0.1-0.1l0-0.1l0-0.1l0-0.2V26l0-0.2l0-0.1l0-0.1l0.1,0l0,0l0.1,0.2l0,0.2
			l0.1,0.2l0.1,0.2l0,0.2l0.1,0.2l0.1,0.1l0.1,0.1l0.1,0.1l0.1,0l0.1,0l0.2-0.1l0.2-0.1l0.1-0.1l0.1-0.1l0-0.1l0-0.1l0-0.1l0.1,0
			l0.1,0l0,0.2l0,0.2l0,0.2l0,0.3L69,27.2l-0.1,0.2l-0.1,0.1l-0.2,0.1l-0.2,0l-0.1,0l-0.2,0l-0.1-0.1l-0.1-0.1l0-0.1l-0.1,0h-0.1
			l-0.1,0l-0.1,0.1l-0.1,0.1l-0.1,0.1l-0.1,0.1l-0.1,0h-0.2l-0.1,0l-0.1-0.1l-0.1,0l-0.1,0.1L66.4,28l-0.2,0.1L66,28.1l-0.2,0.1
			l-0.3,0.1l-0.3,0l-0.3,0l-0.2-0.1l-0.2-0.1l-0.2-0.1L64.3,28l-0.1-0.1l-0.1,0h-0.1l-0.1,0l0,0.1l0,0.1l0,0.1l-0.1,0l-0.1,0l-0.2,0
			l-0.2-0.1l-0.2-0.1L63,27.8l-0.1-0.1l-0.1-0.1l0-0.1l-0.1-0.1h0l-0.1,0.1l-0.1,0.1l-0.1,0.1l-0.1,0l-0.2,0l-0.2-0.1l-0.2-0.1
			l-0.1-0.1l-0.1-0.1l-0.1-0.1L61.4,27L61.4,27z M60.2,31.7l0-0.1l0.1-0.1l0.1-0.1l0.1-0.1l0.1-0.2l0.1-0.1v-0.2v-0.3l0-0.2l0-0.2
			l0-0.2v-0.5l0-0.4l0-0.4l0.2-0.3l0.1,0l0,0l0,0.1l0,0.1v0.2v0.2l0,0.2l0,0.2l0.1,0.3l0.1,0.3l0.1,0.3l0,0.2l0,0.1l0.1,0l0.1,0
			l0.2-0.1l0.2-0.3l0.2-0.3l0.1-0.4l0.1-0.1l0.1,0l0,0.1v0.2l0,0.3l0,0.5l0.1,0.6l0,0.6l0,0.6l0,0.2l0.1,0.1l0.1,0l0.1-0.1l0.1-0.1
			l0.2-0.3l0.2-0.3l0.2-0.4l0.1-0.4l0.1-0.4l0.1-0.4l0.1-0.3l0-0.3l0.1,0l0.1,0.1l0,0.1l0.1,0.2l0.1,0.3l0.2,0.4l0.1,0.4l0.1,0.4
			l0,0.3l0,0.5v0.5v0.3l0,0.1l0.1,0l0.1-0.1l0.2-0.2l0.2-0.2l0.2-0.3l0.2-0.4l0.1-0.3l0-0.3l0-0.5v-0.4L65.6,30l-0.1-0.3l-0.1-0.1
			l0-0.1l0.1-0.1l0.1,0l0.1,0.1l0.1,0.2l0.1,0.3l0.1,0.3l0,0.3v0.7l0.1,0.4l0.1,0.3l0.3,0.3l0.3,0.2l0.3,0.2l0.2,0.2l0.1,0l0.1,0
			l0-0.1v-0.2l0-0.2l-0.1-0.2l-0.1-0.3l-0.1-0.4L67,31.3l0-0.3v-0.5l0.1-0.3l0.1-0.2l0-0.2l0-0.2l0.1,0l0,0.1l0,0.1l0,0.2l0.1,0.3
			l0.1,0.2l0.1,0.2l0.2,0.3l0.2,0.2l0.3,0.2l0.3,0.2l0.2,0.2l0.2,0.3l0.1,0.2l0.1,0l0-0.1l0.1-0.2l0.1-0.3l0-0.4l0-0.2l-0.1-0.3
			L69,30.5l-0.1-0.3l-0.2-0.5l-0.1-0.4l0-0.2l0.1,0l0.1,0l0.1,0.1l0.1,0.2l0.1,0.2l0.2,0.2l0.3,0.4l0.4,0.4l0.5,0.4l0.4,0.4l0.3,0.3
			l0.1,0l0-0.1l0-0.2l0-0.3L71.1,31l-0.1-0.2l-0.1-0.3L70.8,30l-0.1-0.5l-0.1-0.5l0-0.3l0.1-0.1l0.1,0l0.1,0.1l0,0.2l0.1,0.2
			l0.1,0.3l0.1,0.4l0.2,0.4l0.2,0.4l0.1,0.4l0.1,0.3l0,0.4l0,0.4l-0.1,0.3l-0.1,0.3l-0.1,0.3l-0.1,0l-0.1-0.1l-0.1-0.1l-0.1-0.2
			l-0.1-0.3l-0.2-0.3l-0.2-0.3l-0.4-0.3l-0.3-0.3l-0.1,0l0,0.1v0.2l0,0.3l-0.1,0.4l-0.1,0.4l-0.1,0.4l-0.2,0.5l-0.1,0.2L69,33.5
			l0-0.1l-0.1-0.2l-0.1-0.2l-0.2-0.3l-0.3-0.3L68,32l-0.3-0.2l-0.1,0v0.1l0.1,0.1l0.1,0.1l0.1,0.2l0,0.3v0.3l-0.1,0.3l-0.1,0.3
			l-0.1,0.3l0,0.1l-0.1,0l-0.1-0.1l-0.1-0.1l-0.1-0.1L67,33.5l-0.3-0.2l-0.3-0.2l-0.3-0.2l-0.2-0.3l-0.1-0.2l-0.1,0l-0.1,0.1
			l-0.1,0.1l-0.1,0.2L65.3,33L65,33.4l-0.3,0.3l-0.3,0.2l-0.3,0.3l-0.3,0.1l-0.1,0v-0.1l0.1-0.1l0.1-0.2l0.1-0.3l0-0.2l0-0.3l0-0.2
			l0-0.3L64,32.2l-0.1-0.3l-0.1-0.3l-0.1-0.3l-0.1,0l0,0l0,0.1l-0.1,0.3l-0.1,0.3l-0.2,0.4l-0.3,0.4l-0.4,0.3L62,33.3l-0.3,0.2
			l-0.1,0l-0.1-0.1l0-0.1l0-0.1l0.1-0.1l0.1-0.3l0-0.2l0-0.2V32v-0.3l0-0.2l0-0.4v-0.4h-0.1l0,0.1l-0.1,0.1L61.4,31l-0.3,0.3
			l-0.3,0.2l-0.4,0.3l-0.2,0.1l0-0.1L60.2,31.7z M56.9,28.5l-0.6-0.2l-0.6-0.3l-0.5-0.4l-0.5-0.4l-0.5-0.4l-0.5-0.5l-0.4-0.5
			l-0.4-0.4l-0.4-0.5l-0.3-0.4l-0.4-0.6l-0.3-0.5l-0.3-0.7L51,21.9l-0.1-0.7v-0.4l0-0.2H51l0.1,0.1l0.1,0.1l0.1,0.2l0.2,0.3l0.1,0.2
			l0.2,0.3l0.2,0.3l0.2,0.3l0.3,0.3l0.3,0.3l0.3,0.3l0.3,0.3l0.3,0.3l0.4,0.4l0.4,0.3l0.4,0.3l0.5,0.3l0.5,0.3l0.5,0.3l0.5,0.3
			l0.6,0.3l0.6,0.2l0.4,0.1l0.1,0l0.1,0.1l0,0.2L59,27.1l-0.1,0.2l-0.2,0.3l-0.1,0.3l-0.1,0.3l-0.2,0.4l-0.1,0.3h-0.2l-0.4-0.1
			L56.9,28.5z M61.2,37.2l-0.3,0.1l-0.3,0l-0.3,0l-0.3,0l-0.3-0.1L59.6,37l-0.2-0.2l-0.2-0.3L59,36.3l-0.1-0.2l-0.1-0.3l0-0.3l0-0.3
			l0-0.3l0-0.1h0.1l0.1,0l0.1,0l0.1,0l0.2,0l0.2,0.1l0.1,0.1l0,0.1l-0.1,0.1l-0.1,0.1l0,0.1l0,0.2l0,0.2l0.1,0.2l0.1,0.2l0.2,0.2
			l0.2,0.2l0.3,0l0.2,0l0.2-0.1l0.2-0.1l0.2-0.1l0.1-0.2l0.1-0.2l0-0.1l0-0.2l0-0.2l0-0.2l0.1,0l0.1,0.1l0.1,0.1l0.1,0.1l0.1,0.1
			v0.1l0,0.2l0,0.1l0,0.1l0.1,0.1l0.1,0.1l0.1,0.1l0,0.1l0,0.2l0,0.1L62.1,37l-0.2,0l-0.2,0l-0.3,0L61.2,37.2z M72.1,35l0,0.3l0,0.3
			l0,0.3l-0.1,0.3l-0.1,0.2l-0.2,0.3l-0.2,0.3L71.3,37L71,37.2l-0.2,0.1l-0.3,0l-0.3,0l-0.3,0l-0.3-0.1l-0.3-0.1l-0.3,0l-0.2,0
			l-0.2,0l-0.1-0.1l0-0.1l0-0.2l0.1-0.1l0.1-0.1l0.1-0.1l0.1-0.1l0.1-0.1l0.1-0.1l0-0.1l0.1-0.1l0.1-0.1l0.1,0h0.1l0,0.1V36l0,0.1
			l0.1,0.2l0.1,0.1l0.1,0.2l0.2,0.1l0.2,0.1h0.2l0.3,0l0.2-0.2l0.2-0.2l0.1-0.2l0-0.2l0-0.2l0-0.2l0-0.1l0-0.1l-0.1-0.1l0-0.1
			l0.1-0.1l0.2-0.1l0.2-0.1l0.1,0l0.1,0l0.1,0l0.1,0L72.1,35z M73.8,31.9l-0.1,0.4l-0.1,0.5l-0.2,0.4l-0.3,0.4L73,33.8l-0.4,0.3
			l-0.4,0.3l-0.5,0.2l-0.4,0.1l-0.5,0.1L70.5,35l-0.6,0.2l-0.5,0.2L69,35.6l-0.4,0.3l-0.2,0.3l-0.2,0.4l-0.1,0.4L68,37.4l0,0.5
			l0,0.4l0.1,0.5l0.1,0.6l0.1,0.4l0.2,0.5l0.2,0.5l0.2,0.5l0.1,0.4l0.1,0.4l0,0.4L69.1,43l0,0.4l0,0.3l0,0.3l0.1,0.4l0.2,0.4
			l0.1,0.4l0,0.4v0.3l0,0.5l-0.1,0.4l-0.2,0.3l-0.3,0.2l-0.5,0.2H68l-0.5-0.1l-0.5-0.1l-0.6-0.1l-0.5,0l-0.4,0l-0.5,0l-0.3,0.1
			l-0.3,0.1L64,47.4l-0.5,0.1l-0.4,0h-0.3l-0.4,0l-0.3-0.2l-0.4-0.2l-0.2-0.3l-0.1-0.3l-0.1-0.4l0-0.4l0.1-0.4l0.1-0.3l0.1-0.4
			l0.1-0.5l0-0.4l-0.1-0.5l-0.1-0.4v-0.5l0-0.4l0.1-0.2l0.1-0.3l0.2-0.4l0.2-0.3l0.2-0.6l0.2-0.6l0.1-0.7l0.1-0.7v-0.9l-0.1-0.5
			l-0.1-0.5l-0.2-0.5l-0.3-0.4l-0.3-0.2l-0.2-0.1L61.3,35l-0.5-0.1l-0.6-0.1l-0.5,0l-0.5-0.1l-0.7-0.2l-0.4-0.2l-0.4-0.3l-0.2-0.3
			l-0.2-0.5l-0.1-0.5V32l0-0.5l0.1-0.4l0.2-0.5l0.2-0.6l0.3-0.5l0.1-0.1l0,0.1l0,0.1l0,0.1l-0.1,0.1l0,0.3l-0.1,0.4L57.7,31
			l-0.1,0.5l0,0.4v0.5l0.1,0.4l0.2,0.4l0.3,0.3l0.3,0.2l0.5,0.2l0.5,0.1l0.6,0.1l0.5,0.1l0.5,0.1l0.5,0.1l0.5,0.1l0.5,0.2l0.4,0.3
			l0.6,0.2l0.4,0.1l0.4,0l0.5-0.1l0.5-0.1l0.5-0.1l0.5,0l0.5,0l0.4,0.1l0.4,0l0.5,0l0.3-0.1l0.5-0.2l0.4-0.2l0.5-0.2l0.4-0.2
			l0.5-0.2l0.5-0.1l0.5-0.2l0.5-0.3l0.4-0.4l0.2-0.3l0.3-0.5l0.1-0.5l0-0.5v-0.5l0-0.4l0-0.4l0-0.3l0.1-0.1l0.1,0.1l0.1,0.2l0.1,0.3
			l0.1,0.3l0,0.4l0,0.4V31.9z M75.7,27.9L75,28.3l-0.6,0.3l-0.5,0.2l-0.5,0.2l-0.1,0l-0.1-0.2l-0.1-0.2l-0.1-0.3L72.8,28l-0.2-0.4
			l-0.2-0.4L72.2,27l0.1-0.1l0.1,0l0.2,0l0.3-0.1l0.5-0.1l0.8-0.3l0.6-0.3l0.4-0.2l0.6-0.3l0.6-0.3l0.4-0.3l0.3-0.3l0.5-0.4l0.3-0.3
			l0.3-0.3l0.3-0.3l0.3-0.3l0.2-0.3l0.2-0.3l0.2-0.2l0.2-0.3l0.2-0.3l0.2-0.3l0.1-0.2l0.2-0.3l0.1,0l0.1,0.1l0,0.2l-0.1,0.4
			l-0.1,0.4l-0.2,0.6L80,23.2l-0.3,0.6l-0.3,0.5l-0.3,0.5l-0.3,0.5l-0.3,0.3l-0.4,0.4l-0.5,0.5L77,27l-0.6,0.5L75.7,27.9z"/>
	</g>
	<g>
		<polygon fill="#FFFFFF" points="60.8,8 60.9,7.5 61,7 61.1,6.6 61.1,6.3 61.2,5.9 61.1,5.6 61.1,5.4 61,5.3 60.9,5.3 60.9,5.4 
			60.8,5.4 60.8,5.9 60.8,6.4 60.7,7.1 60.6,7.6 60.4,8.2 60.2,8.6 59.9,8.9 59.8,9.1 59.9,9.3 60,9.3 60.2,9.1 60.4,8.8 60.6,8.4 
					"/>
		<polygon fill="#FFFFFF" points="63.5,14 63.3,13.6 63,13.2 62.6,12.9 62.3,12.5 62,12.3 61.7,12.1 61.4,11.9 61.2,11.7 61,11.7 
			60.9,11.7 60.8,11.8 60.8,11.8 60.8,11.9 61.2,12.1 61.7,12.4 62.2,12.9 62.6,13.2 63,13.7 63.2,14.1 63.4,14.4 63.5,14.6 
			63.6,14.7 63.8,14.6 63.7,14.4 		"/>
		<polygon fill="#FFFFFF" points="70.5,9.5 70.3,9 70.1,8.3 70,7.8 70,7.2 70,6.8 70,6.4 70,6.1 69.9,6 69.8,6 69.7,6.3 69.7,6.7 
			69.7,7.1 69.7,7.6 69.8,8.1 69.9,8.6 70,8.9 70.1,9.3 70.2,9.6 70.3,9.9 70.5,10 70.6,10.1 70.7,10 70.7,10 70.7,9.9 		"/>
		<path fill="#FFFFFF" d="M72,12.1L72,12l-0.1-0.1l-0.1-0.2l-0.2-0.3l-0.2-0.2l0,0l0,0l0.2-0.2l0.2-0.2l0.1-0.2l0-0.3l0-0.3V9.5V9.1
			l-0.1-0.3l-0.1-0.2l0-0.3L71.6,8l-0.1-0.3l-0.1-0.3l-0.1-0.3l-0.1-0.3l-0.1-0.3l-0.1-0.2L71,6.2l-0.1-0.3l-0.1-0.4l-0.2-0.3
			L70.4,5l-0.2-0.1l-0.2-0.1l-0.1,0l0-0.1l0.1-0.1L70,4.3l0-0.2l0-0.2l0-0.2V3.7V3.6l-0.1,0l-0.2,0l-0.2,0l-0.2,0.1l-0.2,0.1
			l-0.2,0.1l-0.1,0.1l0-0.1l-0.1-0.2l-0.3-0.3l-0.3-0.2l-0.3-0.2l-0.3-0.1l-0.4,0l-0.4,0l-0.4,0l-0.2,0h-0.2l-0.4,0l-0.4,0l-0.2,0
			l-0.3,0h-0.5l-0.3,0l-0.3,0.1l-0.3,0.1L63.1,3l-0.2,0.2l-0.2,0.2l-0.1,0.2l-0.1,0l-0.2,0l-0.2-0.1l-0.2-0.1l-0.2-0.1l-0.2-0.1
			L61.3,3l-0.2,0l0,0l-0.1,0.1l0,0l0,0.1l0,0.2l0,0.2l0,0.2l0.1,0.2L61,4.3l0.1,0.2l-0.1,0l-0.1,0l-0.2,0.1l-0.3,0.2L60.2,5L60,5.2
			l-0.1,0.3l-0.1,0.3L59.7,6l-0.1,0.3l-0.1,0.3l-0.1,0.3l-0.2,0.4l-0.1,0.3l-0.1,0.3l-0.1,0.3L59,8.5L59,8.8l0,0.2l-0.1,0.3l0,0.5
			l0,0.3l0.1,0.3l0.1,0.2l0.2,0.2l0,0l-0.1,0.1l-0.1,0.1l-0.1,0.1L59,11.3l-0.1,0.2l-0.1,0.2l-0.1,0.2l0,0.2v0l0.1,0.1l0.2,0.1
			l0.3,0l0.3,0l0.2-0.1h0.1l0.1,0l0,0.1l0,0.2l0.1,0.2l0.1,0.2l0.2,0.3l0.2,0.3l0.2,0.2l0.3,0.2l0.3,0.2l0.2,0.2l0.2,0.3l0.4,0.3
			l0.4,0.3l0.4,0.2l0.4,0.2l0.2,0.1l0.2,0l0.2-0.1l0.2-0.1l0.2-0.1l0.1-0.1l0,0l0,0.1l0.1,0.2l0.1,0.2l0.1,0.2l0.1,0.2l0.2,0.2
			l0.1,0.1l0,0l0.1,0l0.1-0.1l0.2-0.2l0.2-0.3l0.1-0.2l0.1-0.3l0-0.1l0,0l0.2,0.1l0.2,0.1l0.3,0.1l0.4,0l0.4-0.1l0.3-0.1l0.5-0.2
			l0.5-0.3l0.5-0.3l0.5-0.3l0.3-0.3l0.3-0.3l0.1-0.2l0.1-0.3l0-0.3l0,0h0l0.2,0l0.2,0l0.2,0l0.3,0l0.2,0l0.2-0.1l0,0l0.1-0.1l0-0.2
			L72,12.1z M62.7,4.2l0-0.1l0.1-0.2L63,3.5l0.2-0.2l0.3-0.1l0.3-0.1l0.3,0l0.6,0l0.8,0l0.9,0l0.6,0l0.3,0l0.3,0.1l0.3,0.1l0.2,0.1
			l0.2,0.3l0.1,0.3l0.1,0.3v0.7l-0.1,0.4l-0.2,0.3l-0.3,0.4l-0.3,0.3l-0.3,0.3l-0.2,0.2L66.8,7l-0.2,0.2l-0.2,0.2l-0.1,0.2l-0.1,0.1
			l-0.1,0.1L66,7.9l-0.1,0l-0.1-0.1l-0.1-0.1l0-0.5V6.8l0-0.3l0-0.2l0-0.2l0-0.1l-0.1,0l-0.1,0.1l0,0.2l0,0.3l0,0.3l0,0.4l0,0.4
			l0,0.2L65,7.8l-0.1,0.1l-0.1-0.1l-0.1-0.1l-0.1-0.1l-0.1-0.2l-0.2-0.3l-0.2-0.2l-0.3-0.3l-0.2-0.3L63.4,6l-0.2-0.3L63,5.5
			l-0.1-0.2L62.8,5l0-0.2l0-0.3V4.2z M66.2,9.1c-0.2,0-0.3-0.1-0.3-0.3c0-0.2,0.1-0.3,0.3-0.3c0.2,0,0.3,0.1,0.3,0.3
			C66.5,8.9,66.4,9.1,66.2,9.1z M66.3,9.8c0,0.2-0.1,0.3-0.3,0.3c-0.2,0-0.3-0.1-0.3-0.3c0-0.2,0.1-0.3,0.3-0.3
			C66.2,9.5,66.3,9.6,66.3,9.8z M65.7,8.3c0,0.2-0.1,0.3-0.3,0.3c-0.2,0-0.3-0.1-0.3-0.3c0-0.2,0.1-0.3,0.3-0.3
			C65.6,8,65.7,8.1,65.7,8.3z M65,8.9c0,0.2-0.1,0.3-0.3,0.3c-0.2,0-0.3-0.1-0.3-0.3c0-0.2,0.1-0.3,0.3-0.3C64.8,8.6,65,8.7,65,8.9z
			 M60.1,10.8l-0.3-0.1l-0.2-0.2l-0.2-0.3l-0.1-0.3l0-0.4L59.3,9l0.1-0.3l0.1-0.4l0.2-0.6l0.2-0.8L60.1,6l0.3-0.7l0.3-0.4l0.3-0.1
			l0.4,0l0.3,0.1l0.3,0.2l0.3,0.2l0.3,0.3L63,6.1l0.2,0.4l0.3,0.5L64,7.5L64.3,8l0.1,0.2l0,0.2l-0.1,0.1l-0.1,0.1l-0.2,0l-0.1,0
			l-0.2-0.1l-0.3-0.1l-0.2-0.1L63,8.1L62.8,8l-0.1,0l-0.1,0l0,0.1l0.1,0.1l0.1,0.1l0.2,0.1l0.3,0.1l0.3,0.2l0.2,0.1l0.2,0.1L63.9,9
			v0.1l-0.1,0.1l-0.2,0.1l-0.2,0.1L63,9.7l-0.5,0.2L62,10.1l-0.4,0.2L61,10.5l-0.6,0.2L60.1,10.8z M65.1,12.9l0,0.5l0,0.3l-0.1,0.2
			L65,14.2l-0.1,0.2l-0.2,0.3l-0.2,0.2l-0.3,0.2L64,15.2l-0.2,0l-0.2,0l-0.2-0.1L63.2,15l-0.3-0.2l-0.3-0.3L62,14l-0.5-0.4l-0.6-0.6
			l-0.4-0.4l-0.2-0.3L60.2,12v-0.2l0-0.2l0.1-0.2l0.2-0.2l0.2-0.2l0.3-0.2l0.3-0.1l0.3-0.1l0.3-0.1l0.4-0.1l0.4-0.1l0.4-0.1l0.4-0.1
			l0.3-0.1l0.2-0.1l0.1,0l0.1,0.1l0,0.1l0,0.1l0,0.1l0,0.1l-0.1,0.1l-0.1,0.1l-0.1,0.1l-0.2,0.2l-0.2,0.2l-0.2,0.2l-0.1,0.2l0,0.1
			l0.1,0.1l0.1,0l0.1-0.1l0.1-0.1l0.2-0.2l0.4-0.3l0.3-0.3l0.2-0.2l0.1-0.1l0.1,0l0.1,0.1l0,0.2l0,0.2l0.1,0.4l0,0.3l0,0.6
			L65.1,12.9z M64.9,10.2c-0.2,0-0.3-0.1-0.3-0.3c0-0.2,0.1-0.3,0.3-0.3c0.2,0,0.3,0.1,0.3,0.3C65.2,10,65.1,10.2,64.9,10.2z
			 M65.4,9.5c-0.2,0-0.3-0.1-0.3-0.3c0-0.2,0.1-0.3,0.3-0.3c0.2,0,0.3,0.1,0.3,0.3C65.8,9.3,65.6,9.5,65.4,9.5z M70.3,12.5l0,0.3
			l-0.2,0.4l-0.2,0.3l-0.3,0.3L69.2,14l-0.4,0.3l-0.5,0.3l-0.6,0.3L67.3,15l-0.5,0.1L66.5,15l-0.3-0.1L66,14.6l-0.2-0.2l-0.1-0.3
			l-0.1-0.3l-0.1-0.3l0-0.3l0-0.4l0-0.3l0.1-0.4l0.1-0.4l0.1-0.5l0-0.4v-0.4l0-0.2l0.1,0h0.1l0.1,0.1l0.1,0.1l0.1,0.1l0.1,0.1
			l0.1,0.2l0.2,0.3l0.2,0.3l0.1,0.2l0.1,0.1l0,0l0.1,0l0,0l0,0l0-0.1l0-0.1l-0.1-0.1l-0.1-0.1L67,11.3l-0.1-0.2l-0.1-0.2l-0.1-0.2
			l-0.1-0.2l-0.1-0.2l0-0.1l0.1-0.1l0.1-0.1l0.1-0.1h0.1l0.1,0.1l0.2,0.1l0.3,0.1l0.4,0.2l0.5,0.2l0.5,0.2l0.5,0.3l0.3,0.2l0.3,0.2
			l0.2,0.2l0.1,0.2l0.1,0.3L70.3,12.5z M71.2,10.9L71.1,11l-0.3,0.1l-0.2,0l-0.3,0l-0.4,0l-0.5-0.2l-0.5-0.3l-0.4-0.3L68.1,10
			l-0.3-0.2l-0.3-0.2l-0.2-0.1l-0.2-0.1l-0.2-0.1l-0.2,0l-0.1,0l0-0.1V9L66.8,9l0.2,0l0.3-0.1l0.3-0.1l0.2-0.1l0.1-0.1l0.2-0.1
			l0.2,0l0.1,0l0-0.1l0-0.1l-0.1,0l-0.3,0l-0.2,0.1l-0.3,0l-0.2,0.1l-0.2,0.1l-0.2,0.1h-0.1l-0.1,0l0-0.4L66.8,8l0.1-0.3L67,7.5
			l0.2-0.3l0.2-0.3l0.3-0.3L68,6.2l0.3-0.3l0.3-0.3l0.3-0.2l0.3-0.2l0.2-0.1l0.2,0l0.2,0L70,5.2l0.3,0.2l0.2,0.4l0.2,0.3l0.2,0.4
			l0.1,0.4L71,7.3l0.1,0.5l0.1,0.4l0.1,0.4l0.1,0.3L71.6,9l0,0.3l0,0.4l0,0.3l-0.1,0.3l-0.1,0.3L71.2,10.9z"/>
		<polygon fill="#FFFFFF" points="69.5,12.2 69.2,12.3 68.7,12.5 68.3,12.7 67.9,13 67.5,13.2 67.2,13.5 66.9,13.7 66.7,14 
			66.5,14.2 66.4,14.4 66.4,14.5 66.4,14.6 66.5,14.6 66.5,14.5 66.9,14.2 67.3,13.8 67.9,13.4 68.2,13.1 68.7,12.8 69.2,12.6 
			69.6,12.5 69.8,12.4 69.9,12.3 69.8,12.2 		"/>
		<polygon fill="#FFFFFF" points="64.2,4.2 64.6,4.3 65.1,4.3 65.6,4.4 66.1,4.3 66.5,4.3 66.8,4.3 67.2,4.2 67.5,4.1 67.6,4 
			67.7,3.9 67.7,3.8 67.6,3.8 67.6,3.8 67.1,3.9 66.6,4 65.9,4 65.4,4 64.8,4 64.3,3.9 64,3.8 63.7,3.7 63.6,3.8 63.6,3.9 63.8,4.1 
					"/>
	</g>
	<path fill="#FFFFFF" d="M57,3.1h-1.3l-0.8-0.8h-0.3V2.2V2.1h-0.5l-0.2,0l-0.1,0l-0.2,0.1l-0.2,0.1l-0.3,0h-0.3l-0.3-0.1l-0.3-0.1
		L51.8,2L51.6,2l-0.5,0l-0.4,0L50.3,2L50,2.1l-0.4,0.2l-0.3,0.2L49,2.7l-0.2,0.1l-0.2-0.1l-0.3-0.2l-0.3-0.2l-0.4-0.2L47.3,2L47,1.9
		l-0.4,0l-0.5,0L45.8,2l-0.4,0.1l-0.3,0.1l-0.3,0h-0.3l-0.3,0l-0.2-0.1l-0.2-0.1l-0.1,0l-0.2,0l-0.4,0h-0.1v0.3h-0.3h0L42,3.1h-1.5
		v13l6.9-0.9l0.5,0.2l0.5,0.1l0.4,0l0.4,0l0.3-0.1l0.3-0.2l0.2-0.1l7,0.9v-13H57z M54.6,12L54.6,12l0-0.2v-0.1h0V2.8h0.1l0.5,0.5
		v10.2l-0.1-0.2l-0.2-0.4l-0.3-0.6L54.6,12z M54.2,12.5l0.2,0.5l0.2,0.4l0.2,0.4L55,14l0.1,0.1l0,0.1l0,0.1l0,0l-0.1,0l-0.8-0.1
		L53,14.1L51.8,14l-1.2-0.1l-0.8-0.1l-0.2-0.2l-0.1-0.2l-0.1-0.3l-0.1-0.1l-0.1-0.1l0-0.1l0.2-0.2l0.2-0.1l0.1-0.1l0.1-0.1h0.7
		l0.4,0.1l0.4,0.1l0.4,0.1l0.4,0.1l0.4,0.1h0.4h0.2l0.4-0.1l0.3-0.1l0.1,0l0.1,0L54.2,12.5L54.2,12.5z M49.1,10.9l0.1-0.2l0.2-0.2
		l0.3-0.2l0.2-0.1l0.2-0.1l0.2,0l0.4,0.1l0.3,0.1l0.3,0.1l0.2,0.1l0.3,0l0.3,0l0.3,0l0.3,0l0.2,0l0.2,0v-0.3l-0.2,0l-0.2,0l-0.2,0.1
		l-0.3,0H52l-0.3,0l-0.2-0.1l-0.2-0.1L51.1,10L50.8,10l-0.4,0l-0.3,0L49.8,10l-0.3,0.1l-0.2,0.1l-0.1,0.1l0,0V9l0.1-0.2l0.2-0.2
		l0.3-0.2l0.2-0.1l0.2-0.1l0.2,0l0.4,0.1L51,8.4l0.3,0.1l0.2,0.1l0.3,0l0.3,0l0.3,0l0.3,0l0.2,0l0.2,0V8.2l-0.2,0l-0.2,0l-0.2,0.1
		l-0.3,0H52l-0.3,0l-0.2-0.1l-0.2-0.1l-0.2-0.1l-0.3-0.1l-0.4,0l-0.3,0l-0.3,0.1l-0.3,0.1l-0.2,0.1l-0.1,0.1l0,0V7.2L49.3,7l0.2-0.2
		l0.3-0.2l0.2-0.1l0.2-0.1l0.2,0l0.4,0.1l0.3,0.1l0.3,0.1l0.2,0.1l0.3,0l0.3,0l0.3,0l0.3,0l0.2,0l0.2,0V6.4l-0.2,0l-0.2,0l-0.2,0.1
		l-0.3,0H52l-0.3,0l-0.2-0.1l-0.2-0.1l-0.2-0.1l-0.3-0.1l-0.4,0l-0.3,0l-0.3,0.1l-0.3,0.1l-0.2,0.1l-0.1,0.1l0,0V5.4l0.1-0.2L49.5,5
		l0.3-0.2l0.2-0.1l0.2-0.1l0.2,0l0.4,0.1L51,4.9L51.3,5L51.5,5l0.3,0l0.3,0l0.3,0l0.3,0l0.2,0l0.2,0V4.7l-0.2,0l-0.2,0l-0.2,0.1
		l-0.3,0H52l-0.3,0l-0.2-0.1l-0.2-0.1l-0.2-0.1l-0.3-0.1l-0.4,0l-0.3,0l-0.3,0.1l-0.3,0.1l-0.2,0.1l-0.1,0.1l0,0V3.3V3.2l0,0L49.4,3
		l0.3-0.2l0.3-0.1l0.3-0.1l0.4-0.1l0.2,0l0.4,0l0.3,0l0.3,0.1l0.4,0.1l0.4,0.1l0.4,0l0.3,0l0.4,0l0.3-0.1L54,2.6l0.1,0l0,0v9.1v0.2
		l0,0L53.8,12l-0.3,0.1l-0.4,0.1l-0.7,0l-0.6-0.1L51.5,12L51,11.8l-0.7-0.1l-0.5,0l-0.2,0l-0.2,0.1L49.1,12V10.9z M48.7,13.3
		l0.1-0.2l0.1-0.1l0,0l0,0l0.1,0.1l0.1,0.2l0.1,0.2l0.1,0.2l0,0.2l0,0.1l0,0l-0.1,0L49,14l-0.1,0l-0.3,0l-0.2-0.1l-0.1,0l0-0.1
		l0-0.1l0.1-0.2l0.1-0.1L48.7,13.3z M43.5,2.6L43.5,2.6h0.1l0.1,0.1l0.3,0.1l0.4,0l0.3,0l0.4,0l0.4-0.1l0.4-0.1l0.3-0.1l0.3,0l0.4,0
		l0.2,0l0.4,0.1l0.3,0.1L48,2.8L48.3,3l0.2,0.1v0.1v0.1v1.6l-0.1-0.1l-0.2-0.1l-0.3-0.1l-0.3-0.1l-0.3,0l-0.4,0l-0.3,0.1l-0.2,0.1
		l-0.2,0.1l-0.2,0.1l-0.3,0h-0.2l-0.3,0L45,4.8l-0.2,0l-0.2,0V5l0.2,0l0.2,0l0.3,0l0.3,0l0.3,0l0.3,0L46.4,5l0.3-0.1l0.3-0.1
		l0.4-0.1l0.2,0l0.2,0.1l0.2,0.1L48.2,5l0.2,0.2l0.1,0.1v1.3l-0.1-0.1l-0.2-0.1l-0.3-0.1l-0.3-0.1l-0.3,0l-0.4,0l-0.3,0.1l-0.2,0.1
		l-0.2,0.1l-0.2,0.1l-0.3,0h-0.2l-0.3,0L45,6.5l-0.2,0l-0.2,0v0.3l0.2,0l0.2,0l0.3,0l0.3,0l0.3,0l0.3,0l0.2-0.1l0.3-0.1l0.3-0.1
		l0.4-0.1l0.2,0l0.2,0.1l0.2,0.1l0.3,0.2L48.4,7l0.1,0.1v1.3l-0.1-0.1l-0.2-0.1l-0.3-0.1l-0.3-0.1l-0.3,0l-0.4,0l-0.3,0.1l-0.2,0.1
		l-0.2,0.1l-0.2,0.1l-0.3,0h-0.2l-0.3,0L45,8.3l-0.2,0l-0.2,0v0.3l0.2,0l0.2,0l0.3,0l0.3,0l0.3,0l0.3,0l0.2-0.1l0.3-0.1l0.3-0.1
		l0.4-0.1l0.2,0l0.2,0.1l0.2,0.1l0.3,0.2l0.2,0.2l0.1,0.1v1.4l-0.1-0.1l-0.2-0.1L47.9,10l-0.3-0.1l-0.3,0l-0.4,0L46.6,10l-0.2,0.1
		l-0.2,0.1l-0.2,0.1l-0.3,0h-0.2l-0.3,0L45,10.2l-0.2,0l-0.2,0v0.3l0.2,0l0.2,0l0.3,0l0.3,0l0.3,0l0.3,0l0.2-0.1l0.3-0.1l0.3-0.1
		l0.4-0.1l0.2,0l0.2,0.1l0.2,0.1l0.3,0.2l0.2,0.2l0.1,0.1V12l0,0l-0.2-0.1l-0.2-0.1l-0.2,0l-0.5,0l-0.7,0.1L46.2,12l-0.4,0.1
		l-0.6,0.1l-0.7,0l-0.3-0.1L43.8,12l-0.2-0.1l0,0V2.6z M43.2,13l0.2-0.5l0.1-0.1h0.1l0.1,0l0.1,0.1l0.3,0.1l0.4,0.1h0.2h0.4l0.4-0.1
		l0.4-0.1l0.4-0.1l0.4-0.1l0.4-0.1h0.7l0.1,0.1l0.1,0.1l0.2,0.1l0.2,0.2l0,0.1l0,0.1l-0.1,0.1l-0.1,0.3l-0.1,0.2l-0.2,0.2L47,13.8
		L45.9,14l-1.2,0.1l-1.2,0.1l-0.8,0.1h-0.1l0,0l0-0.1l0-0.1l0.1-0.1l0.1-0.2l0.2-0.4L43.2,13z M42.4,3.3L43,2.8H43v8.9h0v0.1v0.5
		l-0.3,0.5l-0.2,0.4l-0.1,0.2V3.3z M56.5,15.4l-6.6-0.8l-0.2,0.1l-0.2,0.2L49.4,15l-0.3,0.1l-0.3,0l-0.2,0l-0.2-0.1L48.2,15L48,14.8
		l-0.2-0.1l0,0L41,15.5V3.6h0.9v10.8l0,0.1l0,0.1l0.1,0.1l0,0h0.1v0l0.1,0h0h0.1v0l1.3-0.1l1.2-0.1l1.5-0.1l1.2-0.1l0.2-0.1l0.1,0.1
		l0.2,0.1l0.1,0.1l0.1,0.1l0.3,0v0l0.2,0h0l0.3,0l0.1,0l0.2-0.1l0.1-0.1l0.1-0.1l0.2,0l1.2,0.1l1.5,0.1l1.2,0.1l1.3,0.1v0h0.1l0.1,0
		v0h0.1h0l0.1-0.1l0.1-0.1l0-0.1V3.6h0v0h0.8V15.4z"/>
	<path fill="#FFFFFF" d="M90.1,3.1h-1.3L88,2.3h-0.3V2.2V2.1h-0.5l-0.2,0l-0.1,0l-0.2,0.1l-0.2,0.1l-0.3,0H86l-0.3-0.1l-0.3-0.1
		L85,2L84.7,2l-0.5,0l-0.4,0L83.5,2l-0.4,0.1l-0.4,0.2l-0.3,0.2l-0.3,0.2L82,2.8l-0.2-0.1l-0.3-0.2l-0.3-0.2l-0.4-0.2L80.5,2L80.1,2
		l-0.4,0l-0.5,0L79,2l-0.4,0.1l-0.3,0.1l-0.3,0h-0.2l-0.3,0l-0.2-0.1L77,2.1l-0.1,0l-0.2,0l-0.4,0h-0.1v0.3H76h0l-0.8,0.8h-1.5v13
		l6.9-0.9l0.5,0.2l0.5,0.1l0.4,0l0.4,0l0.4-0.1l0.3-0.2l0.2-0.1l7,0.9v-13H90.1z M87.8,12L87.8,12l0-0.2v-0.1h0V2.8h0.1l0.5,0.5
		v10.2l-0.1-0.2l-0.2-0.4l-0.3-0.6L87.8,12z M87.4,12.5l0.2,0.5l0.2,0.4l0.2,0.4l0.1,0.2l0.1,0.1l0,0.1l0,0.1l0,0l-0.1,0l-0.8-0.1
		l-1.2-0.1L84.9,14l-1.2-0.1l-0.8-0.1l-0.2-0.2l-0.1-0.2l-0.1-0.3l-0.1-0.1l-0.1-0.1l0-0.1l0.2-0.2l0.2-0.1l0.1-0.1l0.1-0.1h0.7
		l0.4,0.1l0.4,0.1l0.4,0.1l0.4,0.1l0.4,0.1h0.4h0.2l0.4-0.1l0.3-0.1l0.1,0l0.1,0L87.4,12.5L87.4,12.5z M82.3,10.9l0.1-0.2l0.2-0.2
		l0.3-0.2l0.2-0.1l0.2-0.1l0.2,0l0.4,0.1l0.3,0.1l0.3,0.1l0.2,0.1l0.3,0l0.3,0l0.3,0l0.3,0l0.2,0l0.2,0v-0.3l-0.2,0l-0.2,0l-0.2,0.1
		l-0.3,0h-0.2l-0.3,0l-0.2-0.1l-0.2-0.1L84.3,10L84,10l-0.4,0l-0.3,0L83,10.1l-0.3,0.1l-0.2,0.1l-0.1,0.1l0,0V9l0.1-0.2l0.2-0.2
		L83,8.4l0.2-0.1l0.2-0.1l0.2,0l0.4,0.1l0.3,0.1l0.3,0.1l0.2,0.1l0.3,0l0.3,0l0.3,0l0.3,0l0.2,0l0.2,0V8.3l-0.2,0l-0.2,0l-0.2,0.1
		l-0.3,0h-0.2l-0.3,0l-0.2-0.1l-0.2-0.1l-0.2-0.1L84,8.1l-0.4,0l-0.3,0L83,8.2l-0.3,0.1l-0.2,0.1l-0.1,0.1l0,0V7.2L82.4,7l0.2-0.2
		L83,6.6l0.2-0.1l0.2-0.1l0.2,0l0.4,0.1l0.3,0.1l0.3,0.1l0.2,0.1l0.3,0l0.3,0l0.3,0l0.3,0l0.2,0l0.2,0V6.4l-0.2,0l-0.2,0l-0.2,0.1
		l-0.3,0h-0.2l-0.3,0l-0.2-0.1l-0.2-0.1l-0.2-0.1L84,6.3l-0.4,0l-0.3,0L83,6.4l-0.3,0.1l-0.2,0.1l-0.1,0.1l0,0V5.4l0.1-0.2L82.6,5
		L83,4.9l0.2-0.1l0.2-0.1l0.2,0l0.4,0.1l0.3,0.1L84.5,5L84.7,5l0.3,0l0.3,0l0.3,0l0.3,0L86,5l0.2,0V4.7l-0.2,0l-0.2,0l-0.2,0.1
		l-0.3,0h-0.2l-0.3,0l-0.2-0.1l-0.2-0.1l-0.2-0.1L84,4.5l-0.4,0l-0.3,0L83,4.6l-0.3,0.1l-0.2,0.1l-0.1,0.1l0,0V3.3V3.2l0,0L82.5,3
		l0.3-0.2l0.3-0.1l0.3-0.1l0.4-0.1l0.2,0l0.4,0l0.3,0l0.3,0.1l0.4,0.1l0.4,0.1l0.4,0l0.3,0l0.4,0L87,2.7l0.2-0.1l0.1,0l0,0v9.1v0.2
		l0,0L87,12l-0.3,0.1l-0.4,0.1l-0.7,0L85,12.1L84.7,12l-0.5-0.1l-0.7-0.1l-0.5,0l-0.2,0l-0.3,0.1L82.3,12V10.9z M81.8,13.3l0.1-0.2
		l0.1-0.1v0l0,0l0.1,0.1l0.1,0.2l0.1,0.2l0.1,0.2l0,0.2l0,0.1l0,0l-0.1,0L82.2,14L82,14l-0.3,0l-0.2-0.1l-0.1,0l0-0.1l0-0.1l0.1-0.2
		l0.1-0.1L81.8,13.3z M76.7,2.6L76.7,2.6h0.1l0.1,0.1l0.3,0.1l0.4,0l0.3,0l0.4,0l0.4-0.1L79,2.6l0.3-0.1l0.3,0l0.4,0l0.2,0l0.4,0.1
		l0.3,0.1l0.3,0.2L81.4,3l0.2,0.1v0.1v0.1v1.6l-0.1-0.1l-0.2-0.1L81,4.6l-0.3-0.1l-0.3,0l-0.4,0l-0.3,0.1l-0.2,0.1l-0.2,0.1
		l-0.2,0.1l-0.3,0h-0.2l-0.3,0l-0.2-0.1l-0.2,0l-0.2,0V5L78,5l0.2,0l0.3,0l0.3,0l0.3,0l0.3,0L79.5,5l0.3-0.1l0.3-0.1l0.4-0.1l0.2,0
		l0.2,0.1L81,4.9L81.4,5l0.2,0.2l0.1,0.1v1.3l-0.1-0.1l-0.2-0.1L81,6.4l-0.3-0.1l-0.3,0l-0.4,0l-0.3,0.1l-0.2,0.1l-0.2,0.1l-0.2,0.1
		l-0.3,0h-0.2l-0.3,0l-0.2-0.1l-0.2,0l-0.2,0v0.3l0.2,0l0.2,0l0.3,0l0.3,0l0.3,0l0.3,0l0.2-0.1l0.3-0.1L80,6.5l0.4-0.1l0.2,0
		l0.2,0.1L81,6.6l0.3,0.2L81.6,7l0.1,0.1v1.3l-0.1-0.1l-0.2-0.1L81,8.2l-0.3-0.1l-0.3,0l-0.4,0l-0.3,0.1l-0.2,0.1l-0.2,0.1l-0.2,0.1
		l-0.3,0h-0.2l-0.3,0l-0.2-0.1l-0.2,0l-0.2,0v0.3l0.2,0l0.2,0l0.3,0l0.3,0l0.3,0l0.3,0l0.2-0.1l0.3-0.1l0.3-0.1l0.4-0.1l0.2,0
		l0.2,0.1L81,8.4l0.3,0.2l0.2,0.2l0.1,0.1v1.4l-0.1-0.1l-0.2-0.1L81,10.1l-0.3-0.1l-0.3,0L80,10L79.7,10l-0.2,0.1l-0.2,0.1l-0.2,0.1
		l-0.3,0h-0.2l-0.3,0l-0.2-0.1l-0.2,0l-0.2,0v0.3l0.2,0l0.2,0l0.3,0l0.3,0l0.3,0l0.3,0l0.2-0.1l0.3-0.1l0.3-0.1l0.4-0.1l0.2,0
		l0.2,0.1l0.2,0.1l0.3,0.2l0.2,0.2l0.1,0.1V12l0,0l-0.2-0.1l-0.2-0.1l-0.2,0l-0.5,0l-0.7,0.1L79.3,12l-0.4,0.1l-0.6,0.1l-0.7,0
		l-0.3-0.1L77,12l-0.2-0.1l0,0V2.6z M76.3,13l0.2-0.5l0.1-0.1h0.1l0.1,0l0.1,0.1l0.3,0.1l0.4,0.1h0.2h0.4l0.4-0.1l0.4-0.1l0.4-0.1
		l0.4-0.1l0.4-0.1H81l0.1,0.1l0.1,0.1l0.2,0.1l0.2,0.2l0,0.1l-0.1,0.1l-0.1,0.1l-0.1,0.3l-0.1,0.2L81,13.8l-0.8,0.1L79,14l-1.2,0.1
		l-1.2,0.1l-0.8,0.1h-0.1l0,0l0-0.1l0-0.1l0.1-0.1l0.1-0.2l0.2-0.4L76.3,13z M75.6,3.3l0.5-0.5h0.1v8.9h0v0.1v0.5l-0.3,0.5l-0.2,0.4
		l-0.1,0.2V3.3z M89.7,15.4l-6.6-0.8l-0.2,0.1l-0.2,0.2L82.6,15l-0.3,0.1l-0.3,0l-0.2,0l-0.2-0.1L81.3,15l-0.2-0.1l-0.2-0.1l0,0
		l-6.8,0.9V3.6h0.9v10.8l0,0.1l0,0.1l0.1,0.1l0,0h0.1v0l0.1,0h0h0.1v0l1.3-0.1l1.2-0.1l1.5-0.1l1.2-0.1l0.3-0.1l0.1,0.1l0.2,0.1
		l0.1,0.1l0.1,0.1l0.3,0v0l0.2,0h0l0.3,0l0.1,0l0.2-0.1l0.1-0.1l0.1-0.1l0.2,0l1.2,0.1l1.5,0.1l1.2,0.1l1.3,0.1v0h0.1l0.1,0v0h0.1h0
		l0.1-0.1l0.1-0.1l0-0.1V3.6h0v0h0.8V15.4z"/>
</g>
</svg>
