<?xml version="1.0" encoding="utf-8"?>
<!-- Generator: Adobe Illustrator 18.1.1, SVG Export Plug-In . SVG Version: 6.00 Build 0)  -->
<svg version="1.1" id="Layer_1" xmlns="http://www.w3.org/2000/svg" xmlns:xlink="http://www.w3.org/1999/xlink" x="0px" y="0px"
	 viewBox="0 0 43 43" enable-background="new 0 0 43 43" xml:space="preserve">
<g>
	<path fill="#FFFFFF" d="M21.5,3.8c9.8,0,17.7,7.9,17.7,17.7s-7.9,17.7-17.7,17.7c-9.8,0-17.7-7.9-17.7-17.7S11.7,3.8,21.5,3.8
		 M21.5,0C9.7,0,0,9.7,0,21.5S9.7,43,21.5,43S43,33.3,43,21.5S33.3,0,21.5,0L21.5,0z"/>
	<g>
		<g>
			<g>
				<circle fill="#FFFFFF" cx="20.9" cy="32" r="1.8"/>
			</g>
		</g>
		<g>
			<path fill="#FFFFFF" d="M20.9,28.4c-1,0-1.9-0.8-1.9-1.9c0-2.8,1.7-4.4,2.7-4.9l0.1,0c5-2.1,4-5.4,4-5.6l-0.1-0.3
				c-0.1-0.5-0.7-2.9-4.5-2.9c-0.9,0-3.9,0.2-4.1,2.7c-0.1,1-1,1.8-2,1.7c-1-0.1-1.8-0.9-1.8-1.9c0.1-2.2,1.8-6.3,7.9-6.3
				c5.7,0,7.8,3.8,8.2,6c0.7,2.4,0.2,7.3-6.1,9.9c-0.1,0.1-0.6,0.4-0.6,1.5C22.8,27.6,21.9,28.4,20.9,28.4z"/>
		</g>
	</g>
</g>
</svg>
