<?xml version="1.0" encoding="utf-8"?>
<!-- Generator: Adobe Illustrator 18.1.1, SVG Export Plug-In . SVG Version: 6.00 Build 0)  -->
<svg version="1.1" id="Layer_1" xmlns="http://www.w3.org/2000/svg" xmlns:xlink="http://www.w3.org/1999/xlink" x="0px" y="0px"
	 viewBox="0 0 43 43" enable-background="new 0 0 43 43" xml:space="preserve">
<g>
	<g>
		<path fill="#FFFFFF" d="M19.8,32.3L11.4,23c-0.7-0.8-0.6-1.9,0.1-2.6c0.8-0.7,1.9-0.6,2.6,0.1l5.2,5.8l9.4-13.7
			c0.6-0.8,1.7-1.1,2.6-0.5c0.8,0.6,1.1,1.7,0.5,2.6L19.8,32.3z"/>
	</g>
	<g>
		<path fill="#FFFFFF" d="M21.5,4.1c9.6,0,17.4,7.8,17.4,17.4s-7.8,17.4-17.4,17.4c-9.6,0-17.4-7.8-17.4-17.4S11.9,4.1,21.5,4.1
			 M21.5,0.4C9.9,0.4,0.4,9.9,0.4,21.5s9.5,21.1,21.1,21.1s21.1-9.5,21.1-21.1S33.1,0.4,21.5,0.4L21.5,0.4z"/>
	</g>
</g>
</svg>
